<svg id="Grupo_18" data-name="Grupo 18" xmlns="http://www.w3.org/2000/svg" xmlns:xlink="http://www.w3.org/1999/xlink" width="1400" height="704" viewBox="0 0 1400 704">
  <defs>
    <clipPath id="clip-path">
      <rect id="Rectángulo_16" data-name="Rectángulo 16" width="154.12" height="162.65" transform="translate(1022.08 242.66)" fill="none"/>
    </clipPath>
  </defs>
  <g id="Capa_2" data-name="Capa 2">
    <rect id="Rectángulo_9" data-name="Rectángulo 9" width="1400" height="704" transform="translate(0 0)" fill="#007d8c"/>
  </g>
  <path id="Trazado_53" data-name="Trazado 53" d="M676.18,582.33c4.14-18.85,20.28-32.92,39.62-32.92a39.029,39.029,0,0,1,10.26,1.37c9.55-21.29,30.23-36,54.22-36a57,57,0,0,1,17.81,2.82c12.92-22.31,36.38-37.26,63.19-37.26,31.89,0,59.07,21.13,69.36,50.7a48.793,48.793,0,0,1,24.61-6.66c28,0,50.61,23.65,50.61,52.84q0,2.591-.24,5.13Z" fill="#fff" opacity="0.74" style="isolation: isolate"/>
  <path id="Trazado_54" data-name="Trazado 54" d="M871.56,704h138l11.49-32.17a44.732,44.732,0,0,1,23-25.57c10-4.73,23.44-13.3,36.5-28.58a266.369,266.369,0,0,0,38.84-61.63l-85.52-.44s7.69-49.95-34.82-116.28a38.771,38.771,0,0,1-5.91-24.12l4-48.39s28.89-33.69,11.16-75.51c0,0-17-24.49-23.68-15.52,0,0-51.19,127.26-55.85,146.18s-10.88,30.82-4.66,90.24a378.773,378.773,0,0,1,2.15,39.7,146.148,146.148,0,0,1-13,59.91Z" fill="#c69c6d"/>
  <path id="Trazado_55" data-name="Trazado 55" d="M1302.29,288.56a4.84,4.84,0,0,0-4.65-3.86,4.91,4.91,0,0,0-1.2.17,7,7,0,0,0-6.35-4.22,6.661,6.661,0,0,0-2,.32,8.49,8.49,0,0,0-15.51,1.58,5.705,5.705,0,0,0-2.88-.78,6.09,6.09,0,0,0-5.93,6.19v.6Z" fill="#fff" opacity="0.74" style="isolation: isolate"/>
  <path id="Trazado_56" data-name="Trazado 56" d="M1246.6,142.81a12.56,12.56,0,0,0-12.16-10.07,12.336,12.336,0,0,0-3.14.43,18.242,18.242,0,0,0-16.57-11,17.689,17.689,0,0,0-5.44.86A22.372,22.372,0,0,0,1190,111.62a22.65,22.65,0,0,0-21.2,15.51,14.74,14.74,0,0,0-7.52-2c-8.54,0-15.47,7.23-15.47,16.15a10.416,10.416,0,0,0,.08,1.57Z" fill="#fff" opacity="0.74" style="isolation: isolate"/>
  <path id="Trazado_57" data-name="Trazado 57" d="M973.42,241.87a10.541,10.541,0,0,0-10.14-8.42,10.16,10.16,0,0,0-2.63.35,15.281,15.281,0,0,0-13.87-9.22,14.684,14.684,0,0,0-4.56.72,18.741,18.741,0,0,0-16.17-9.53,18.942,18.942,0,0,0-17.74,13A12.536,12.536,0,0,0,902,227c-7.15,0-12.94,6.08-12.94,13.52a9.554,9.554,0,0,0,.06,1.31Z" fill="#fff" opacity="0.74" style="isolation: isolate"/>
  <path id="Trazado_58" data-name="Trazado 58" d="M1196.48,190.94s29.24-20.43,35.91-7S1194.46,245,1194.46,245Z" fill="#c69c6d"/>
  <path id="Trazado_59" data-name="Trazado 59" d="M1196.48,279.93s29.24-20.42,35.91-7S1194.46,334,1194.46,334Z" fill="#c69c6d"/>
  <path id="Trazado_60" data-name="Trazado 60" d="M1196.48,340.56s29.24-20.43,35.91-7-37.93,61.07-37.93,61.07Z" fill="#c69c6d"/>
  <path id="Trazado_61" data-name="Trazado 61" d="M1176.3,168.05H1015.82c-12,0-21.64,10.14-21.64,22.59V533c0,12.59,9.8,22.59,21.64,22.59H1176.3c11.93,0,21.63-10.14,21.63-22.59V190.64C1197.93,178.06,1188.13,168.05,1176.3,168.05Z" fill="#00415d"/>
  <path id="Trazado_62" data-name="Trazado 62" d="M1008.79,455.93s-29,74.18-26.2,88.21,20.42,32.78,63.65,26.53,73.08-14.61,73.08-14.61,1.81-100.11,0-105.18-79.51-41.12-82.56-41.12S1008.79,455.93,1008.79,455.93Z" fill="#ea94ad" opacity="0.2" style="isolation: isolate"/>
  <rect id="Rectángulo_10" data-name="Rectángulo 10" width="182.77" height="325.98" transform="translate(1004.67 198.84)" fill="#fff"/>
  <path id="Trazado_63" data-name="Trazado 63" d="M1133.36,188.6h-74.31a2,2,0,0,1-2-2h0a2,2,0,0,1,2-2h74.31a2,2,0,0,1,2,2h0a2,2,0,0,1-2,2Z" fill="#fff"/>
  <path id="Trazado_64" data-name="Trazado 64" d="M990.54,396s1.11,4.28,3.6,6.38l3-35.58s21.29-24.79,16.11-58.22A50.563,50.563,0,0,0,997.66,279c-4.76-4.37-10-7.29-13.07-3.17,0,0-24.07,59.82-40.7,103.56Z" fill="#c69c6d"/>
  <ellipse id="Elipse_2" data-name="Elipse 2" cx="8.97" cy="9.37" rx="8.97" ry="9.37" transform="translate(1086.98 531.15)" fill="#daeef7" opacity="0.3" style="isolation: isolate"/>
  <path id="Trazado_65" data-name="Trazado 65" d="M1098.63,544.44h-5.36a1.1,1.1,0,0,1-1-1.12v-5.61a1.09,1.09,0,0,1,1-1.11h5.36a1.09,1.09,0,0,1,1,1.11v5.59A1.1,1.1,0,0,1,1098.63,544.44Zm-5.36-7.52a.8.8,0,0,0-.77.81h0v5.59a.79.79,0,0,0,.77.81h5.36a.79.79,0,0,0,.77-.809h0v-5.61a.8.8,0,0,0-.77-.81h0Z" fill="#daeef7"/>
  <rect id="Rectángulo_11" data-name="Rectángulo 11" width="182.77" height="19.29" transform="translate(1004.67 505.54)" fill="#bce3f2"/>
  <rect id="Rectángulo_12" data-name="Rectángulo 12" width="182.77" height="17.3" transform="translate(1004.67 198.84)" fill="#bce3f2"/>
  <g id="Grupo_17" data-name="Grupo 17">
    <g id="Grupo_16" data-name="Grupo 16" clip-path="url(#clip-path)">
      <g id="Grupo_15" data-name="Grupo 15">
        <rect id="Rectángulo_13" data-name="Rectángulo 13" width="154.12" height="162.65" transform="translate(1022.08 242.66)" fill="#fff"/>
        <g id="Grupo_12" data-name="Grupo 12">
          <g id="Grupo_11" data-name="Grupo 11" clip-path="url(#clip-path)">
            <g id="Grupo_10" data-name="Grupo 10">
              <path id="Trazado_66" data-name="Trazado 66" d="M1084.57,262.7c-.39-12.63-20.48-9-16.22,4.6-4.27-4.6-10.8-6.39-17,.24-2.82,3-2.41,8.5-1.2,12.42-5.21-.23-11.61.92-12.61,8.28-.6,4.83,1.6,8.29,5.6,9.9-13.18.69-13.61,20.7-.6,20.93-4,2.53-7.2,5.07-6.81,11.05.6,6.89,4.81,7.58,9.61,7.82-6.61,10.81.81,19.55,11.22,16.11.2,3.9-.6,7.36,3,9.66,3.8,2.53,10.21,1.84,13.82-.47.6,3.68,1.4,6,4.81,6.91,3,.46,5.2-1.38,7.4-.69,2.81.92,4.41,3.45,7.81,2,3-1.15,4.2-5.07,7-6.67,5.2-3,10.61.69,14.41,4.83,3.61,4.14,11,6,12-2.08,3,.69,7.2,3.23,10.41.69,2.4-1.83,1.8-5.28,2-8.27,8,5.28,14.4-1.61,10.41-10.82,3.4-1.61,5,.23,8-3,4.61-4.83,2.81-10.65,1.21-15.48,0,0,1.19.29,3-2.7a17.633,17.633,0,0,0,1.8-5.52c.6-3.91,0-7.59-3.61-9.2,3.21-4.61,6.41-7.1,4.81-13.8a11,11,0,0,0-8.81-8.75c7.21-8.05.8-22.54-9-20.28,4.25-9.44-6.2-18.42-13-10.14-.21-10.33-13.81-12.66-18.26-3.92-2.2-4.82-7.2-7.81-12-5.74-3.8,1.84-4.6,4.83-5,8.74-1.82-4.6-5.21-7.37-10.22-5.3-3,1.39-3.8,5.07-4.2,8.52" fill="#05435c"/>
              <path id="Trazado_67" data-name="Trazado 67" d="M1142.47,328.41c-1.08,3.39-9,11.16-11.88,5.74l1.88-18h0a9,9,0,0,1,6.15-1,4.154,4.154,0,0,1,.88.35c4.39,2.2,4.21,8.91,2.93,12.88" fill="#05435c"/>
              <path id="Trazado_68" data-name="Trazado 68" d="M1068,315.77c-2.09-1-4.88-1.74-7.1-.64-4.39,2.2-4.2,8.91-2.93,12.88,1.08,3.4,9,11.15,11.88,5.74" fill="#05435c"/>
              <path id="Trazado_69" data-name="Trazado 69" d="M1070.93,307.55c-3.35,5.07-3.71,12.17-3.31,18.4.56,8.65,1.39,20.63,1.91,24.34.84,6.08,7.09,24.61,31.71,24,17.74-.84,29-6.09,30.89-31.3.71-9.62,1.39-21-.36-30.42-1-5.35-4-9.58-5.13-13.8-2-7.9-3.9-13.18-3.9-13.18l-20.45-2.09-17.74.21L1072.86,285l-2.29,7.31Z" fill="#05435c"/>
              <path id="Trazado_70" data-name="Trazado 70" d="M1095.94,339.53c-1.22.12-2.49.22-3.73.32s-2.47.21-3.7.34-2.43.28-3.62.45-2.35.42-3.52.65h-.07a1.52,1.52,0,0,1-1-2.82,16.845,16.845,0,0,1,3.89-1.45,28.6,28.6,0,0,1,4-.62,33.369,33.369,0,0,1,4,0,24.038,24.038,0,0,1,4,.52,1.33,1.33,0,0,1,1,1.59,1.349,1.349,0,0,1-1.15,1Z" fill="#fff"/>
              <path id="Trazado_71" data-name="Trazado 71" d="M1110.78,337a23.114,23.114,0,0,1,4-.51,29.665,29.665,0,0,1,4,0,27.531,27.531,0,0,1,4.06.61,16.825,16.825,0,0,1,3.89,1.45,1.52,1.52,0,0,1-1,2.82h-.07c-1.17-.23-2.33-.45-3.52-.65s-2.4-.33-3.62-.45-2.46-.24-3.7-.34-2.51-.2-3.73-.32h0a1.33,1.33,0,0,1-.15-2.62" fill="#fff"/>
              <path id="Trazado_72" data-name="Trazado 72" d="M1090.16,349.83c0,1.88-1.15,3.4-2.58,3.4s-2.58-1.52-2.58-3.4,1.16-3.39,2.58-3.39,2.58,1.52,2.58,3.39" fill="#fff"/>
              <path id="Trazado_73" data-name="Trazado 73" d="M1121.08,349.83c0,1.88-1.16,3.4-2.59,3.4s-2.57-1.52-2.57-3.4,1.15-3.39,2.57-3.39,2.59,1.52,2.59,3.39" fill="#fff"/>
              <path id="Trazado_74" data-name="Trazado 74" d="M1070.86,277.85l-2.55,14.3h13.19l-6.6,34.38h17.41v-35.2l13.17-.26V277.85Z" fill="#fff"/>
              <path id="Trazado_75" data-name="Trazado 75" d="M1105.01,326.53l-5.09-41.26h13.99l-1.59,16.92h10.32V289.04l11.44-.13-2.39,37.62H1119.9l2.26-12.01-7.79-.05,1.44,12.06Z" fill="#fff"/>
            </g>
          </g>
        </g>
        <g id="Grupo_13" data-name="Grupo 13" transform="translate(9)">
          <text id="Think_smart_Think_Healthy" data-name="Think smart, Think Healthy" transform="translate(1023.551 394.63)" fill="#05435c" font-size="10" font-family="NotoSansKR-Bold, Noto Sans KR" font-weight="700" style="isolation: isolate"><tspan x="0" y="0">Think smart, Think Healthy</tspan></text>
        </g>
        <rect id="Rectángulo_15" data-name="Rectángulo 15" width="154.12" height="162.65" transform="translate(1022.08 242.66)" fill="none"/>
      </g>
    </g>
  </g>
  <path id="Trazado_76" data-name="Trazado 76" d="M988.92,310.93c6.65-3.19,10.14-21.29,11.37-29.4-5.34-5.61-12-10.66-15.7-5.77,0,0-5.3,13.18-12.64,31.69C977,310.39,984,313.33,988.92,310.93Z" fill="#c7b299"/>
  <path id="Trazado_77" data-name="Trazado 77" d="M1156.52,413.54s-24.68,2.16-25.54,9,1,18.92,24.34,21.29h24.14s-7.22-20.91-6.88-21.63S1156.52,413.54,1156.52,413.54Z" fill="#c69c6d"/>
  <path id="Trazado_78" data-name="Trazado 78" d="M1116.92,515.69a7.16,7.16,0,0,0-2.61,9.68c11.36,20.45,56.53,101.73,60.61,108.34,4.65,7.58,16,25.41,53.86,34.61S1282.11,704,1282.11,704h116.53s-27.44-45.41-50.24-163.24c0,0-17.6-97.85-50.69-94.61,0,0-20.2-22.17-39.88-17.84,0,0-37.3-23.25-58.53-23.25l-51-62.93a14.32,14.32,0,0,0-20.1-2.514l-.005,0h0a10.163,10.163,0,0,0-3.94,6.48c-1.55,10.27,11.4,36.23,32.11,67.58s72,130.8,49.68,174.63a230.941,230.941,0,0,1-42.48-46.57C1147,517.82,1127.66,509.75,1116.92,515.69Z" fill="#c69c6d"/>
  <path id="Trazado_79" data-name="Trazado 79" d="M1199.44,405.06a217.256,217.256,0,0,1,19.11,19.5,240.514,240.514,0,0,1,16.87,21.68,175.511,175.511,0,0,1,13.92,23.91,92.817,92.817,0,0,1,8.42,26.5h-.16a105.01,105.01,0,0,0-9.34-25.94,197.325,197.325,0,0,0-14.1-23.55c-5.16-7.56-10.74-14.79-16.55-21.79-5.46-6.59-12.35-14.31-18.25-20.28Z" fill="#ea94ad" opacity="0.2" style="isolation: isolate"/>
  <path id="Trazado_80" data-name="Trazado 80" d="M1257.44,428.11a57.561,57.561,0,0,1,14.75,11.68,77.4,77.4,0,0,1,20.54,52.78h-.17a97.731,97.731,0,0,0-3.35-18.82,86.5,86.5,0,0,0-17.92-33.1,68.924,68.924,0,0,0-14-12.44Z" fill="#ea94ad" opacity="0.2" style="isolation: isolate"/>
  <path id="Trazado_81" data-name="Trazado 81" d="M1297.24,445.69c4.88,3.84,9.78,10.62,12.17,15.21a69.469,69.469,0,0,1,8.57,31.65h-.15c-2-12.53-4.11-19.64-9.71-30.94a72.841,72.841,0,0,0-11-15.86Z" fill="#ea94ad" opacity="0.2" style="isolation: isolate"/>
  <path id="Trazado_82" data-name="Trazado 82" d="M1140.44,540.86c1-5.48-5.07-14.2-10.62-20.71a12.55,12.55,0,0,0-13.73-3.9,7.2,7.2,0,0,0-1.78,9.12l15,27C1134.2,549.88,1139.48,545.93,1140.44,540.86Z" fill="#c7b299"/>
  <path id="Trazado_83" data-name="Trazado 83" d="M1145.34,366.8c2.94-.62,16.3-5.25,15.49-7.79h0l-13.18-16.23a14.784,14.784,0,0,0-10.05-5.48h-.75c-1.76,0-6.08.52-7.09,5.51s6.88,16.94,10.33,21.92A5,5,0,0,0,1145.34,366.8Z" fill="#c7b299"/>
  <path id="Trazado_84" data-name="Trazado 84" d="M1282.11,704h116.53s-18-29.78-36.94-103.68c-8.32,54.42-54.19,51.28-72.39,54.3-21,3.48-102.32-14.19-113.72-19.81,5.07,8.11,17.09,24.73,53.19,33.46C1266.58,677.51,1282.11,704,1282.11,704Z" fill="#ea94ad" opacity="0.2" style="isolation: isolate"/>
  <path id="Trazado_85" data-name="Trazado 85" d="M1162.42,423.54c22.86,38.33,63.88,126.36,43.6,164.77l13.47,13.86s34-39.33-20.12-126.06A574.37,574.37,0,0,0,1162.42,423.54Z" fill="#ea94ad" opacity="0.2" style="isolation: isolate"/>
  <path id="Trazado_86" data-name="Trazado 86" d="M1080.63,74.34a10,10,0,0,1,9.6-8,9.109,9.109,0,0,1,2.49.34A14.421,14.421,0,0,1,1105.84,58a13.843,13.843,0,0,1,4.32.69,17.668,17.668,0,0,1,15.29-9,17.92,17.92,0,0,1,16.79,12.28,11.875,11.875,0,0,1,6-1.61,12.54,12.54,0,0,1,12.26,12.79,8.555,8.555,0,0,1-.06,1.24Z" fill="#fff" opacity="0.74" style="isolation: isolate"/>
  <path id="Trazado_87" data-name="Trazado 87" d="M970.48,112a7.1,7.1,0,0,1,6.86-5.71,6.694,6.694,0,0,1,1.78.24,10.34,10.34,0,0,1,9.39-6.24,10.05,10.05,0,0,1,3,.48,12.7,12.7,0,0,1,11-6.45,12.831,12.831,0,0,1,12,8.79,8.456,8.456,0,0,1,4.27-1.16,9,9,0,0,1,8.77,9.13v.89Z" fill="#fff" opacity="0.74" style="isolation: isolate"/>
  <path id="Trazado_88" data-name="Trazado 88" d="M1272.44,382.46s-1.2,12.35-10.54,13.18c9.34.85,10.54,13.18,10.54,13.18s1.2-12.36,10.54-13.18C1273.64,394.81,1272.44,382.46,1272.44,382.46Z" fill="#fff"/>
  <path id="Trazado_89" data-name="Trazado 89" d="M1256,186.76s-.86,8.86-7.56,9.48c6.7.61,7.56,9.48,7.56,9.48s.86-8.87,7.57-9.48C1256.87,195.62,1256,186.76,1256,186.76Z" fill="#fff"/>
  <path id="Trazado_90" data-name="Trazado 90" d="M965.55,139.23s-.55,5.58-4.76,6c4.21.38,4.76,6,4.76,6s.53-5.58,4.75-6C966.08,144.81,965.55,139.23,965.55,139.23Z" fill="#fff"/>
  <path id="Trazado_91" data-name="Trazado 91" d="M931.21,291.13s-1.2,12.35-10.54,13.18c9.34.86,10.54,13.18,10.54,13.18s1.2-12.36,10.54-13.18C932.41,303.49,931.21,291.13,931.21,291.13Z" fill="#fff"/>
  <path id="Trazado_92" data-name="Trazado 92" d="M1297.16,348.27s-.8,8.17-7,8.74c6.18.57,7,8.74,7,8.74s.79-8.17,7-8.74C1298,356.44,1297.16,348.27,1297.16,348.27Z" fill="#fff"/>
  <path id="Trazado_93" data-name="Trazado 93" d="M1277.44,163.1s-.44,4.46-3.82,4.77c3.38.31,3.82,4.77,3.82,4.77s.42-4.46,3.8-4.77C1277.86,167.56,1277.44,163.1,1277.44,163.1Z" fill="#fff"/>
  <path id="Trazado_94" data-name="Trazado 94" d="M950.86,262.22s-.8,8.18-7,8.74c6.17.56,7,8.73,7,8.73s.8-8.17,7-8.73C951.66,270.4,950.86,262.22,950.86,262.22Z" fill="#fff"/>
  <path id="Trazado_95" data-name="Trazado 95" d="M995.64,127.43s-.41,4.28-3.65,4.57c3.24.3,3.65,4.58,3.65,4.58s.42-4.28,3.65-4.58C996.06,131.71,995.64,127.43,995.64,127.43Z" fill="#fff"/>
  <path id="Trazado_96" data-name="Trazado 96" d="M1261.05,323.77s-.35,3.66-3.12,3.91c2.77.26,3.12,3.92,3.12,3.92s.36-3.66,3.11-3.92C1261.38,327.38,1261.05,323.77,1261.05,323.77Z" fill="#fff"/>
  <path id="Trazado_97" data-name="Trazado 97" d="M939.5,339.39s-.36,3.65-3.11,3.9c2.75.25,3.11,3.91,3.11,3.91s.35-3.66,3.12-3.91C939.85,343,939.5,339.39,939.5,339.39Z" fill="#fff"/>
  <path id="Trazado_98" data-name="Trazado 98" d="M972,169.16s-.7,7.22-6.16,7.72c5.46.51,6.16,7.73,6.16,7.73s.71-7.22,6.16-7.73C972.67,176.38,972,169.16,972,169.16Z" fill="#fff"/>
  <path id="Trazado_99" data-name="Trazado 99" d="M873.35,410.11s-1.21,12.35-10.55,13.18c9.34.85,10.55,13.18,10.55,13.18s1.2-12.35,10.53-13.18C874.55,422.46,873.35,410.11,873.35,410.11Z" fill="#fff"/>
  <path id="Trazado_100" data-name="Trazado 100" d="M893,381.19s-.79,8.17-7,8.74c6.19.57,7,8.74,7,8.74s.79-8.17,7-8.74C893.79,389.36,893,381.19,893,381.19Z" fill="#fff"/>
  <path id="Trazado_101" data-name="Trazado 101" d="M881.64,458.35s-.35,3.66-3.12,3.92c2.77.25,3.12,3.91,3.12,3.91s.36-3.66,3.13-3.91C882,462,881.64,458.35,881.64,458.35Z" fill="#fff"/>
  <path id="Trazado_102" data-name="Trazado 102" d="M1365.11,457.76s-1.2,12.35-10.54,13.19c9.34.85,10.54,13.18,10.54,13.18s1.2-12.35,10.54-13.18C1366.31,470.11,1365.11,457.76,1365.11,457.76Z" fill="#fff"/>
  <path id="Trazado_103" data-name="Trazado 103" d="M1384.76,428.85s-.79,8.17-7,8.74c6.18.56,7,8.74,7,8.74s.79-8.18,7-8.74C1385.55,437,1384.76,428.85,1384.76,428.85Z" fill="#fff"/>
  <path id="Trazado_104" data-name="Trazado 104" d="M1373.41,506s-.36,3.66-3.13,3.91c2.77.25,3.13,3.91,3.13,3.91s.35-3.66,3.12-3.91C1373.76,509.67,1373.41,506,1373.41,506Z" fill="#fff"/>
</svg>
