<?xml version="1.0" encoding="utf-8"?>
<!-- Generator: Adobe Illustrator 24.0.2, SVG Export Plug-In . SVG Version: 6.00 Build 0)  -->
<svg version="1.1" xmlns="http://www.w3.org/2000/svg" xmlns:xlink="http://www.w3.org/1999/xlink" x="0px" y="0px"
	 viewBox="0 0 260 260" style="enable-background:new 0 0 260 260;" xml:space="preserve">
<style type="text/css">
	.st0{fill:none;}
	.st1{fill:#644C2C;}
	.st2{fill:#584327;}
	.st3{opacity:0.5;}
	.st4{fill:#F1E9DE;}
	.st5{fill:#2C2214;}
	.st6{opacity:0.3;fill:#FFFFFF;}
	.st7{clip-path:url(#SVGID_2_);}
	.st8{fill:#FFFFFF;}
	.st9{clip-path:url(#SVGID_2_);fill:#F7931E;}
	.st10{fill:#2D2D2D;}
	.st11{fill:#29292C;}
	.st12{opacity:0.2;fill:#0D3043;}
	.st13{fill:#E40517;}
	.st14{fill:#D69F6E;}
	.st15{fill:#808DAA;}
	.st16{fill:#BF8D64;}
	.st17{fill:#EDEDED;}
	.st18{fill:url(#SVGID_3_);}
	.st19{fill:url(#SVGID_4_);}
	.st20{fill:url(#SVGID_5_);}
	.st21{fill:url(#SVGID_6_);}
	.st22{fill:url(#SVGID_7_);}
	.st23{fill:url(#SVGID_8_);}
	.st24{fill:url(#SVGID_9_);}
	.st25{fill:url(#SVGID_10_);}
	.st26{fill:#080305;}
	.st27{opacity:0.72;fill:#8C6239;}
	.st28{fill:#721A25;}
	.st29{fill:#BDCCD4;}
	.st30{fill:#603813;}
	.st31{fill:#E87D5B;}
	.st32{fill:#F0A98F;}
	.st33{fill:#D8826C;}
	.st34{fill:#669EC1;}
	.st35{fill:#F7F7F7;}
	.st36{fill:#FB9988;}
	.st37{fill:#FD7D6F;}
	.st38{fill:#262424;}
	.st39{fill:#E03B72;}
	.st40{fill:#752E33;}
	.st41{fill:#333333;}
	.st42{opacity:0.08;}
</style>
<pattern  width="464.66" height="462.02" patternUnits="userSpaceOnUse" id="Motivo_nuevo_2" viewBox="0 -462.02 464.66 462.02" style="overflow:visible;">
	<g>
		<rect y="-462.02" class="st0" width="464.66" height="462.02"/>
		<rect x="0" y="-462.02" class="st1" width="464.66" height="462.02"/>
		<rect x="22.49" y="-462.02" class="st2" width="74.84" height="462.02"/>
		<rect x="120.9" y="-462.02" class="st2" width="85.39" height="462.02"/>
		<rect x="229.87" y="-462.02" class="st2" width="59.6" height="462.02"/>
		<rect x="313.06" y="-462.02" class="st2" width="70.15" height="462.02"/>
		<rect x="406.8" y="-462.02" class="st2" width="57.86" height="462.02"/>
		<g class="st3">
			<rect x="124.48" y="-462.02" class="st4" width="33.37" height="462.02"/>
			<rect x="33.25" y="-462.02" class="st4" width="37.65" height="462.02"/>
			<rect x="232.56" y="-462.02" class="st4" width="37.98" height="462.02"/>
			<rect x="181.84" y="-462.02" class="st4" width="12.89" height="462.02"/>
			<rect x="413.44" y="-462.02" class="st4" width="51.21" height="462.02"/>
			<rect x="317.57" y="-462.02" class="st4" width="35.59" height="462.02"/>
		</g>
		<g class="st3">
			<rect y="-187.11" class="st5" width="464.66" height="26.03"/>
			<rect y="-123.85" class="st5" width="464.66" height="62.18"/>
			<rect y="-30.21" class="st5" width="464.66" height="30.21"/>
			<rect x="0" y="-436.19" class="st5" width="464.66" height="62.18"/>
			<rect y="-285.8" class="st5" width="464.66" height="68.32"/>
			<rect y="-329.18" class="st5" width="464.66" height="16.99"/>
		</g>
		<rect x="0" y="-448.02" class="st6" width="464.66" height="30.78"/>
		<rect y="-393.79" class="st6" width="464.66" height="45.95"/>
		<rect x="0" y="-324.38" class="st6" width="464.66" height="58.97"/>
		<rect y="-241.96" class="st6" width="464.66" height="62.22"/>
		<rect y="-156.28" class="st6" width="464.66" height="55.71"/>
		<rect y="-77.11" class="st6" width="464.66" height="53.55"/>
		<rect x="0" y="-0.11" class="st6" width="464.66" height="0.11"/>
	</g>
</pattern>
<g id="Capa_1">
	<g id="Fondo">
	</g>
</g>
<g id="Capa_3">
	<g>
		<defs>
			<rect id="SVGID_1_" width="260" height="260"/>
		</defs>
		<clipPath id="SVGID_2_">
			<use xlink:href="#SVGID_1_"  style="overflow:visible;"/>
		</clipPath>
		<g class="st7">
			<rect class="st8" width="260" height="260"/>
		</g>
		<path class="st9" d="M-566,1248C-596,428,296,498,111.93-13.07C-45.38-449.86-907-246-1043-752c734,0,2323,0,2323,0v2000H-566z"/>
		<g class="st7">
			<g>
				<path class="st10" d="M94.64,61.26c-0.2-6.45-10.47-4.59-8.29,2.35c-2.18-2.35-5.52-3.27-8.7,0.12
					c-1.44,1.54-1.23,4.35-0.61,6.35c-2.66-0.12-5.93,0.47-6.45,4.23c-0.31,2.47,0.82,4.23,2.86,5.06
					c-6.75,0.35-6.96,10.58-0.31,10.7c-2.05,1.29-3.68,2.59-3.48,5.64c0.31,3.53,2.46,3.88,4.91,4c-3.38,5.53,0.41,9.99,5.73,8.23
					c0.1,2-0.31,3.76,1.53,4.94c1.94,1.29,5.22,0.94,7.06-0.24c0.31,1.88,0.72,3.06,2.46,3.53c1.53,0.24,2.66-0.71,3.79-0.35
					c1.43,0.47,2.25,1.76,3.99,1.06c1.53-0.59,2.15-2.59,3.58-3.41c2.66-1.53,5.42,0.35,7.37,2.47c1.84,2.12,5.63,3.06,6.14-1.06
					c1.53,0.35,3.68,1.65,5.32,0.35c1.23-0.94,0.92-2.7,1.02-4.23c4.09,2.7,7.37-0.82,5.32-5.53c1.74-0.82,2.56,0.12,4.09-1.53
					c2.35-2.47,1.43-5.44,0.61-7.91c0,0,0.61,0.15,1.53-1.38c0.51-0.94,0.72-1.76,0.92-2.82c0.31-2,0-3.88-1.84-4.7
					c1.64-2.35,3.27-3.64,2.46-7.05c-0.61-2.7-2.46-4-4.5-4.47c3.68-4.11,0.41-11.52-4.6-10.35c2.17-4.82-3.17-9.41-6.65-5.17
					c-0.1-5.28-7.06-6.47-9.31-2c-1.13-2.47-3.68-4-6.14-2.94c-1.94,0.94-2.35,2.47-2.56,4.47c-0.93-2.35-2.66-3.76-5.22-2.7
					c-1.53,0.71-1.94,2.59-2.15,4.35"/>
			</g>
			<rect x="87.38" y="120.41" class="st11" width="29.38" height="7.13"/>
			<ellipse class="st12" cx="105.49" cy="360.35" rx="57.76" ry="7.24"/>
			<g>
				<path class="st13" d="M113.6,330.91l1.31,27.71c0,0,53.02,9.95,10.83-6.43l-1.45-17.6L113.6,330.91z"/>
				<path class="st14" d="M114.6,351.99l-0.99-21.08l10.68,3.68l1.22,14.73C121.89,350.34,118.25,351.22,114.6,351.99z"/>
				<path class="st8" d="M131.38,359.59c0.74-1.43,1.6-2.79,2.58-4.13c6.26,2.8,8.39,4.44,8.03,5.3c-0.49,3.38-27.1-1.96-27.1-1.96
					l-0.06-1.87C116.18,357.22,124.3,358.79,131.38,359.59z"/>
			</g>
			<g>
				<path class="st13" d="M91.85,332.62l-1.31,27.71c0,0-53.02,9.95-10.83-6.43l1.45-17.6L91.85,332.62z"/>
				<path class="st14" d="M90.85,353.7l0.99-21.08l-10.68,3.68l-1.22,14.73C83.56,352.05,87.2,352.93,90.85,353.7z"/>
				<path class="st8" d="M74.07,361.31c-0.74-1.43-1.6-2.79-2.58-4.13c-6.26,2.8-8.39,4.44-8.03,5.3c0.49,3.38,27.1-1.96,27.1-1.96
					l0.06-1.87C89.27,358.93,81.15,360.5,74.07,361.31z"/>
			</g>
			<rect x="75.51" y="220.23" class="st15" width="53.4" height="35.37"/>
			<path class="st14" d="M185.7,172.72c0.61,0.31,1.33,0.02,1.57-0.59c0,0,0.68-1.75,1.12-2.9c0.19-0.48,0.88-0.48,1.05,0
				c0.25,0.71,0.2,1.51,0.08,2.15c-0.01,0.03-2.23,7.92-2.23,7.92c-0.04,0.15-0.05,0.3-0.03,0.44c0.05,0.44,0.37,0.82,0.82,0.95
				c0.63,0.04,1.29-0.43,1.46-1.04l1.54-5.5c0.07-0.25,0.3-0.41,0.56-0.39l0.17,0.01c0.29,0.02,0.53,0.26,0.53,0.56l0.02,7.16
				c0,0.59,0.43,1.13,1.02,1.19c0.68,0.07,1.25-0.47,1.24-1.13l-0.02-6.97c0-0.36,0.26-0.67,0.62-0.73c0.46-0.07,0.89,0.24,0.96,0.7
				l0.99,6.15c0.09,0.58,0.6,1.05,1.19,1.01c0.68-0.04,1.16-0.65,1.05-1.31l-1.03-6.39c-0.07-0.42,0-0.86,0.2-1.24
				c0.23-0.45,0.89-0.41,1.07,0.06l1.07,2.71c0.22,0.55,0.81,0.89,1.38,0.73c0.66-0.18,0.99-0.89,0.75-1.5l-2.2-5.96
				c-0.44-1.51-0.91-2.84-1.37-4c-0.46-1.16-0.9-2.15-1.31-2.97l-2.54-7.29l-10.03,3.4l2.4,5.84l0,0c-1.03,2.04-1.45,4.37-1.44,4.4
				l-1.19,3.05C184.97,171.79,185.17,172.45,185.7,172.72z"/>
			<path class="st14" d="M72.71,236.03c-0.5,0.46-1.27,0.39-1.67-0.14c0,0-1.13-1.5-1.88-2.48c-0.31-0.41-0.98-0.22-1.01,0.29
				c-0.05,0.75,0.22,1.51,0.51,2.09c0.02,0.03,4.31,7.01,4.31,7.01c0.08,0.13,0.13,0.27,0.15,0.42c0.07,0.44-0.13,0.89-0.53,1.14
				c-0.6,0.21-1.36-0.06-1.69-0.6l-2.99-4.87c-0.13-0.22-0.4-0.31-0.64-0.23l-0.16,0.06c-0.28,0.1-0.43,0.4-0.35,0.68l1.94,6.9
				c0.16,0.57-0.1,1.2-0.65,1.42c-0.63,0.25-1.33-0.11-1.51-0.75l-1.89-6.71c-0.1-0.35-0.44-0.58-0.8-0.53
				c-0.46,0.05-0.79,0.47-0.73,0.93l0.73,6.18c0.07,0.59-0.29,1.17-0.87,1.3c-0.66,0.15-1.29-0.31-1.37-0.97l-0.76-6.42
				c-0.05-0.43-0.24-0.83-0.53-1.14c-0.35-0.37-0.97-0.16-1.02,0.35l-0.29,2.9c-0.06,0.59-0.53,1.08-1.13,1.08
				c-0.68,0-1.2-0.58-1.13-1.24l0.49-6.33c0.01-1.57,0.1-2.98,0.22-4.22c0.12-1.24,0.28-2.31,0.44-3.21l0.45-7.7l10.58,0.52
				l-0.71,6.27l0,0c1.55,1.68,2.59,3.8,2.59,3.83l1.98,2.61C73.16,234.94,73.15,235.62,72.71,236.03z"/>
			<path class="st16" d="M112.18,125.07c-0.24-0.69-0.75-2.95-0.6-9.51h-9.35h-9.35c0.15,6.57-0.36,8.82-0.6,9.51
				c-0.22,0.07-8.88,3.12-8.88,3.12l18.83,7.47l18.83-7.47C121.06,128.19,112.4,125.14,112.18,125.07z"/>
			<g>
				<path class="st14" d="M124.22,94.84c-0.56,1.73-4.58,5.72-6.07,2.93l0.97-9.19c0.01,0,0.01-0.01,0.02-0.01
					c0.92-0.46,2.11-0.78,3.14-0.49c0.15,0.05,0.31,0.1,0.45,0.18C124.96,89.38,124.87,92.81,124.22,94.84z"/>
				<path class="st14" d="M86.16,88.38c-1.06-0.54-2.49-0.89-3.61-0.33c-2.24,1.13-2.15,4.56-1.5,6.58
					c0.55,1.73,4.58,5.72,6.07,2.93"/>
			</g>
			<g>
				<path class="st17" d="M127.11,184.74c-0.02,4.86,0.03,19.08,1.53,25.15c1.82,7.37,2.44,12.32-4.92,11.37
					c-7.36-0.93-40.06-0.05-42.23,0c-0.8,0.01-1.52-0.07-2.17-0.28c-1.12-0.34-2.02-0.99-2.7-1.9c-1.59-2.1-1.97-5.54-0.96-9.63
					c1.49-6.07,1.55-20.28,1.52-25.15c0.59-39.17,0.59-39.17-6.18-49.14c-1.07-1.58,3.03-2.95,5.08-4.1
					c2.05-1.15,4.23-2.06,5.84-2.68l8.48-3.47c0,0-0.24,5.64,11.75,5.73h0.31c4.3,0,7.01-0.64,8.72-1.46
					c2.79-1.67,2.7-3.83,2.7-3.83l3.49,1.42l2.86,1.18l2.14,0.87c3.2,1.2,13.01,3.58,10.92,6.78
					C127.52,144.39,127.52,144.39,127.11,184.74z"/>
				<path class="st17" d="M90.22,125.44l0,0.26C90.21,125.54,90.22,125.44,90.22,125.44z"/>
			</g>
			<g>
				<pattern  id="SVGID_3_" xlink:href="#Motivo_nuevo_2" patternTransform="matrix(1 0 0 1 -382 -47.982)">
				</pattern>
				<path class="st18" d="M168.39,136.42c-0.28-0.01-0.43-0.02-0.43-0.02l-17.74,3.45c0,0-31.81,11.89-36.96,5.97
					c-5.09-5.86-2.1-12.43,3.59-15.99c9.33-5.82,45.12-10.95,51.5-11.22c0.01,0,0.01,0,0.02,0L168.39,136.42z"/>
				<g>
					<pattern  id="SVGID_4_" xlink:href="#Motivo_nuevo_2" patternTransform="matrix(1 0 0 1 -382 -47.982)">
					</pattern>
					<path class="st19" d="M199.65,157.31c1.11,2.51-9.02,10.82-12.05,9.71c-2.84-1.04-22.39-29.01-24.81-32.47l14.18-10.77
						C181.06,128.74,198.55,154.81,199.65,157.31z"/>
					<pattern  id="SVGID_5_" xlink:href="#Motivo_nuevo_2" patternTransform="matrix(1 0 0 1 -382 -47.982)">
					</pattern>
					<path class="st20" d="M177.27,124.29c3.2,4.55,2.55,10.51-1.43,13.31c-3.99,2.8-9.81,1.38-13.01-3.17
						c-3.2-4.55-2.55-10.51,1.43-13.31C168.25,118.32,174.07,119.74,177.27,124.29z"/>
				</g>
			</g>
			<g>
				<pattern  id="SVGID_6_" xlink:href="#Motivo_nuevo_2" patternTransform="matrix(1 0 0 1 -382 -47.982)">
				</pattern>
				<path class="st21" d="M71.97,186.23c0-0.28,0-0.43,0-0.43l4.09-17.61c0,0,13.02-31.37,7.29-36.72
					c-5.67-5.3-12.35-2.55-16.11,3.01c-6.16,9.11-12.56,44.7-13.06,51.06c0,0.01,0,0.01,0,0.02L71.97,186.23z"/>
				<g>
					<pattern  id="SVGID_7_" xlink:href="#Motivo_nuevo_2" patternTransform="matrix(1 0 0 1 -382 -47.982)">
					</pattern>
					<path class="st22" d="M54.9,225.53c0.54,2.69,13.59,3.67,15.44,1.02c1.73-2.49,1.65-36.61,1.64-40.83l-17.79-0.66
						C53.69,191.45,54.36,222.84,54.9,225.53z"/>
					<pattern  id="SVGID_8_" xlink:href="#Motivo_nuevo_2" patternTransform="matrix(1 0 0 1 -382 -47.982)">
					</pattern>
					<ellipse class="st23" cx="63.06" cy="185.64" rx="8.82" ry="10.07"/>
				</g>
			</g>
			<pattern  id="SVGID_9_" xlink:href="#Motivo_nuevo_2" patternTransform="matrix(1 0 0 1 -382 -47.982)">
			</pattern>
			<path class="st24" d="M133.72,131.36c-1.09-0.99-5.8-5.08-17.26-7.24l-4.74,22.68v82.27l17.22-0.63l0.37-0.01
				c0.59-0.02,1.05-0.59,1.02-1.25l-1.83-53.04C128.5,174.13,137.14,134.45,133.72,131.36z"/>
			<pattern  id="SVGID_10_" xlink:href="#Motivo_nuevo_2" patternTransform="matrix(1 0 0 1 -382 -47.982)">
			</pattern>
			<path class="st25" d="M70.51,131.36c1.09-0.99,5.8-5.08,17.26-7.24l4.74,22.68v82.27l-17.22-0.63l-0.37-0.01
				c-0.59-0.02-1.05-0.59-1.02-1.25l1.83-53.04C75.74,174.13,67.1,134.45,70.51,131.36z"/>
			<polygon class="st11" points="116.75,120.41 123.31,122.97 126.16,130.25 121.03,131.24 123.03,140.66 111.62,157.48 
				111.62,144.08 			"/>
			<polygon class="st11" points="87.38,120.41 80.82,122.97 77.97,130.25 83.1,131.24 81.1,140.66 92.51,157.48 92.51,144.08 			"/>
			<path class="st14" d="M87.66,84.18c-1.71,2.57-1.9,6.22-1.69,9.4c0.29,4.42,0.71,10.54,0.98,12.45
				c0.43,3.09,3.62,12.58,16.21,12.26c9.06-0.43,14.82-3.09,15.78-15.99c0.37-4.92,0.71-10.72-0.18-15.55
				c-0.51-2.73-2.06-4.89-2.62-7.05c-1.06-4.04-1.99-6.72-1.99-6.72l-10.45-1.07l-9.06,0.11l-5.97,0.64l-1.17,3.73L87.66,84.18z"/>
			<g>
				<path class="st10" d="M86.88,77.83c-0.88,2.04-1.43,4.94,1.1,6.23c2.43,1.18,4.19-0.32,5.96-1.72c0.44,2.79,0.55,5.16,4.08,5.26
					c2.65,0,5.07-1.5,5.18-4.19c-0.44,4.51,6.4,4.62,6.73,0.11c0.88,2.69,3.2,4.73,6.4,3.87c2.65-0.64,2.87-3.01,1.87-5.05
					c2.98-0.54,6.18-0.21,5.41-4.3c-0.66-3.44-2.76-3.87-5.74-4.62c1.43-2.36,1.87-5.16-0.99-6.77c-1.77-0.97-4.74-0.64-5.85,1.07
					c-0.22-2.58-1.65-4.94-4.52-5.37c-2.32-0.54-4.85,0.97-4.74,3.44c-1.77-2.15-3.53-4.08-6.62-3.33
					c-2.76,0.75-2.87,2.79-2.98,5.16c-4.52-3.65-8.49,2.04-4.3,5.8c-1.88-0.64-4.74-1.29-5.29,1.29c-0.44,2.58,2.21,3.12,4.19,3.12"
					/>
			</g>
			<g>
				<path class="st26" d="M99.21,90.59c-0.62,0.07-1.27,0.11-1.9,0.17c-0.63,0.06-1.27,0.11-1.89,0.17
					c-0.62,0.07-1.24,0.15-1.85,0.23c-0.61,0.1-1.2,0.21-1.8,0.33l-0.04,0.01c-0.42,0.09-0.83-0.18-0.91-0.6
					c-0.07-0.34,0.1-0.68,0.39-0.84c0.63-0.34,1.31-0.57,1.99-0.74c0.68-0.16,1.36-0.26,2.05-0.32c0.68-0.05,1.36-0.06,2.04-0.02
					c0.68,0.04,1.34,0.11,2.03,0.26c0.37,0.08,0.6,0.45,0.51,0.81c-0.07,0.29-0.31,0.5-0.59,0.53L99.21,90.59z"/>
				<path class="st26" d="M106.79,89.25c0.69-0.15,1.35-0.23,2.03-0.26c0.68-0.04,1.36-0.02,2.04,0.02
					c0.68,0.06,1.37,0.15,2.05,0.32c0.68,0.17,1.35,0.4,1.99,0.74c0.38,0.2,0.52,0.67,0.31,1.05c-0.17,0.31-0.51,0.46-0.84,0.39
					l-0.04-0.01c-0.59-0.12-1.19-0.24-1.8-0.33c-0.61-0.09-1.23-0.17-1.85-0.23c-0.63-0.07-1.26-0.12-1.89-0.17
					c-0.63-0.05-1.28-0.1-1.9-0.17l-0.03,0c-0.37-0.04-0.64-0.37-0.6-0.75C106.3,89.54,106.52,89.31,106.79,89.25z"/>
				<path class="st26" d="M96.26,95.86c0,0.96-0.59,1.73-1.32,1.73c-0.73,0-1.32-0.78-1.32-1.73c0-0.96,0.59-1.73,1.32-1.73
					C95.67,94.12,96.26,94.9,96.26,95.86z"/>
				<path class="st26" d="M112.05,95.86c0,0.96-0.59,1.73-1.32,1.73s-1.32-0.78-1.32-1.73c0-0.96,0.59-1.73,1.32-1.73
					S112.05,94.9,112.05,95.86z"/>
			</g>
			<path class="st27" d="M101.58,104.99c-0.23,0-0.41-0.18-0.41-0.41c0-0.23,0.18-0.41,0.41-0.41l1.86-0.01
				c1.11-0.01,2.01-1.17,2-2.58l0-0.21c0-0.52-0.33-0.96-0.7-0.96c0,0-0.01,0-0.01,0c-0.63,0-1.22-0.3-1.66-0.83
				c-0.42-0.52-0.66-1.2-0.66-1.92v-3.01c0-0.23,0.18-0.41,0.41-0.41c0.23,0,0.41,0.18,0.41,0.41v3.01c0,0.53,0.17,1.03,0.48,1.4
				c0.28,0.34,0.65,0.53,1.03,0.53c0,0,0.01,0,0.01,0c0.84,0,1.52,0.79,1.53,1.77l0,0.21c0.01,1.87-1.25,3.4-2.82,3.41
				L101.58,104.99C101.59,104.99,101.59,104.99,101.58,104.99z"/>
			<g>
				<g>
					<g>
						<path class="st28" d="M98.81,107c0,0,2.98,1.04,5.89,1.08c2.91,0.04,1.32,5.14-3.08,5.32C97.22,113.57,96.42,106.81,98.81,107
							z"/>
					</g>
				</g>
			</g>
			<g>
				<polygon class="st15" points="129.36,295.24 106.24,295.24 102.56,255.15 128.87,254.45 				"/>
				<g>
					<path class="st15" d="M129.96,346.01c-0.01,0.78-0.84,1.4-1.85,1.4l-15.37,0.03c-0.99,0-1.81-0.6-1.85-1.36l-4.66-50.83h23.12
						L129.96,346.01z"/>
					<ellipse class="st15" cx="117.75" cy="295.24" rx="11.55" ry="11.12"/>
				</g>
			</g>
			<g>
				<polygon class="st15" points="74.93,295.24 98.05,295.24 101.73,255.15 75.42,254.45 				"/>
				<g>
					<path class="st15" d="M74.33,346.01c0.01,0.78,0.84,1.4,1.85,1.4l15.37,0.03c0.99,0,1.81-0.6,1.85-1.36l4.66-50.83H74.93
						L74.33,346.01z"/>
					<ellipse class="st15" cx="86.54" cy="295.24" rx="11.55" ry="11.12"/>
				</g>
			</g>
			<g>
				<g>
					<path class="st29" d="M81.36,274.02c1.9,0.01,3.8,0.03,5.7,0.04c-1.91-2.51-3.83-5.02-5.74-7.54c0.45-1.3,1.26-2.07,2.54-2.52
						c-2.93,1.04-5.2,4.11-4.16,7.32c0.93,2.89,4.18,5.27,7.32,4.16c2.89-1.03,4.78-2.88,5.78-5.8c1.28-3.72-2.08-7.51-5.74-7.54
						c-1.9-0.01-3.8-0.03-5.7-0.04c-3.11-0.02-6.1,2.75-5.95,5.95C75.55,271.31,78.02,274,81.36,274.02L81.36,274.02z"/>
				</g>
			</g>
			<g>
				<g>
					<path class="st29" d="M80.54,278.91c1.22,0,2.44,0,3.66,0c1.53,0,3.13-0.66,4.21-1.74c1.03-1.03,1.81-2.73,1.74-4.21
						c-0.14-3.23-2.62-5.95-5.95-5.95c-1.22,0-2.44,0-3.66,0c-1.53,0-3.13,0.66-4.21,1.74c-1.03,1.03-1.81,2.73-1.74,4.21
						C74.73,276.18,77.2,278.91,80.54,278.91L80.54,278.91z"/>
				</g>
			</g>
			<g>
				<g>
					<path class="st29" d="M79.39,282.28c3.44,1.03,7.12,1.44,10.7,1.05c3.09-0.34,6.11-2.5,5.95-5.95
						c-0.14-3.12-2.62-6.09-5.95-5.95c-0.41,0.03-0.82,0.03-1.23,0.01c-0.74-0.05-0.82-0.06-0.24-0.03c-0.4-0.09-0.79-0.2-1.18-0.33
						c0.47,0.23,0.38,0.18-0.26-0.14c0.4,3.12,0.8,6.23,1.2,9.35c-0.45,0.32-0.37,0.3,0.23-0.06c-0.22,0.19-0.47,0.27-0.76,0.24
						c2.43-0.24,4.45-1.3,5.44-3.66c0.9-2.12,0.52-4.87-1.23-6.5c-2.4-2.24-5.3-2.99-8.5-2.26c2.24,2.92,4.48,5.83,6.72,8.75
						c-1.29,0.99-1.59,1.29-0.92,0.91c0.23-0.12,0.46-0.24,0.69-0.36c0.58-0.34,1.14-0.76,1.64-1.21c1.44-1.27,2.4-3.25,2.4-5.18
						c-0.02-3.64-3.04-7.4-6.96-7.01c-3.09,0.3-6.11,2.52-5.95,5.95c0.13,2.97,2.63,6.28,5.95,5.95c0.12-0.01,0.24-0.02,0.37-0.04
						c-1-0.27-2-0.54-3-0.81c0.11,0.06,0.21,0.12,0.32,0.18c-0.71-0.71-1.42-1.42-2.14-2.14c-0.17-0.63-0.34-1.26-0.51-1.88
						c0.27-1,0.54-2,0.81-3c1.29-1.09,1.49-1.37,0.61-0.86c-0.32,0.15-0.61,0.33-0.89,0.54c-1.13,0.76-2.1,1.7-2.69,2.95
						c-2.23,4.69,1.43,9.95,6.72,8.75c-1.17,0.24-2.19-0.03-3.08-0.8c1.4-3.39,2.81-6.78,4.21-10.16c-3.13,0.31-5.5,1.27-7.88,3.31
						c-2.82,2.42-2.04,7.69,1.2,9.35c2.8,1.43,5.75,2.24,8.92,2.11c0-3.97,0-7.94,0-11.91c-3.15,0.34-4.74,0.21-7.53-0.62
						c-2.98-0.89-6.62,1.07-7.32,4.16C74.5,278.16,76.2,281.32,79.39,282.28L79.39,282.28z"/>
				</g>
			</g>
			<g>
				<g>
					<path class="st29" d="M118.78,305c-0.11,0-0.21,0-0.32,0.01c-0.88-0.51-1.75-1.02-2.63-1.53c-0.03-0.08-0.06-0.15-0.1-0.23
						c1.19-2.92,2.37-5.83,3.56-8.75c-1.81,0.64-3.63,1.29-5.44,1.93c-2.25,0.8-3.97,2.48-4.26,4.95c-0.25,2.12,0.67,5,2.84,5.93
						c2.88,1.23,5.53,1.77,8.6,0.8c-1.93-3.32-3.86-6.63-5.79-9.95c-1.19,0.98-2.39,1.96-3.58,2.94c-3.57,2.94-1.36,8.82,2.63,9.95
						c2.56,0.72,5.2,1.03,7.85,0.79c-1.71-2.99-3.43-5.97-5.14-8.96c-0.51,1.2,0.73-0.37,0.86-0.61c0.17-0.33,0.68-0.09-0.11,0.04
						c-0.83,0.13-1.74,0.49-2.52,0.78c-2.39,0.87-4.51,2.24-5.73,4.55c-2.11,3.98,0.5,8.9,5.14,8.96c1.56,0.02,3.11,0.08,4.65,0.32
						c-1.19-2.92-2.37-5.83-3.56-8.75c0.43-0.34,0.51-0.45,0.23-0.34c-7.26,2.35-4.15,13.85,3.17,11.48
						c3.03-0.98,5.01-2.59,6.89-5.13c2.14-2.9,0.01-8.17-3.56-8.75c-2.6-0.42-5.18-0.72-7.82-0.75c1.71,2.99,3.43,5.97,5.14,8.96
						c-0.32,0.6-1.66,0.84-0.56,0.64c0.84-0.15,1.71-0.49,2.51-0.78c2.29-0.85,4.57-2.26,5.57-4.61c1.56-3.68-0.12-9.42-5.14-8.96
						c-1.69,0.16-3.07,0.09-4.69-0.36c0.88,3.32,1.75,6.63,2.63,9.95c1.19-0.98,2.39-1.96,3.58-2.94c4.65-3.83-0.35-11.67-5.79-9.95
						c-0.11,0.29,0.08,0.42,0.57,0.4c-0.47,3.63-0.95,7.25-1.42,10.88c1.81-0.64,3.63-1.29,5.44-1.93c3.58-1.27,5.61-5.23,3.56-8.75
						c-1.56-2.66-4.14-4.16-7.24-4.14C111.12,293.16,111.1,305.06,118.78,305L118.78,305z"/>
				</g>
			</g>
		</g>
		<g class="st7">
			<path class="st30" d="M184.48,113.58c-0.83-6.09-0.66-23.46-3.16-31.93c-2.89-9.76-8.24-11.6-13.07-10.84
				c-1.22-0.55-2.61-0.73-3.98-0.73c-5.96,0-16.65,4.52-20.12,11.5c-8.65,17.41-1.06,39.68-6.34,59.11
				c-4.8,17.66-5.5,38.96,6.88,56.54c10.35,14.7,18.52,19.39,31.79,11.67c13.12-7.63,11.64-26.08,11.78-45.82
				C188.38,144.99,186.72,130.03,184.48,113.58z"/>
			<g>
				<path class="st31" d="M191.31,343.52h-8.65c-1.87,0-5.73-3.31-5.73-3.31s-1.12,2.24-2.12,3.24c-1,1-0.75-9.56-0.75-9.56
					l5.01-0.2l10.78,6.4l2.06,1.22c0.29,0.17,0.5,0.46,0.56,0.8C192.61,342.84,192.05,343.52,191.31,343.52z"/>
				<path class="st32" d="M189.85,340.09c-11.82,3.87-15.8-6.2-15.8-6.2l5.01-0.2L189.85,340.09z"/>
			</g>
			<g>
				<path class="st31" d="M139.72,343.52h8.65c1.87,0,5.73-3.31,5.73-3.31s1.12,2.24,2.12,3.24c1,1,0.75-9.56,0.75-9.56l-5.01-0.2
					l-10.78,6.4l-2.06,1.22c-0.29,0.17-0.5,0.46-0.56,0.8C138.41,342.84,138.97,343.52,139.72,343.52z"/>
				<path class="st32" d="M141.17,340.09c11.82,3.87,15.8-6.2,15.8-6.2l-5.01-0.2L141.17,340.09z"/>
			</g>
			<g>
				<path class="st33" d="M165.7,133.95c-2.11,0-5.4-0.64-5.4-2.75l0.54-7.03l0.47-6.15c0-2.11,1.71-3.82,3.82-3.82
					c1.05,0,2.01,0.43,2.7,1.12c0.69,0.69,1.12,1.64,1.12,2.7l0.47,6.16l0.45,5.91C170.48,133.65,165.7,133.95,165.7,133.95z"/>
			</g>
			<path class="st34" d="M191.19,220.64c0.04-0.69,0.08-1.39,0.12-2.09c0-0.06,0.01-0.12,0.01-0.18c0.03-0.69,0.06-1.38,0.09-2.09
				c0-0.06,0-0.12,0.01-0.17c0.03-0.72,0.05-1.44,0.06-2.16c0-0.01,0-0.01,0-0.02c0.01-0.72,0.02-1.45,0.03-2.18
				c0-0.05,0-0.11,0-0.16c0-0.7,0-1.4-0.01-2.1c0-0.11,0-0.22,0-0.33c-0.01-0.69-0.02-1.38-0.04-2.07c0-0.12-0.01-0.24-0.01-0.36
				c-0.02-0.7-0.05-1.4-0.08-2.11c0-0.09-0.01-0.19-0.01-0.28c-0.04-0.74-0.08-1.49-0.12-2.24c-0.06-0.89-0.13-1.7-0.23-2.43
				c0-0.01,0-0.03-0.01-0.04c-3.01-23.11-23.99,16.96-23.99,16.96s0.28,32.4,0.9,39.15c0.62,6.75,4.75,49.32,5.29,78.37l7.78,1.89
				c0,0,1.24-4.77,3.11-20.66c1.87-15.89,12.44-26.62,0.93-59.6c0,0,4.87-14.84,6.18-35.05
				C191.19,220.67,191.19,220.65,191.19,220.64z"/>
			<path class="st34" d="M139.86,220.64c-0.04-0.69-0.08-1.39-0.12-2.09c0-0.06-0.01-0.12-0.01-0.18c-0.03-0.69-0.06-1.38-0.09-2.09
				c0-0.06,0-0.12-0.01-0.17c-0.03-0.72-0.05-1.44-0.06-2.16c0-0.01,0-0.01,0-0.02c-0.01-0.72-0.02-1.45-0.03-2.18
				c0-0.05,0-0.11,0-0.16c0-0.7,0-1.4,0.01-2.1c0-0.11,0-0.22,0-0.33c0.01-0.69,0.02-1.38,0.04-2.07c0-0.12,0.01-0.24,0.01-0.36
				c0.02-0.7,0.05-1.4,0.08-2.11c0-0.09,0.01-0.19,0.01-0.28c0.04-0.74,0.08-1.49,0.12-2.24c0.06-0.89,0.13-1.7,0.23-2.43
				c0-0.01,0-0.03,0.01-0.04c3.01-23.11,23.99,16.96,23.99,16.96s-0.28,32.4-0.9,39.15c-0.62,6.75-4.75,49.32-5.29,78.37l-7.78,1.89
				c0,0-1.24-4.77-3.11-20.66c-1.87-15.89-12.44-26.62-0.93-59.6c0,0-4.87-14.84-6.18-35.05
				C139.86,220.67,139.86,220.65,139.86,220.64z"/>
			<path class="st34" d="M179.53,175.44l-10.36,2.39c-2.39,0.55-4.89,0.55-7.28,0l-10.36-2.39l-10.07,18.99l22.58,22.43h2.99
				l22.58-22.43L179.53,175.44z"/>
			<path class="st35" d="M172.38,134.29h-14.79v-11.56l2.43,0.43c3.37,0.6,6.82,0.59,10.19-0.03l2.17-0.4V134.29z"/>
			<path class="st32" d="M173.68,85.56c-1.98-2.36-3.81-5.16-5.31-8.19c-5.14,7.51-12.66,15.04-20.36,17.76
				c-0.25,2.02-0.36,4.1-0.36,6.16c0,12.04,8.79,20.03,18.55,19.82c9.17-0.2,14.67-7.78,14.67-19.82c0-3.5-0.35-7.03-1.14-10.28
				C177.5,89.49,175.45,87.67,173.68,85.56z"/>
			<g>
				<path class="st36" d="M155.86,201.65c0,0,4.08-3.12,5.13-2.03c1.05,1.09-2.02,3.89-2.02,3.89L155.86,201.65z"/>
				<path class="st32" d="M168.4,205.52c-0.41,1.09-7.58-2.56-7.58-2.56l-1.65,1.51l2.86,1.81l2.4,4.3c0,0-0.56,0.77-1.31,1.68
					c-0.09,0.11-0.19,0.23-0.29,0.34c-0.45,0.54-0.95,1.09-1.42,1.53c-0.04,0.04-0.09,0.09-0.13,0.13c-0.24,0.22-0.47,0.4-0.68,0.54
					c-0.23,0.15-0.44,0.25-0.61,0.25l-2.55-2.86c0,0-5.29,0.24-6.01-0.12c-0.29-0.14-1.01-1.34-1.79-2.72
					c-0.37-0.67-0.75-1.37-1.1-2.03l1.6-1.75l3.62-3.96c0.51-0.13,1.18-0.29,1.93-0.44v0c0.37-0.07,0.76-0.15,1.16-0.21
					c1.45-0.24,3.03-0.39,4.27-0.24c0.53,0.06,0.99,0.18,1.35,0.37C164.98,202.4,168.81,204.43,168.4,205.52z"/>
				<g>
					<g>
						<path class="st37" d="M161.4,214.13c-0.04,0.04-0.09,0.09-0.13,0.13c-0.09-0.13-0.21-0.31-0.35-0.52
							c-0.32-0.47-0.77-1.11-1.26-1.78c-0.5-0.67-0.99-1.24-1.41-1.63c-0.11-0.1-0.2-0.18-0.29-0.26c-0.09-0.07-0.17-0.13-0.24-0.18
							c-0.13-0.1-0.21-0.16-0.21-0.16s0.09,0.02,0.27,0.06c0.08,0.02,0.19,0.05,0.31,0.09c0.12,0.05,0.25,0.1,0.39,0.17
							c0.57,0.26,1.29,0.78,1.84,1.52c0.54,0.74,0.83,1.5,0.97,2.05C161.35,213.81,161.38,213.99,161.4,214.13z"/>
					</g>
					<g>
						<path class="st37" d="M163.11,212.26c-0.09,0.11-0.19,0.23-0.29,0.34c-0.02-0.03-0.04-0.05-0.06-0.08
							c-0.32-0.47-0.77-1.11-1.26-1.78c-0.5-0.67-0.99-1.25-1.41-1.64c-0.11-0.1-0.2-0.19-0.29-0.26c-0.09-0.07-0.17-0.13-0.24-0.18
							c-0.13-0.1-0.21-0.16-0.21-0.16s0.09,0.02,0.26,0.06c0.08,0.02,0.19,0.05,0.31,0.09c0.12,0.04,0.25,0.1,0.39,0.16
							c0.57,0.26,1.3,0.79,1.84,1.52C162.68,211.01,162.96,211.72,163.11,212.26z"/>
					</g>
					<path class="st36" d="M160.59,214.8c-0.23,0.15-0.44,0.25-0.61,0.25l-2.55-2.86c0,0-5.29,0.24-6.01-0.12
						c-0.29-0.14-1.01-1.34-1.79-2.72c-0.37-0.67-0.75-1.37-1.1-2.03l1.6-1.75c0.3,0.62,0.61,1.26,0.93,1.86
						c0.89,1.66,1.81,3.04,2.48,3.18c1.77,0.36,4.67,0.73,4.67,0.73L160.59,214.8z"/>
				</g>
				<path class="st35" d="M155.22,200.24l-1.81,2.12l-4.76,5.56l-0.97,1.13c0,0-26.67-18.5-27.39-23.24
					c-0.72-4.74,18.47-46.48,19.91-48.16c1.44-1.68,5.81-5.24,5.81-5.24l7.19,16.47l-3.85,8.24v0l-12.12,25.92L155.22,200.24z"/>
				<path class="st32" d="M220.05,86.92c1.12-0.34,2.55,7.59,2.55,7.59l2.2,0.4l-0.29-3.37l1.97-4.51c0,0,0.96-0.02,2.13,0.03
					c0.15,0.01,0.3,0.01,0.45,0.02c0.7,0.04,1.44,0.1,2.08,0.21c0.06,0.01,0.12,0.02,0.18,0.03c0.32,0.06,0.61,0.13,0.84,0.21
					c0.26,0.09,0.46,0.2,0.57,0.33L232,91.62c0,0,3.39,4.06,3.54,4.85c0.06,0.31-0.45,1.62-1.08,3.07c-0.31,0.7-0.64,1.43-0.95,2.11
					l-2.36-0.22l-5.34-0.49c-0.41-0.32-0.94-0.77-1.52-1.28l0,0c-0.28-0.25-0.58-0.52-0.87-0.8c-1.07-1.01-2.15-2.18-2.77-3.25
					c-0.27-0.46-0.45-0.9-0.52-1.3C219.64,91.53,218.94,87.25,220.05,86.92z"/>
				<g>
					<g>
						<path class="st37" d="M229.63,87.72c0.06,0,0.13,0,0.19,0c-0.02,0.16-0.06,0.36-0.1,0.61c-0.09,0.56-0.2,1.33-0.31,2.16
							c-0.1,0.83-0.14,1.59-0.1,2.16c0.01,0.14,0.02,0.27,0.03,0.39c0.02,0.11,0.03,0.21,0.05,0.3c0.02,0.17,0.04,0.26,0.04,0.26
							s-0.06-0.08-0.15-0.23c-0.05-0.07-0.11-0.17-0.17-0.28c-0.05-0.11-0.11-0.24-0.17-0.39c-0.24-0.58-0.4-1.46-0.29-2.37
							c0.11-0.91,0.43-1.65,0.71-2.15C229.45,87.99,229.55,87.84,229.63,87.72z"/>
					</g>
					<g>
						<path class="st37" d="M227.1,87.9c0.15-0.02,0.29-0.04,0.44-0.05c0,0.03-0.01,0.07-0.01,0.1c-0.09,0.56-0.2,1.33-0.3,2.16
							c-0.1,0.83-0.14,1.59-0.1,2.16c0.01,0.14,0.02,0.27,0.03,0.39c0.02,0.12,0.04,0.22,0.05,0.3c0.02,0.17,0.04,0.26,0.04,0.26
							s-0.05-0.08-0.15-0.23c-0.05-0.07-0.1-0.17-0.17-0.28c-0.05-0.11-0.11-0.24-0.17-0.39c-0.24-0.59-0.4-1.46-0.29-2.37
							C226.55,89.1,226.83,88.4,227.1,87.9z"/>
					</g>
					<path class="st36" d="M232.74,87.68c0.26,0.09,0.47,0.19,0.58,0.32l-0.66,3.78c0,0,3.48,3.99,3.64,4.78
						c0.07,0.31-0.42,1.63-1.02,3.09c-0.29,0.7-0.61,1.45-0.91,2.13l-2.36-0.16c0.31-0.62,0.61-1.26,0.87-1.88
						c0.75-1.73,1.25-3.31,0.95-3.92c-0.82-1.61-2.33-4.11-2.33-4.11L232.74,87.68z"/>
				</g>
				<path class="st35" d="M223.81,99.6l2.78,0.16l7.31,0.43l1.49,0.09c0,0,1.39,32.43-1.95,35.87c-3.34,3.44-48.19,13.39-50.4,13.26
					c-2.21-0.13-7.69-1.46-7.69-1.46l8.77-15.69l8.89-1.91l0,0l27.97-6.01L223.81,99.6z"/>
			</g>
			<path class="st35" d="M146.22,132.41l3.84,23.84l0.36,19.5c0,0,11.98,7.04,30.05,0.19c0,0-2.84-11.95-1.72-15.9l6.24-27.37
				l-12.87-5.04l-0.1,0.2c-2.91,5.79-11.79,5.63-14.45-0.27h0l-8.52,3.64"/>
			<circle class="st38" cx="157.86" cy="98.87" r="2.15"/>
			<circle class="st38" cx="175.07" cy="98.87" r="2.15"/>
			<g>
				<path class="st39" d="M171.28,112.64l-9.25-0.13c0,0,2.12,3.47,5.46,3.2C171.89,115.36,171.28,112.64,171.28,112.64z"/>
				<path class="st40" d="M169.07,115.43c-1.22-1.19-3-1.98-5.33-1.98c-0.33,0-0.62,0.05-0.93,0.08c-0.51-0.56-0.79-1.02-0.79-1.02
					l9.25,0.13C171.28,112.64,171.72,114.63,169.07,115.43z"/>
			</g>
			<g>
				<path class="st31" d="M166.78,95.83c0.36,1.37,0.59,2.78,1.1,4.09c0.48,1.31,1.3,2.49,2.38,3.35c0.53,0.42,1.18,0.94,1.43,1.69
					c0.15,0.36,0.16,0.8,0.04,1.2c-0.11,0.41-0.43,0.71-0.73,0.95c-0.66,0.42-1.4,0.59-2.12,0.64c-0.36,0.05-0.72,0.02-1.08,0.02
					l-1.07-0.1c-0.01,0-0.02-0.01-0.02-0.03c0-0.01,0.01-0.02,0.02-0.02c0.71-0.04,1.41-0.09,2.1-0.22c0.68-0.11,1.36-0.31,1.87-0.7
					c0.51-0.38,0.72-0.99,0.51-1.59c-0.19-0.62-0.67-1.07-1.22-1.54c-1.1-0.95-1.91-2.21-2.36-3.57c-0.46-1.36-0.62-2.78-0.91-4.16
					c0-0.01,0.01-0.03,0.02-0.03C166.76,95.8,166.78,95.81,166.78,95.83z"/>
			</g>
			<path class="st41" d="M176.52,90.09c-3.73,0-6.81,2.76-7.34,6.35c-1.29-0.57-2.69-0.25-3.57,0.08c-0.47-4.04-3.91-7.19-8.07-7.19
				c-3.46,0-6.41,2.17-7.58,5.22l-10.71-1.75l-0.2,1.23l10.55,1.72c-0.12,0.55-0.18,1.12-0.18,1.71c0,4.48,3.65,8.13,8.13,8.13
				c4.35,0,7.9-3.44,8.11-7.74c0.65-0.3,2.28-0.89,3.46-0.01c0.17,3.95,3.42,7.12,7.41,7.12c4.1,0,7.43-3.33,7.43-7.43
				C183.95,93.42,180.61,90.09,176.52,90.09z M157.53,104.34c-3.8,0-6.88-3.09-6.88-6.88c0-3.8,3.09-6.88,6.88-6.88
				c3.8,0,6.88,3.09,6.88,6.88C164.41,101.25,161.33,104.34,157.53,104.34z M176.52,103.7c-3.41,0-6.18-2.77-6.18-6.18
				c0-3.41,2.77-6.18,6.18-6.18s6.18,2.77,6.18,6.18C182.7,100.93,179.93,103.7,176.52,103.7z"/>
			<path class="st32" d="M149.26,96.35c0,0-6.03-8.24-7.78-0.33c-1.39,6.3,6.37,13.17,7.72,9.76
				C149.52,104.98,149.26,96.35,149.26,96.35z"/>
			<g>
				<g>
					<circle class="st35" cx="157.1" cy="151.23" r="9.95"/>
					<circle class="st35" cx="174" cy="151.23" r="9.95"/>
				</g>
				<path class="st42" d="M174,159.54c-3.57,0-6.69-1.88-8.45-4.7c-1.76,2.82-4.88,4.7-8.45,4.7c-5.22,0-9.5-4.02-9.91-9.13
					c-0.02,0.27-0.04,0.54-0.04,0.82c0,5.5,4.46,9.95,9.95,9.95c3.57,0,6.69-1.88,8.45-4.7c1.76,2.82,4.88,4.7,8.45,4.7
					c5.5,0,9.95-4.46,9.95-9.95c0-0.28-0.01-0.55-0.04-0.82C183.49,155.52,179.22,159.54,174,159.54z"/>
			</g>
		</g>
	</g>
</g>
</svg>
