<svg xmlns="http://www.w3.org/2000/svg" viewBox="0 0 1920 1080"><defs><style>.cls-1{fill:#534b5d;}.cls-2{fill:#2d2d2d;}.cls-3{fill:#29292c;}.cls-4{fill:#bf8d64;}.cls-5{fill:#ededed;}.cls-6{fill:#1a1a1a;}.cls-7{fill:#d69f6e;}.cls-8{fill:gray;}.cls-9{fill:#080305;}.cls-10{fill:#8c6239;opacity:0.72;}.cls-11,.cls-13,.cls-15,.cls-24{fill:none;stroke-miterlimit:10;}.cls-11{stroke:#000;}.cls-12{fill:#721a25;}.cls-13{stroke:#a67c52;}.cls-14{fill:#a3a2a7;}.cls-15{stroke:#bcbcbc;stroke-width:2px;}.cls-16{fill:#1d98de;}.cls-17{fill:#c45434;}.cls-18{fill:#1da9de;}.cls-19{fill:#ef5b2d;}.cls-20{fill:#c49f37;}.cls-21{fill:#f5ca40;}.cls-22{fill:#f2ead7;}.cls-23{fill:#c1c1c1;}.cls-24{stroke:#999;}</style></defs><title>Pastillas_1</title><g id="Capa_2" data-name="Capa 2"><g id="Capa_1-2" data-name="Capa 1"><rect class="cls-1" width="1920" height="1080"/><path class="cls-2" d="M881.05,800.26c-36.89-25.48-49.06-65-51.41-82-1.48-10.79-3.58-37.34-5.54-65-15.47,6.47-40.7-19.84-44.72-32.38-5.56-17.37-6.39-46.78,12.84-56.44,9.43-4.74,21.42-1.9,30.49,2.57,2.12-13.19,6.12-25.7,13.07-36.13l-.06-2.46a35.51,35.51,0,0,0,3.12,1.81c20.81,10.14,35.95-2.76,51.08-14.74,3.79,24,4.73,44.22,35,45.14,22.71,0,43.52-12.89,44.46-35.93-3.78,38.7,54.87,39.62,57.71.93,7.57,23,27.43,40.53,54.87,33.16,9.77-2.38,15.67-7.5,18.56-13.94.73,2.62,1.37,5.3,1.88,8,1.24,6.73,2.18,13.69,2.91,20.79l.49-4.69.19-.09c7.89-3.94,18.13-6.69,26.9-4.21a22.65,22.65,0,0,1,3.89,1.5c19.22,9.64,18.41,39.08,12.83,56.43-3.92,12.25-28.07,37.61-43.61,32.76-.58,10.58-1.31,21-2,30.9-5.26,70.73-27.36,105.56-62.9,122.45,0,1.72,0,3.41-.06,5.05,16.32,9.31,36.66,8.07,40.07-19.34,13.16,3,31.59,14.11,45.63,3,10.53-8.06,7.89-23.19,8.77-36.3,35.1,23.19,63.17-7.05,45.63-47.38,14.91-7.06,21.94,1,35.1-13.11,20.18-21.18,12.28-46.66,5.27-67.84,0,0,5.26,1.29,13.15-11.81,4.39-8.07,6.14-15.13,7.9-24.2,2.63-17.14,0-33.27-15.79-40.33,14-20.17,28.07-31.26,21.06-60.5-5.27-23.19-21.06-34.28-38.62-38.31,31.59-35.29,3.52-98.81-39.48-88.73,18.65-41.34-27.2-80.66-57-44.36-.88-45.27-60.55-55.45-79.85-17.14-9.65-21.17-31.59-34.28-52.65-25.21-16.67,8.07-20.18,21.18-21.93,38.32-8-20.17-22.82-32.27-44.76-23.19-11.94,5.49-15.93,19.27-17.88,33.08-6-50.24-89-33.53-70.74,24.39-18.7-20.17-47.3-28.05-74.58,1-12.36,13.17-10.53,37.31-5.27,54.45-22.81-1-50.89,4-55.28,36.3-2.63,21.17,7,36.29,24.57,43.35-57.91,3-59.67,90.75-2.63,91.75-17.55,11.1-31.59,22.19-29.83,48.4,2.63,30.25,21.06,33.27,42.11,34.28-28.95,47.39,3.51,85.7,49.14,70.58.88,17.14-2.63,32.26,13.16,42.35,16.68,11.09,44.75,8.06,60.55-2,2.63,16.13,6.14,26.22,21.06,30.25a34.3,34.3,0,0,0,13-.77c0-1.45-.06-2.92-.09-4.42Z"/><path class="cls-3" d="M1139.41,1015.51l-17.12-80.72,44-8.51-13.31-34-11.13-28.44-56.26-22h-44.23c1,25.2,3.55,35.89,5,40l14.47,5.07a18.69,18.69,0,0,0,.2-2.73l14.14,5.78-33.59,154.9v34.35h54.65Z"/><path class="cls-4" d="M860.63,887.1c3.74,13.3,21,41.83,99.76,42.47H963c36.9,0,60.14-5.47,74.83-12.53,18.36-11,22.17-24.47,23-30.13l-14.47-5.07c-1.44-4.11-4-14.8-5-40-.31-7.88-.46-17.18-.37-28.14,0-1.64,0-3.33.06-5.05-20.06,9.54-44.39,13.39-72.42,14.71-38.68,1-67-8.87-87.58-23.1h-.26c0,1.5.06,3,.09,4.42.27,15,.13,27.2-.26,37.16-1,25.2-3.55,35.89-5,40C875.12,882,869.08,884.13,860.63,887.1Z"/><path class="cls-5" d="M1041.57,1044.86,1075.16,890,1061,884.18a18.69,18.69,0,0,1-.2,2.73c-.78,5.66-4.59,19.13-23,30.13-14.69,7.06-37.93,12.53-74.83,12.53h-2.65c-78.8-.64-96-29.17-99.76-42.47a23.34,23.34,0,0,1-1-6.71L843.45,887l34.23,157.85v34.35h163.89Z"/><path class="cls-6" d="M1246.81,1071.87c-.32-4.59,2.2-14.79.61-18.79-.46-1.17-4.09-1.84-6.52-3.88a20.1,20.1,0,0,1-6.09-9.81c-2.64-9,1-17.54,4.67-25.62,3.9-8.52,16.44-1.11,12.57,7.35-4.16,9.11-4.89,11.87,2.89,18.82,2.47,2.21,4.39,2.49,6,5.78,3.5,7.34-.11,18.21.48,26.15.18,2.45.46,4.9.81,7.34h42.14c-14.62-50.51-30.43-93.54-46-116.67-12.59-18.64-29-33.56-47.27-42.15-12.73-8.32-31.52-18.54-58-28.1l13.31,34-44,8.51,17.12,80.72-43.19,63.7h151.37C1247.26,1076.77,1247,1074.32,1246.81,1071.87Z"/><path class="cls-6" d="M681.48,1028l-3.39-3.11c-3.33-3.07-2.6-9.34,1.47-11.44q11.3-5.81,22.28-12.16c-1.75-1-3.5-1.91-5.24-2.92-8.1-4.73-.76-17.31,7.35-12.58,5.42,3.16,10.91,6.08,16.56,8.81,5.1,2.47,4.36,9.92,0,12.58q-12.19,7.42-24.75,14.18l.52.49c2.15,2,3,6.39,1.14,8.82-11.18,14.48-17.14,31.17-21.45,48.5H823l-43.18-63.7L797,934.79l-44-8.51,13.15-33.6c-24.68,9-42.61,18.53-55.11,26.5-19.36,8.33-36.82,23.84-50,43.42-15.62,23.12-31.42,66.12-46,116.61H661C665.2,1061.11,671,1043.44,681.48,1028Z"/><path class="cls-3" d="M877.68,1068.19v-23.33L843.45,887l16.15-6.62a23.34,23.34,0,0,0,1,6.71c8.45-3,14.49-5.09,15-5.26,1.43-4.11,4-14.8,5-40h-47l-56.26,22-11.28,28.83L753,926.28l44,8.51-17.12,80.72,43.18,63.7h54.66Z"/><path class="cls-7" d="M1104,686.2c.74-9.94,1.47-20.32,2-30.9,15.54,4.85,39.69-20.51,43.61-32.76,5.58-17.35,6.39-46.79-12.83-56.43a22.65,22.65,0,0,0-3.89-1.5c-8.77-2.48-19,.27-26.9,4.21l-.19.09-.49,4.69c-.73-7.1-1.67-14.06-2.91-20.79-.51-2.75-1.15-5.43-1.88-8-2.89,6.44-8.79,11.56-18.56,13.94-27.44,7.37-47.3-10.13-54.87-33.16-2.84,38.69-61.49,37.77-57.71-.93-.94,23-21.75,35.93-44.46,35.93-30.27-.92-31.21-21.19-35-45.14-15.13,12-30.27,24.88-51.08,14.74a35.51,35.51,0,0,1-3.12-1.81l.06,2.46c-6.95,10.43-10.95,22.94-13.07,36.13-9.07-4.47-21.06-7.31-30.49-2.57-19.23,9.66-18.4,39.07-12.84,56.44,4,12.54,29.25,38.85,44.72,32.38,2,27.7,4.06,54.25,5.54,65,2.35,17,14.52,56.57,51.41,82,20.61,14.23,48.9,24.08,87.58,23.1,28-1.32,52.36-5.17,72.42-14.71C1076.59,791.76,1098.69,756.93,1104,686.2Z"/><path class="cls-8" d="M697.42,1030.71c1.88-2.43,1-6.85-1.14-8.82l-.52-.49q12.56-6.75,24.75-14.18c4.36-2.66,5.1-10.11,0-12.58-5.65-2.73-11.14-5.65-16.56-8.81-8.11-4.73-15.45,7.85-7.35,12.58,1.74,1,3.49,2,5.24,2.92q-11,6.33-22.28,12.16c-4.07,2.1-4.8,8.37-1.47,11.44l3.39,3.11c-10.51,15.4-16.28,33.07-20.51,51.17h15C680.28,1061.88,686.24,1045.19,697.42,1030.71Z"/><path class="cls-8" d="M1261.38,1071.87c-.59-7.94,3-18.81-.48-26.15-1.57-3.29-3.49-3.57-6-5.78-7.78-7-7-9.71-2.89-18.82,3.87-8.46-8.67-15.87-12.57-7.35-3.7,8.08-7.31,16.66-4.67,25.62a20.1,20.1,0,0,0,6.09,9.81c2.43,2,6.06,2.71,6.52,3.88,1.59,4-.93,14.2-.61,18.79.18,2.45.45,4.9.78,7.34h14.6C1261.84,1076.77,1261.56,1074.32,1261.38,1071.87Z"/><path class="cls-9" d="M916.5,602.28c-5.36.57-11,1-16.42,1.43s-10.92.91-16.31,1.48-10.71,1.26-16,2-10.36,1.82-15.49,2.88l-.33.06a6.67,6.67,0,0,1-4.5-12.41,73.48,73.48,0,0,1,17.15-6.39,120.53,120.53,0,0,1,17.66-2.72,141.84,141.84,0,0,1,17.61-.18,103.8,103.8,0,0,1,17.53,2.27,5.86,5.86,0,0,1-.66,11.54Z"/><path class="cls-9" d="M1001.82,592.48a104.83,104.83,0,0,1,17.53-2.27,143.81,143.81,0,0,1,17.61.18,120.56,120.56,0,0,1,17.66,2.73,72.87,72.87,0,0,1,17.15,6.39,6.67,6.67,0,0,1-4.5,12.41l-.33-.07c-5.13-1.05-10.25-2-15.49-2.88s-10.59-1.44-16-2-10.83-1-16.3-1.48-11.07-.86-16.43-1.43l-.25,0a5.86,5.86,0,0,1-.67-11.55Z"/><path class="cls-10" d="M948.86,712.44a3.55,3.55,0,0,1,0-7.1l16-.09c9.58,0,17.32-10,17.26-22.29l0-1.81c0-4.48-2.81-8.25-6.08-8.25h-.12a18.53,18.53,0,0,1-14.37-7.18,26.37,26.37,0,0,1-5.72-16.57v-26a3.55,3.55,0,1,1,7.1,0v26A19.23,19.23,0,0,0,967,661.21a11.55,11.55,0,0,0,8.88,4.59H976c7.23,0,13.14,6.85,13.19,15.3v1.81c.08,16.17-10.82,29.37-24.32,29.44l-16,.09Z"/><path class="cls-9" d="M886.25,632.89c5.64-1.88,11.32-1.26,15.22,1.16,0,.44,0,.89,0,1.35,0,8.25-5.09,15-11.38,15-5.82,0-10.61-5.73-11.3-13.13A20.58,20.58,0,0,1,886.25,632.89Z"/><path class="cls-11" d="M901.47,634.05s-10.05-6.65-22.63,3.17l-7.76,6.94"/><path class="cls-9" d="M1037.06,631.53c-5.65-1.89-11.32-1.26-15.23,1.15,0,.45-.05.9-.05,1.35,0,8.26,5.1,15,11.39,15,5.81,0,10.6-5.73,11.29-13.12A20.46,20.46,0,0,0,1037.06,631.53Z"/><path class="cls-11" d="M1021.83,632.68s10.05-6.65,22.63,3.18l7.76,6.93"/><path class="cls-12" d="M906.57,755.25s36.59,53,105.43,7.7C1012,763,911.87,733.1,906.57,755.25Z"/><path class="cls-13" d="M873.22,656.19s18.87,7.59,30.89-1.5"/><path class="cls-13" d="M1049.63,657.07s-18.87,7.6-30.89-1.49"/><path class="cls-14" d="M1587.34,746.89a96.78,96.78,0,0,1-60.73,6.18s-31-7-51.8-31.41c-.49-.57-1-1.21-1-1.21l-.47-.59.66-2.78,6-25.2,114,27Z"/><ellipse class="cls-5" cx="1536.96" cy="705.4" rx="29.22" ry="58.59" transform="translate(496.09 2038.22) rotate(-76.66)"/><line class="cls-15" x1="1565.53" y1="694.79" x2="1509.37" y2="711.86"/><path class="cls-14" d="M1779.32,788.86a96.78,96.78,0,0,1-50.72,34s-30.64,8.33-60.48-3.41l-1.47-.6-.69-.29-.73-2.77-6.56-25L1772,761Z"/><ellipse class="cls-5" cx="1715.36" cy="775.87" rx="58.59" ry="29.22" transform="translate(-140.56 459.62) rotate(-14.67)"/><line class="cls-15" x1="1735.61" y1="753.1" x2="1694.03" y2="794.53"/><path class="cls-14" d="M1720.72,668.27a96.75,96.75,0,0,1-60.28,9.65s-31.32-5.24-53.52-28.39c-.52-.54-1.08-1.15-1.08-1.15l-.51-.56.5-2.82,4.52-25.49L1725.73,640Z"/><ellipse class="cls-5" cx="1668.04" cy="629.73" rx="29.22" ry="58.59" transform="translate(756.9 2162.29) rotate(-79.95)"/><line class="cls-15" x1="1695.96" y1="617.51" x2="1640.87" y2="637.76"/><path class="cls-16" d="M642.72,253.2A31.15,31.15,0,0,1,600,263.43l-32.27-19.8c-1.57-1-5.91-18.54,2.62-33.31,9-15.53,27.81-20.38,29.8-19.66l32.32,19.83a31.15,31.15,0,0,1,10.24,42.71Z"/><path class="cls-17" d="M568.14,244l-43.95-27a31.05,31.05,0,1,1,32.48-52.93L600.56,191c-2-.72-20.83,4.13-29.79,19.66C562.24,225.47,566.58,243.05,568.14,244Z"/><path class="cls-18" d="M642,248.77A31.14,31.14,0,0,1,599.3,259L567,239.21c-1.56-1-5.91-18.54,2.62-33.31,9-15.53,27.81-20.38,29.8-19.66l32.32,19.83A31.13,31.13,0,0,1,642,248.77Z"/><path class="cls-19" d="M567,239.21l-43.95-27a31.05,31.05,0,1,1,32.47-52.94l43.9,26.93c-2-.72-20.84,4.13-29.8,19.66C561.12,220.67,565.47,238.25,567,239.21Z"/><path class="cls-16" d="M451.47,127.07a31.15,31.15,0,0,1-9.73,42.83l-32,20.17c-1.55,1-19.24-2.91-28.71-17.09-10-14.91-6-33.95-4.44-35.42l32.08-20.21a31.16,31.16,0,0,1,42.83,9.72Z"/><path class="cls-17" d="M410.23,189.88,366.6,217.36a31.05,31.05,0,1,1-33.1-52.55l43.58-27.44c-1.53,1.46-5.52,20.51,4.44,35.41C391,187,408.68,190.86,410.23,189.88Z"/><path class="cls-18" d="M447.18,125.75a31.12,31.12,0,0,1-9.72,42.82l-32,20.18c-1.55,1-19.25-2.91-28.71-17.09-10-14.91-6-34-4.45-35.42L404.36,116a31.12,31.12,0,0,1,42.82,9.72Z"/><path class="cls-19" d="M405.43,188.75,361.8,216.23a31,31,0,1,1-33.1-52.54l43.57-27.45c-1.52,1.46-5.51,20.51,4.45,35.42C386.18,185.84,403.88,189.73,405.43,188.75Z"/><path class="cls-16" d="M517.5,337.79a31.14,31.14,0,0,1-35.32,26.1l-37.44-5.62c-1.81-.27-12.68-14.76-10.59-31.69,2.18-17.79,17.63-29.62,19.75-29.73l37.5,5.63a31.12,31.12,0,0,1,26.1,35.31Z"/><path class="cls-17" d="M445.26,358.46l-51-7.65a31,31,0,1,1,9.22-61.41L454.42,297c-2.11.11-17.57,11.94-19.75,29.73C432.58,343.7,443.45,358.19,445.26,358.46Z"/><path class="cls-18" d="M515.12,334a31.16,31.16,0,0,1-35.32,26.1l-37.44-5.62c-1.81-.28-12.68-14.77-10.59-31.7C434,305,449.4,293.17,451.52,293.05l37.5,5.63A31.14,31.14,0,0,1,515.12,334Z"/><path class="cls-19" d="M442.36,354.48l-51-7.66a31,31,0,1,1,9.22-61.41l50.93,7.64c-2.12.12-17.57,11.94-19.75,29.73C429.68,339.71,440.55,354.2,442.36,354.48Z"/><ellipse class="cls-20" cx="1373.12" cy="223.6" rx="36.25" ry="22.2" transform="translate(3.68 468.74) rotate(-19.4)"/><ellipse class="cls-21" cx="1372.22" cy="221.05" rx="35.04" ry="21.46" transform="translate(4.48 468.3) rotate(-19.4)"/><ellipse class="cls-22" cx="1354.05" cy="217.33" rx="8.43" ry="5.16" transform="translate(17.99 526.55) rotate(-22.15)"/><ellipse class="cls-20" cx="1512.46" cy="215.95" rx="22.2" ry="36.25" transform="translate(616.86 1453.72) rotate(-62.24)"/><ellipse class="cls-21" cx="1513.72" cy="213.56" rx="21.46" ry="35.04" transform="translate(619.64 1453.55) rotate(-62.24)"/><ellipse class="cls-22" cx="1504.09" cy="197.7" rx="5.16" ry="8.43" transform="translate(689.02 1477.17) rotate(-64.99)"/><ellipse class="cls-20" cx="1508.07" cy="145.93" rx="22.2" ry="36.25" transform="translate(1226.64 1634.68) rotate(-84.82)"/><ellipse class="cls-21" cx="1508.31" cy="143.24" rx="21.46" ry="35.04" transform="translate(1229.53 1632.47) rotate(-84.82)"/><ellipse class="cls-22" cx="1493.33" cy="132.3" rx="5.16" ry="8.43" transform="translate(1297.95 1618.69) rotate(-87.57)"/><ellipse class="cls-20" cx="1438.53" cy="255.42" rx="22.2" ry="36.25" transform="translate(1097.7 1676.15) rotate(-86.58)"/><ellipse class="cls-21" cx="1438.69" cy="252.73" rx="21.46" ry="35.04" transform="translate(1100.54 1673.77) rotate(-86.58)"/><ellipse class="cls-22" cx="1423.38" cy="242.25" rx="5.16" ry="8.43" transform="translate(1164.51 1662.7) rotate(-89.33)"/><ellipse class="cls-20" cx="1422.3" cy="158.02" rx="36.25" ry="22.2" transform="translate(131.58 776.04) rotate(-31.93)"/><ellipse class="cls-21" cx="1420.87" cy="155.73" rx="35.04" ry="21.46" transform="matrix(0.85, -0.53, 0.53, 0.85, 132.58, 774.94)"/><ellipse class="cls-22" cx="1402.32" cy="156.04" rx="8.43" ry="5.16" transform="translate(160.32 825.58) rotate(-34.68)"/><rect class="cls-23" x="148.11" y="738.94" width="99.5" height="44.98" rx="21.52" transform="translate(641.36 111.63) rotate(48.88)"/><rect class="cls-5" x="152.24" y="740.81" width="96.97" height="39.6" rx="19.8" transform="translate(641.72 109.2) rotate(48.88)"/><path class="cls-24" d="M210.74,749.15a36,36,0,0,0-21.43,14.55"/><rect class="cls-23" x="180.36" y="664.81" width="99.5" height="44.98" rx="21.52" transform="translate(61.24 -17.55) rotate(5.04)"/><rect class="cls-5" x="183.12" y="664.94" width="96.97" height="39.6" rx="19.8" transform="translate(61.02 -17.69) rotate(5.04)"/><path class="cls-24" d="M230.9,669.53a36,36,0,0,0-5.38,25.34"/><rect class="cls-23" x="283.99" y="710.36" width="99.5" height="44.98" rx="21.52" transform="translate(-329.15 275.64) rotate(-30.92)"/><rect class="cls-5" x="284.96" y="710.1" width="96.97" height="39.6" rx="19.8" transform="translate(-327.67 275.07) rotate(-30.92)"/><path class="cls-24" d="M323.94,718a35.93,35.93,0,0,0,10.52,23.66"/><rect class="cls-23" x="258.28" y="800.65" width="99.5" height="44.98" rx="21.52" transform="translate(-82.4 35.73) rotate(-5.86)"/><rect class="cls-5" x="260.53" y="800.54" width="96.97" height="39.6" rx="19.8" transform="translate(-82.11 35.82) rotate(-5.86)"/><path class="cls-24" d="M305.44,805.54a36,36,0,0,0-.49,25.9"/></g></g></svg>