<svg xmlns="http://www.w3.org/2000/svg" xmlns:xlink="http://www.w3.org/1999/xlink" width="531.768" height="1026.891" viewBox="0 0 531.768 1026.891">
  <defs>
    <clipPath id="clip-path">
      <rect id="Rectángulo_1448" data-name="Rectángulo 1448" width="531.768" height="1026.891" transform="translate(11.549)" fill="none"/>
    </clipPath>
  </defs>
  <g id="Grupo_1155" data-name="Grupo 1155" transform="translate(-11.549)">
    <g id="Grupo_1154" data-name="Grupo 1154">
      <g id="Grupo_1153" data-name="Grupo 1153" clip-path="url(#clip-path)">
        <g id="Grupo_1152" data-name="Grupo 1152">
          <rect id="Rectángulo_1441" data-name="Rectángulo 1441" width="157.3" height="38.18" transform="translate(340.132 401.406) rotate(-24.311)" fill="#29292c"/>
          <rect id="Rectángulo_1442" data-name="Rectángulo 1442" width="285.95" height="189.371" transform="translate(502.258 914.691) rotate(-24.311)" fill="#29292c"/>
          <path id="Trazado_4193" data-name="Trazado 4193" d="M815.115,866.185a6.063,6.063,0,0,0,7.861-4.374s2.217-9.794,3.678-16.253a3.015,3.015,0,0,1,5.575-.809c1.877,3.545,2.243,7.854,2.109,11.349-.027.16-5.568,43.722-5.568,43.722a5.945,5.945,0,0,0,.171,2.366,6.053,6.053,0,0,0,5.082,4.388,7.967,7.967,0,0,0,6.937-6.642L844.8,869.58a2.884,2.884,0,0,1,2.637-2.518l.931-.076a3.005,3.005,0,0,1,3.224,2.552l5.74,37.923a6.293,6.293,0,0,0,6.32,5.484,6.054,6.054,0,0,0,5.7-6.959L863.779,869.1a3.958,3.958,0,0,1,2.712-4.363,4.5,4.5,0,0,1,5.642,2.934L882.2,899.446a6.274,6.274,0,0,0,7.092,4.428,6.05,6.05,0,0,0,4.548-7.753L883.385,863.1a10.682,10.682,0,0,1,.1-6.72,3.167,3.167,0,0,1,5.73-.548l7.79,13.513a6.287,6.287,0,0,0,7.877,2.8,6.042,6.042,0,0,0,2.776-8.549l-16.339-29.827c-3.532-7.638-7.053-14.326-10.385-20.114s-6.474-10.674-9.24-14.681l-19.165-36.606L802.05,788.245l17.292,29.024.009,0a93.325,93.325,0,0,0-4.2,24.427l-3.906,17.077A6.278,6.278,0,0,0,815.115,866.185Z" fill="#d69f6e"/>
          <path id="Trazado_4194" data-name="Trazado 4194" d="M109.4,565.923a6.064,6.064,0,0,0-5.146,7.379s2.3,9.773,3.822,16.219a3.016,3.016,0,0,1-4.657,3.172c-3.241-2.362-5.46-6.075-6.872-9.275-.046-.155-14.167-41.736-14.167-41.736a5.956,5.956,0,0,0-1.191-2.051,6.054,6.054,0,0,0-6.493-1.715,7.966,7.966,0,0,0-3.32,9.011l9.86,28.961a2.881,2.881,0,0,1-1.266,3.418l-.8.478a3.006,3.006,0,0,1-4.016-.88L53.361,547.339a6.293,6.293,0,0,0-8.085-2.158,6.054,6.054,0,0,0-2.074,8.755l21.183,30.705a3.961,3.961,0,0,1-.524,5.111,4.5,4.5,0,0,1-6.358-.164L34.525,565.447a6.274,6.274,0,0,0-8.315-.871,6.051,6.051,0,0,0-.688,8.963l23.875,25.1a10.677,10.677,0,0,1,2.857,6.084,3.166,3.166,0,0,1-4.909,3l-12.927-8.728a6.286,6.286,0,0,0-8.307.937,6.041,6.041,0,0,0,1.254,8.9l27.763,19.642c6.524,5.316,12.621,9.783,18.153,13.523s10.5,6.754,14.743,9.143L121.3,675.635l34.019-45.394-28.268-18.5-.008.006a93.314,93.314,0,0,0-6.941-23.793l-3.978-17.06A6.277,6.277,0,0,0,109.4,565.923Z" fill="#d69f6e"/>
          <path id="Trazado_4195" data-name="Trazado 4195" d="M471.433,369.494c-2.685-2.827-10.161-12.714-23.9-45.1L401.9,345.014,356.263,365.63c15.218,31.714,17.7,43.859,18.042,47.742-.9.838-36.461,34.781-36.461,34.781l108.373-5.038,75.415-77.989S472.66,369.369,471.433,369.494Z" fill="#bf8d64"/>
          <g id="Grupo_1141" data-name="Grupo 1141">
            <path id="Trazado_4196" data-name="Trazado 4196" d="M675.809,627.747c10.621,23.772,42.21,93.048,62.921,119.332,25.135,31.933,39.057,54.719,1.056,66.331C701.812,825.082,544.2,901.478,533.714,906.5a36.029,36.029,0,0,1-11.218,3.408,27.97,27.97,0,0,1-17.366-3.337c-12.4-6.733-21.831-22.676-25.888-44.868-6.082-32.893-37.136-102.411-48-126.073C347.785,543.2,347.785,543.2,292.78,509.453c-8.714-5.347,8.278-21.055,15.745-31.211a240.892,240.892,0,0,1,22.581-25.928l33.7-35.642s11.258,28.03,69.992,2.074l1.506-.681c21-9.485,32.809-18.573,39.354-26.364,9.928-14.3,4.726-24.645,4.726-24.645l20.15-.734,16.548-.549,12.371-.467c18.254-1.175,71.395-11.224,68.21,9.011C588.906,429.939,588.906,429.939,675.809,627.747Z" fill="#ededed"/>
            <path id="Trazado_4197" data-name="Trazado 4197" d="M365.092,419.736l.554,1.266A8.918,8.918,0,0,1,365.092,419.736Z" fill="#ededed"/>
          </g>
          <g id="Grupo_1143" data-name="Grupo 1143">
            <path id="Trazado_4198" data-name="Trazado 4198" d="M703.756,623.891c-.6-1.361-.927-2.082-.927-2.082L644.072,544.9s-132.7-124.359-116.517-163.118c16-38.35,54.649-39.664,85.231-20.818,50.13,30.907,159.826,190.457,176.288,220.385a.259.259,0,0,0,.05.082Z" fill="#ff9e6e"/>
            <g id="Grupo_1142" data-name="Grupo 1142">
              <path id="Trazado_4199" data-name="Trazado 4199" d="M873.716,778.006c3.307,14.29-58.246,47.878-73.087,39.008-13.921-8.327-88.773-174.993-98-195.611L788,578.944C804.514,609.073,870.415,763.728,873.716,778.006Z" fill="#ff9e6e"/>
              <ellipse id="Elipse_351" data-name="Elipse 351" cx="47.237" cy="53.909" rx="47.237" ry="53.909" transform="translate(680.722 571.668) rotate(-24.311)" fill="#ff9e6e"/>
            </g>
          </g>
          <g id="Grupo_1145" data-name="Grupo 1145">
            <path id="Trazado_4200" data-name="Trazado 4200" d="M368.962,763.262c-.379-1.438-.574-2.205-.574-2.205l-2.094-96.762s26.066-179.986-10.768-200.17c-36.44-19.975-67.454,3.118-79.586,36.93-19.878,55.436-6.006,248.561-.19,282.218a.273.273,0,0,1,.013.095Z" fill="#ff9e6e"/>
            <g id="Grupo_1144" data-name="Grupo 1144">
              <path id="Trazado_4201" data-name="Trazado 4201" d="M155.409,613.734c-13.829-4.888-54.109,52.51-46.959,68.252,6.713,14.767,163.932,107.839,183.386,119.317L343.6,721.236C315.515,701.447,169.227,618.616,155.409,613.734Z" fill="#ff9e6e"/>
              <ellipse id="Elipse_352" data-name="Elipse 352" cx="47.237" cy="53.909" rx="47.237" ry="53.909" transform="matrix(0.511, -0.859, 0.859, 0.511, 246.142, 773.526)" fill="#ff9e6e"/>
            </g>
          </g>
          <path id="Trazado_4202" data-name="Trazado 4202" d="M590.432,352.67c-7.477-2.417-39.5-11.988-100.167,2.7l26.861,121.148L698.489,877.977l82.626-41.006,1.781-.879c2.822-1.394,3.817-5.165,2.23-8.381L659.249,572.924S613.906,360.267,590.432,352.67Z" fill="#ff9e6e"/>
          <path id="Trazado_4203" data-name="Trazado 4203" d="M281.977,492.017c3.129-7.208,17.115-37.565,68.236-73.38l73.151,100.237L604.726,920.335,519.339,955.23l-1.837.755c-2.912,1.2-6.4-.55-7.763-3.866L401.76,689.246S272.161,514.653,281.977,492.017Z" fill="#ff9e6e"/>
          <path id="Trazado_4204" data-name="Trazado 4204" d="M483.483,336.646l37.669-1.935L551.1,363.952,528.251,380.1l30.491,41.527L540.167,528.891l-29.551-65.412Z" fill="#29292c"/>
          <path id="Trazado_4205" data-name="Trazado 4205" d="M340.132,401.406l-26.352,26.987,2.146,41.8,27.222-6.47,11.006,50.329,92.766,56.964L417.369,505.6Z" fill="#29292c"/>
          <g id="Grupo_1151" data-name="Grupo 1151">
            <path id="Trazado_4206" data-name="Trazado 4206" d="M245.176,96.789c-15.221-31.041-61.187.7-35.256,29.743-15.823-6.668-34.122-3.8-42.176,19.743-3.648,10.668,3.6,23.934,11,32.332-13.241,5.292-27.92,15.377-22.123,34.861,3.945,12.724,13.323,18.848,25.122,18.355-32.173,16.607-10.624,66.967,22.086,52.88-7.133,10.822-12.272,20.74-4.533,35.2,9.272,16.534,20.534,13.518,32.775,8.679-4.3,34.406,24.024,47.862,46.1,27.528,4.9,9.525,6.795,19.033,18.373,20.711,12.337,2.024,27.535-6.914,33.93-16.71,5.644,8.5,10.234,13.337,19.757,11.8,8.007-2.235,11.425-9.3,17.7-10.066,8.025-.863,14.869,3.644,21.8-3.633,6.193-6.252,4.783-17.357,9.957-24.531,9.611-13.32,27.237-10.232,41.388-4.191,13.652,6.266,34.2,2.511,27.623-18.7,8.266-1.662,21.6-.087,26.74-10.007,3.918-7.295-1.467-15.224-4.34-22.907,25.932,4.173,34.133-20.254,13.782-38.69,6.672-7.851,12.742-5.066,16.6-16.481,6.039-17.234-5-29.708-14.438-39.952,0,0,3.324-.617,4.449-10.1.421-5.717-.395-10.183-1.727-15.8-2.908-10.43-8.552-18.931-19.353-18.887,2.8-15.082,7.941-25-3.567-39.833-8.957-11.842-20.794-14.093-31.818-11.876,8.9-28.2-23.4-57.123-45.272-40.333-.016-28.316-36.208-38.9-43.854-10.583-12.135-25.529-48.7-15.989-49.838,10.772-10.934-9.567-26.785-11.385-36.434-.809-7.411,8.874-6.04,17.234-2.631,27.438-9.718-9.428-21.276-12.493-31.423-1.693-5.934,6.825-3.785,16.906-.9,25.962" fill="#2d2d2d"/>
            <g id="Grupo_1146" data-name="Grupo 1146">
              <path id="Trazado_4207" data-name="Trazado 4207" d="M463.539,195.416c1.109,9.675-9.746,38.006-23.173,27.7L424.83,176.163l.079-.1c3.477-4.275,8.6-8.468,14.224-9.315a14.027,14.027,0,0,1,2.6-.143C455.147,167.152,462.25,184.109,463.539,195.416Z" fill="#d69f6e"/>
              <path id="Trazado_4208" data-name="Trazado 4208" d="M263.571,247.8c-6.373-.273-14.118,1.158-18.339,6.368-8.46,10.441-.424,26.963,7.2,35.414,6.527,7.231,34.97,17.811,36.1.913" fill="#d69f6e"/>
            </g>
            <path id="Trazado_4209" data-name="Trazado 4209" d="M261.675,224.024c-2.692,16.3,4.441,34.529,12.477,49.619,11.146,20.928,26.723,49.873,32.206,58.592,8.9,14.147,45.422,53.4,106.106,24.105,43.282-22.058,65.5-47.756,41.744-112.822-9.052-24.792-20.151-53.883-35.173-75.5C410.548,155.8,398.2,148.671,390.7,139.4c-14.058-17.386-24.535-28.374-24.535-28.374l-53.335,17.83-43.986,20.5-27.724,16.283,2.5,20.794Z" fill="#d69f6e"/>
            <path id="Trazado_4210" data-name="Trazado 4210" d="M243.849,194.751c.191,11.906,3.894,27.274,19.115,27.972,14.447.417,19.745-10.814,25.277-21.517,8.311,12.656,14.06,23.944,31.519,16.687,12.918-5.836,21.446-18.523,16.061-31.871,7.795,22.987,41.4,8.437,33.072-14.308,10.225,11.159,26.027,16.012,39.745,4.767,11.5-8.981,7.362-21-1.981-28.77,13.348-9.187,29.667-14.666,16.9-32.882-10.807-15.316-21.982-12.791-38.173-9.9,1.789-14.693-2.217-29.294-19.763-30.835-10.744-.826-24.566,7.312-26.157,18.13C332.7,80.134,320.5,71.761,305.556,75.988c-12.488,2.485-21.551,15.416-15.565,27.229-13.349-6.593-26.225-12.137-39.636-1.661-11.8,9.75-7.84,19.952-3.167,31.726-30.121-7.851-36.947,28.685-8.2,37.789-10.573.99-25.987,4.166-22.994,17.962,3.529,13.553,17.631,10.339,27.32,5.962" fill="#2d2d2d"/>
            <g id="Grupo_1147" data-name="Grupo 1147">
              <path id="Trazado_4211" data-name="Trazado 4211" d="M332.132,229.819c-2.89,1.693-5.96,3.366-8.925,5.007-2.976,1.668-5.943,3.3-8.847,5s-5.733,3.451-8.524,5.218c-2.746,1.819-5.394,3.681-8.024,5.585l-.169.122a4.141,4.141,0,0,1-5.72-5.868,45.4,45.4,0,0,1,8.072-8,74.681,74.681,0,0,1,9.288-6.052,88.555,88.555,0,0,1,9.918-4.6,64.8,64.8,0,0,1,10.493-3.193,3.637,3.637,0,0,1,2.577,6.7Z" fill="#080305"/>
              <path id="Trazado_4212" data-name="Trazado 4212" d="M366.184,206.557a64.8,64.8,0,0,1,9.334-5.763,88.407,88.407,0,0,1,10.01-4.4,74.754,74.754,0,0,1,10.681-2.968,45.411,45.411,0,0,1,11.337-.772,4.143,4.143,0,0,1,.626,8.172l-.207.046c-3.168.714-6.316,1.471-9.5,2.329-3.171.927-6.359,1.891-9.55,2.947s-6.384,2.2-9.6,3.33c-3.192,1.141-6.477,2.339-9.657,3.388l-.148.049a3.637,3.637,0,0,1-3.328-6.358Z" fill="#080305"/>
              <path id="Trazado_4213" data-name="Trazado 4213" d="M329.341,262.035c2.11,4.67.938,9.759-2.619,11.366s-8.149-.878-10.259-5.548-.939-9.759,2.618-11.366S327.231,257.364,329.341,262.035Z" fill="#080305"/>
              <path id="Trazado_4214" data-name="Trazado 4214" d="M406.424,227.212c2.11,4.671.937,9.76-2.62,11.366s-8.149-.877-10.259-5.548-.938-9.759,2.618-11.365S404.314,222.542,406.424,227.212Z" fill="#080305"/>
            </g>
            <path id="Trazado_4215" data-name="Trazado 4215" d="M375.463,294.844a2.2,2.2,0,0,1-1.827-4.011l9.032-4.139c5.4-2.477,7.226-10.111,4.062-17.021l-.469-1.018c-1.158-2.531-3.7-3.948-5.548-3.112a.214.214,0,0,1-.071.032,11.479,11.479,0,0,1-9.959-.392,16.32,16.32,0,0,1-7.47-7.909l-6.644-14.708a2.2,2.2,0,1,1,4.017-1.815l6.639,14.7a11.92,11.92,0,0,0,5.409,5.785,7.172,7.172,0,0,0,6.2.325l.066-.031c4.091-1.848,9.185.518,11.368,5.289l.47,1.018c4.178,9.123,1.385,19.378-6.23,22.867l-9.032,4.139Z" fill="#8c6239" opacity="0.72"/>
            <g id="Grupo_1150" data-name="Grupo 1150">
              <g id="Grupo_1149" data-name="Grupo 1149">
                <g id="Grupo_1148" data-name="Grupo 1148">
                  <path id="Trazado_4216" data-name="Trazado 4216" d="M366.387,310.781s16.83-1.515,31.1-7.716,17.781,22.193-3.292,32.742S354.278,315.115,366.387,310.781Z" fill="#721a25"/>
                </g>
              </g>
            </g>
          </g>
          <rect id="Rectángulo_1443" data-name="Rectángulo 1443" width="12.217" height="24.209" rx="5.306" transform="translate(539.422 292.859) rotate(49.447)" fill="#d69f6e"/>
          <rect id="Rectángulo_1444" data-name="Rectángulo 1444" width="13.533" height="40.962" rx="6.766" transform="translate(525.92 294.509) rotate(-86.684)" fill="#d69f6e"/>
          <rect id="Rectángulo_1445" data-name="Rectángulo 1445" width="13.196" height="47.208" rx="6.598" transform="translate(526.756 281.184) rotate(-87.689)" fill="#d69f6e"/>
          <rect id="Rectángulo_1446" data-name="Rectángulo 1446" width="12.334" height="46.123" rx="5.62" transform="translate(528 268.665) rotate(-90)" fill="#d69f6e"/>
          <rect id="Rectángulo_1447" data-name="Rectángulo 1447" width="12.217" height="30.222" rx="5.306" transform="translate(528.815 256.051) rotate(-90)" fill="#d69f6e"/>
        </g>
      </g>
    </g>
  </g>
</svg>
