<svg id="Capa_1" data-name="Capa 1" xmlns="http://www.w3.org/2000/svg" xmlns:xlink="http://www.w3.org/1999/xlink" viewBox="0 0 884.62 1068.6"><defs><style>.cls-1{fill:none;}.cls-2{clip-path:url(#clip-path);}.cls-3{fill:#29292c;}.cls-4{fill:#d69f6e;}.cls-5{fill:#bf8d64;}.cls-6{fill:#ededed;}.cls-7{fill:#ff9e6e;}.cls-8{fill:#2d2d2d;}.cls-9{fill:#080305;}.cls-10{fill:#8c6239;opacity:0.72;}.cls-11{fill:#721a25;}</style><clipPath id="clip-path" transform="translate(-23.85 -18.67)"><rect class="cls-1" x="11.55" width="531.77" height="1026.89"/></clipPath></defs><title>Footer2</title><g class="cls-2"><rect class="cls-3" x="341.02" y="367.33" width="157.3" height="38.18" transform="translate(-145.73 188.37) rotate(-24.31)"/><rect class="cls-3" x="528.56" y="847.43" width="285.95" height="189.37" transform="translate(-352.17 341.34) rotate(-24.31)"/><path class="cls-4" d="M815.12,866.18a6.06,6.06,0,0,0,7.86-4.37l3.67-16.25a3,3,0,0,1,5.58-.81c1.88,3.54,2.24,7.85,2.11,11.35,0,.16-5.57,43.72-5.57,43.72a5.86,5.86,0,0,0,.17,2.37,6,6,0,0,0,5.08,4.38,8,8,0,0,0,6.94-6.64l3.84-30.35a2.88,2.88,0,0,1,2.63-2.52l.94-.07a3,3,0,0,1,3.22,2.55l5.74,37.92a6.3,6.3,0,0,0,6.32,5.49,6.06,6.06,0,0,0,5.7-7l-5.57-36.89a4,4,0,0,1,2.71-4.36,4.5,4.5,0,0,1,5.64,2.93l10.07,31.78a6.27,6.27,0,0,0,7.09,4.42,6.05,6.05,0,0,0,4.55-7.75l-10.45-33a10.65,10.65,0,0,1,.1-6.72,3.16,3.16,0,0,1,5.72-.55L897,869.34a6.29,6.29,0,0,0,7.88,2.8,6,6,0,0,0,2.78-8.55l-16.34-29.82c-3.53-7.64-7.05-14.33-10.39-20.12S874.46,803,871.69,799l-19.16-36.6-50.48,25.87,17.29,29h0a93.18,93.18,0,0,0-4.19,24.42l-3.91,17.08A6.28,6.28,0,0,0,815.12,866.18Z" transform="translate(-23.85 -18.67)"/><path class="cls-4" d="M109.4,565.92a6.07,6.07,0,0,0-5.15,7.38s2.3,9.78,3.82,16.22a3,3,0,0,1-4.65,3.17c-3.24-2.36-5.46-6.07-6.87-9.27,0-.16-14.17-41.74-14.17-41.74a6.14,6.14,0,0,0-1.19-2,6,6,0,0,0-6.49-1.71,8,8,0,0,0-3.33,9l9.87,29A2.9,2.9,0,0,1,80,579.31l-.8.47a3,3,0,0,1-4-.88L53.36,547.34a6.28,6.28,0,0,0-8.08-2.16,6.06,6.06,0,0,0-2.08,8.76l21.18,30.7a4,4,0,0,1-.52,5.11,4.5,4.5,0,0,1-6.36-.16l-23-24.14a6.27,6.27,0,0,0-8.32-.87,6,6,0,0,0-.69,9l23.88,25.1a10.64,10.64,0,0,1,2.85,6.08,3.16,3.16,0,0,1-4.9,3L34.42,599a6.29,6.29,0,0,0-8.31.94,6,6,0,0,0,1.26,8.9l27.76,19.64c6.52,5.32,12.62,9.79,18.15,13.53s10.5,6.75,14.74,9.14l33.28,24.49,34-45.39-28.27-18.5h0A93.44,93.44,0,0,0,120.1,588l-4-17.06A6.27,6.27,0,0,0,109.4,565.92Z" transform="translate(-23.85 -18.67)"/><path class="cls-5" d="M471.43,369.49c-2.68-2.82-10.16-12.71-23.9-45.09L401.9,345l-45.64,20.62c15.22,31.71,17.7,43.86,18.05,47.74-.91.84-36.47,34.78-36.47,34.78l108.38-5,75.41-78S472.66,369.37,471.43,369.49Z" transform="translate(-23.85 -18.67)"/><path class="cls-6" d="M675.81,627.75c10.62,23.77,42.21,93,62.92,119.33,25.14,31.93,39.06,54.72,1.06,66.33S544.2,901.48,533.71,906.5a36,36,0,0,1-11.21,3.41,28,28,0,0,1-17.37-3.33c-12.41-6.74-21.83-22.68-25.89-44.87-6.08-32.9-37.13-102.41-48-126.08C347.79,543.2,347.79,543.2,292.78,509.45c-8.71-5.34,8.28-21.05,15.75-31.21a239.56,239.56,0,0,1,22.58-25.93l33.69-35.64s11.26,28,70,2.08l1.5-.69c21-9.48,32.81-18.57,39.36-26.36,9.92-14.3,4.72-24.64,4.72-24.64l20.15-.74,16.55-.55,12.37-.46c18.26-1.18,71.4-11.23,68.21,9C588.91,429.94,588.91,429.94,675.81,627.75Z" transform="translate(-23.85 -18.67)"/><path class="cls-6" d="M365.09,419.74l.56,1.26A9.35,9.35,0,0,1,365.09,419.74Z" transform="translate(-23.85 -18.67)"/><path class="cls-7" d="M703.76,623.89l-.93-2.08L644.07,544.9S511.37,420.54,527.55,381.78c16-38.35,54.65-39.66,85.24-20.82,50.13,30.91,159.82,190.46,176.28,220.39,0,0,0,.06,0,.08Z" transform="translate(-23.85 -18.67)"/><path class="cls-7" d="M873.72,778c3.3,14.29-58.25,47.87-73.09,39-13.92-8.32-88.77-175-98-195.61L788,578.94C804.51,609.07,870.42,763.73,873.72,778Z" transform="translate(-23.85 -18.67)"/><ellipse class="cls-7" cx="745.96" cy="601.35" rx="47.24" ry="53.91" transform="translate(-205.28 341.77) rotate(-24.31)"/><path class="cls-7" d="M369,763.26c-.38-1.44-.57-2.2-.57-2.2l-2.1-96.77s26.07-180-10.76-200.16c-36.44-20-67.46,3.11-79.59,36.93-19.88,55.43-6,248.56-.19,282.21a.17.17,0,0,1,0,.1Z" transform="translate(-23.85 -18.67)"/><path class="cls-7" d="M155.41,613.73c-13.83-4.88-54.11,52.51-47,68.26,6.71,14.76,163.93,107.84,183.39,119.31l51.76-80.06C315.51,701.45,169.23,618.62,155.41,613.73Z" transform="translate(-23.85 -18.67)"/><ellipse class="cls-7" cx="316.62" cy="760.49" rx="47.24" ry="53.91" transform="matrix(0.51, -0.86, 0.86, 0.51, -522.69, 625.08)"/><path class="cls-7" d="M590.43,352.67c-7.47-2.42-39.5-12-100.17,2.7l26.87,121.15L698.49,878l82.62-41,1.79-.88c2.82-1.39,3.81-5.16,2.23-8.38L659.25,572.92S613.91,360.27,590.43,352.67Z" transform="translate(-23.85 -18.67)"/><path class="cls-7" d="M282,492c3.13-7.21,17.11-37.57,68.23-73.38l73.15,100.23L604.73,920.33l-85.39,34.9-1.84.76c-2.91,1.19-6.4-.55-7.76-3.87l-108-262.87S272.16,514.65,282,492Z" transform="translate(-23.85 -18.67)"/><polygon class="cls-3" points="459.63 317.98 497.3 316.04 527.25 345.28 504.4 361.43 534.89 402.96 516.31 510.22 486.76 444.81 459.63 317.98"/><polygon class="cls-3" points="316.28 382.74 289.93 409.72 292.07 451.52 319.29 445.05 330.3 495.38 423.06 552.35 393.51 486.93 316.28 382.74"/><path class="cls-8" d="M245.18,96.79c-15.23-31-61.19.7-35.26,29.74-15.82-6.67-34.12-3.8-42.18,19.75-3.64,10.66,3.6,23.93,11,32.33-13.24,5.29-27.92,15.37-22.12,34.86,3.95,12.72,13.32,18.85,25.12,18.35-32.17,16.61-10.62,67,22.09,52.88-7.14,10.82-12.27,20.74-4.54,35.21,9.28,16.53,20.54,13.52,32.78,8.68-4.29,34.4,24,47.86,46.1,27.52,4.9,9.53,6.79,19,18.37,20.72,12.34,2,27.54-6.92,33.93-16.71,5.65,8.5,10.24,13.33,19.76,11.79,8-2.23,11.42-9.3,17.69-10.06,8-.87,14.87,3.64,21.81-3.64,6.19-6.25,4.78-17.35,9.95-24.53,9.62-13.32,27.24-10.23,41.39-4.19,13.65,6.27,34.2,2.51,27.63-18.69,8.26-1.67,21.6-.09,26.74-10,3.91-7.3-1.47-15.23-4.34-22.91,25.93,4.17,34.13-20.25,13.78-38.69,6.67-7.85,12.74-5.07,16.6-16.48,6-17.23-5-29.71-14.44-40,0,0,3.33-.62,4.45-10.11.42-5.71-.39-10.18-1.73-15.79-2.9-10.43-8.55-18.94-19.35-18.89,2.8-15.08,7.94-25-3.57-39.83C477.89,86.29,466.05,84,455,86.26c8.9-28.2-23.4-57.12-45.28-40.33,0-28.32-36.2-38.91-43.85-10.59-12.13-25.52-48.7-16-49.84,10.78-10.93-9.57-26.78-11.39-36.43-.81-7.41,8.87-6,17.23-2.63,27.43-9.72-9.42-21.28-12.49-31.43-1.69-5.93,6.83-3.78,16.91-.89,26" transform="translate(-23.85 -18.67)"/><path class="cls-4" d="M463.54,195.42c1.11,9.67-9.75,38-23.17,27.7l-15.54-47,.08-.09c3.48-4.28,8.6-8.47,14.22-9.32a13.34,13.34,0,0,1,2.6-.14C455.15,167.15,462.25,184.11,463.54,195.42Z" transform="translate(-23.85 -18.67)"/><path class="cls-4" d="M263.57,247.8c-6.37-.27-14.12,1.16-18.34,6.37-8.46,10.44-.42,27,7.21,35.41,6.52,7.23,35,17.81,36.1.91" transform="translate(-23.85 -18.67)"/><path class="cls-4" d="M261.67,224c-2.69,16.3,4.45,34.53,12.48,49.62,11.15,20.93,26.73,49.88,32.21,58.6,8.89,14.14,45.42,53.39,106.1,24.1,43.29-22.06,65.5-47.76,41.75-112.82-9-24.79-20.15-53.88-35.18-75.5-8.48-12.21-20.83-19.35-28.33-28.62C376.64,122,366.16,111,366.16,111l-53.33,17.83-44,20.49-27.72,16.29,2.5,20.79Z" transform="translate(-23.85 -18.67)"/><path class="cls-8" d="M243.85,194.75c.19,11.91,3.89,27.27,19.11,28,14.45.42,19.75-10.81,25.28-21.51,8.31,12.65,14.06,23.94,31.52,16.68,12.92-5.83,21.45-18.52,16.06-31.87,7.8,23,41.4,8.44,33.07-14.31,10.23,11.16,26,16,39.75,4.77,11.49-9,7.36-21-2-28.77,13.35-9.19,29.66-14.66,16.9-32.88-10.81-15.32-22-12.79-38.17-9.9,1.79-14.69-2.22-29.29-19.77-30.83-10.74-.83-24.56,7.31-26.15,18.13-6.77-12.1-19-20.47-33.91-16.24C293.07,78.47,284,91.4,290,103.22c-13.35-6.6-26.22-12.14-39.64-1.66-11.79,9.75-7.83,20-3.16,31.72-30.12-7.85-36.95,28.69-8.21,37.79-10.57,1-26,4.17-23,18,3.53,13.56,17.63,10.34,27.32,6" transform="translate(-23.85 -18.67)"/><path class="cls-9" d="M332.13,229.82c-2.89,1.69-6,3.37-8.92,5s-5.95,3.3-8.85,5-5.73,3.45-8.52,5.22-5.4,3.68-8,5.58l-.17.13a4.14,4.14,0,0,1-5.72-5.87,45.63,45.63,0,0,1,8.08-8,74.88,74.88,0,0,1,9.28-6,87.22,87.22,0,0,1,9.92-4.6,65.06,65.06,0,0,1,10.49-3.2,3.64,3.64,0,0,1,2.58,6.7Z" transform="translate(-23.85 -18.67)"/><path class="cls-9" d="M366.18,206.56a65.51,65.51,0,0,1,9.34-5.77,90.34,90.34,0,0,1,10-4.4,73.58,73.58,0,0,1,10.68-3,45.5,45.5,0,0,1,11.34-.78,4.15,4.15,0,0,1,.62,8.18l-.21,0c-3.16.72-6.31,1.47-9.49,2.33s-6.36,1.89-9.55,3-6.39,2.2-9.6,3.33-6.48,2.34-9.66,3.39l-.15,0a3.63,3.63,0,0,1-3.33-6.35Z" transform="translate(-23.85 -18.67)"/><path class="cls-9" d="M329.34,262c2.11,4.68.94,9.76-2.62,11.37s-8.15-.88-10.26-5.55-.94-9.76,2.62-11.36S327.23,257.36,329.34,262Z" transform="translate(-23.85 -18.67)"/><path class="cls-9" d="M406.42,227.21c2.11,4.67.94,9.76-2.62,11.37s-8.15-.88-10.26-5.55-.93-9.76,2.62-11.37S404.31,222.54,406.42,227.21Z" transform="translate(-23.85 -18.67)"/><path class="cls-10" d="M375.46,294.84a2.2,2.2,0,1,1-1.82-4l9-4.14c5.4-2.47,7.22-10.11,4.06-17l-.47-1c-1.16-2.54-3.7-4-5.55-3.12,0,0,0,0-.07,0a11.5,11.5,0,0,1-10-.4,16.36,16.36,0,0,1-7.47-7.91l-6.64-14.7a2.21,2.21,0,1,1,4-1.82l6.63,14.7a11.93,11.93,0,0,0,5.41,5.78,7.2,7.2,0,0,0,6.2.33l.07,0c4.09-1.85,9.18.51,11.37,5.28l.47,1c4.17,9.13,1.38,19.38-6.23,22.87l-9,4.14Z" transform="translate(-23.85 -18.67)"/><path class="cls-11" d="M366.39,310.78s16.83-1.51,31.1-7.71,17.78,22.19-3.3,32.74S354.28,315.12,366.39,310.78Z" transform="translate(-23.85 -18.67)"/><rect class="cls-4" x="528.09" y="293.27" width="12.22" height="24.21" rx="5.31" transform="translate(395.05 -317.72) rotate(49.45)"/><rect class="cls-4" x="539.99" y="268.46" width="13.53" height="40.96" rx="6.77" transform="translate(202.82 799.4) rotate(-86.68)"/><rect class="cls-4" x="544.01" y="251.94" width="13.2" height="47.21" rx="6.6" transform="translate(229.23 795.92) rotate(-87.69)"/><rect class="cls-4" x="544.89" y="239.44" width="12.33" height="46.12" rx="5.62" transform="translate(264.71 794.89) rotate(-90)"/><rect class="cls-4" x="537.82" y="234.83" width="12.22" height="30.22" rx="5.31" transform="translate(270.13 775.2) rotate(-90)"/></g></svg>