<svg xmlns="http://www.w3.org/2000/svg" viewBox="0 0 113.7 43.2"><defs><style>.cls-1,.cls-2{isolation:isolate;}.cls-2{font-size:15px;font-family:SegoeUI-Bold, Segoe UI;font-weight:700;}.cls-2,.cls-5{fill:#fff;}.cls-3{letter-spacing:0.01em;}.cls-4{letter-spacing:-0.07em;}</style></defs><title>Recurso 1</title><g id="Capa_2" data-name="Capa 2"><g id="Capa_1-2" data-name="Capa 1"><g id="THINK_HEALTHY" data-name="THINK HEALTHY" class="cls-1"><text class="cls-2" transform="translate(47.38 16.74)">THINK</text><text class="cls-2" transform="translate(47.38 36.74)">H<tspan class="cls-3" x="11.49" y="0">E</tspan><tspan x="19.69" y="0">A</tspan><tspan class="cls-4" x="30.23" y="0">L</tspan><tspan x="36.91" y="0">THY</tspan></text></g><path id="Trazado_3857" data-name="Trazado 3857" class="cls-5" d="M2.9,23c-2-.62-2.83-1.58-2.9-3.25s.78-2.94,3.06-3.94a2.92,2.92,0,0,1-1.49-3.43A2.73,2.73,0,0,1,4.16,10c1.16-.1,1.59-.4,1.35-1.71a3.59,3.59,0,0,1,3.19-4,4.35,4.35,0,0,1,.51,0c.77,0,1.12.62,1.73.83s1.1.75.81-.52a2.67,2.67,0,0,1,1.94-2.86c1.48-.53,2.55-.1,3.73,1.51.27-1,.68-1.89,1.87-2.1A2.48,2.48,0,0,1,22,2.62c.54-.23.34-.75.52-1.1A2.77,2.77,0,0,1,26.26.3a3,3,0,0,1,1,.8c.52.63.71.72,1.45.18,1.81-1.31,3.7-.81,5,1.05A1,1,0,0,0,35,2.8l0,0c2.19-.75,3.82.68,3.72,3.05,0,.38-.29.75.46.9a3.94,3.94,0,0,1,3.38,4.43,3.8,3.8,0,0,1-.48,1.42c-.36.74-.26.87.43,1.3,2,1.24,3.07,3.39,1,6.12-.4.55-.61.88,0,1.52,1,1.05.77,3.46-.42,4.74a1.41,1.41,0,0,0-.34,1.6,3.87,3.87,0,0,1-.53,3.78,1.88,1.88,0,0,1-1.42.9c-1.26,0-1.44.51-1.17,1.64.48,1.94-.91,3.21-2.95,2.7-.7-.17-.94-.2-.9.57.08,1.67-1,2.47-3,1.89-.67-.2-1.18-.49-1.51.53a1.43,1.43,0,0,1-1.78,1,1.17,1.17,0,0,1-.36-.16,3.06,3.06,0,0,0-2.21,0c-3.3.8-6.59,1-9.74-.6a2.8,2.8,0,0,0-1.54-.22c-.78,0-1.57-.23-1.72-1-.25-1.28-.9-1-1.79-.76-2,.45-3.81,0-4-1.31-.22-1.82-1-2.14-2.7-2.18s-2.68-2.22-2-4.19C3.92,29.51,4,29,2.84,29A2,2,0,0,1,1,27.16a3.31,3.31,0,0,1,.85-3.3C2.19,23.54,2.77,23.5,2.9,23Zm17.15-3.42c0-1.62,0-3.23,0-4.85,0-.31-.14-.68.2-.92A2.08,2.08,0,0,1,23,14.93l.05.12c.39,3.24.79,6.49,1.2,9.73,0,.28-.13.64.45.67,3.25.21,3.4.05,2.78-3.2-.07-.33-.2-.73.21-.86a4,4,0,0,1,2.14,0c.45.12.18.58.13.87-.12.75-.29,1.49-.45,2.23-.11.5,0,.83.6.81.87,0,1.74,0,2.61,0,.5,0,.64-.23.66-.7.23-3.64.46-7.27.72-10.91,0-.65-.19-.78-.8-.82-3-.19-3-.2-3,2.71a6.17,6.17,0,0,0,0,.86c.1.71-.24.85-.91.87-2.62.11-2.62.14-2.36-2.43a8.78,8.78,0,0,1,.11-1.7c.37-1.31-.11-1.77-1.42-1.56-1,.17-1.43-.2-1.24-1.21s-.22-1.22-1.18-1.2q-4.56.09-9.14,0c-1,0-1.61.14-1.63,1.34s-.82,2.47-.37,3.14c.58.85,2.13.25,3.25.28.82,0,.93.21.77,1-.66,3.13-1.23,6.28-1.86,9.42-.13.66,0,1,.77.94,1.35-.05,2.71,0,4.06,0,.69,0,.94-.22.92-.91,0-1.61,0-3.23,0-4.84Zm8.05,9a13.38,13.38,0,0,0-1.42.13c-.3.06-.74.12-.71.55s.44.44.77.43c1.4,0,2.7.68,4.12.49.35-.05.77.26.87-.34s-.32-.63-.67-.76a10.26,10.26,0,0,0-3-.5Zm-8.44,0a9.74,9.74,0,0,0-3.3.56c-.37.15-.74.32-.55.81s.51.26.84.21c1-.14,2-.21,3-.37.66-.1,1.85.22,1.85-.51,0-1-1.26-.39-1.83-.7Zm9.13,5.55a.82.82,0,0,0,.9-.75.48.48,0,0,0,0-.17c0-.62-.13-1.21-.89-1.2-.56,0-.77.48-.79,1s.12,1,.78,1.11Zm-9.51-1c0-.59-.22-1.13-.87-1.1a1,1,0,0,0-.88,1,.28.28,0,0,0,0,.09c0,.46.18,1,.81,1s.88-.47.93-1Z"/></g></g></svg>