<svg id="Capa_1" data-name="Capa 1" xmlns="http://www.w3.org/2000/svg" xmlns:xlink="http://www.w3.org/1999/xlink" viewBox="0 0 320.89 249.42"><defs><style>.cls-1,.cls-2{opacity:0.66;}.cls-1{fill:url(#Áåçûìÿííûé_ãðàäèåíò_35);}.cls-3{fill:#e8f6fd;}.cls-4{fill:#989696;}.cls-5{fill:#3d4345;}.cls-6{fill:#70797e;}.cls-7{fill:#4f5659;}.cls-8{fill:#4f4f4f;}.cls-9{fill:#46c3e0;}.cls-10{fill:#82d0e1;}.cls-11{fill:#f5f7f8;}.cls-12{fill:#cfd0d1;}.cls-13{fill:#1d1d1b;}.cls-14{fill:#d49e6e;}.cls-15{fill:#fff;}.cls-16{fill:#dea370;}.cls-17{fill:#d69f6e;}.cls-18{fill:#e42320;}.cls-19,.cls-76{fill:none;stroke-miterlimit:10;}.cls-19{stroke:#b17f49;}.cls-20{fill:#060405;}.cls-21{fill:#8b6239;}.cls-21,.cls-56{opacity:0.72;}.cls-22{fill:#721925;}.cls-23{fill:#2c3133;}.cls-24{fill:#1b1e20;}.cls-25{fill:#272727;}.cls-26{fill:#363c3e;}.cls-27{fill:#3b3b3a;}.cls-28{fill:#6a696a;}.cls-29{fill:#64804d;}.cls-30{fill:#779552;}.cls-31{fill:#8a5961;}.cls-32{fill:#8a5f41;}.cls-33{fill:#6d854d;}.cls-34{fill:#bc9188;}.cls-35{fill:#72a155;}.cls-36{fill:#87623d;}.cls-37{fill:#2e3033;}.cls-38{fill:#676c71;}.cls-39{fill:#403c35;}.cls-40{fill:#9a9897;}.cls-41{fill:#524c45;}.cls-42{fill:#6c645c;}.cls-43{fill:#bfbebe;}.cls-44{fill:#6e655d;}.cls-45{fill:#817d73;}.cls-46{fill:#f35951;}.cls-47{fill:#9d392d;}.cls-48{fill:#2d2d2d;}.cls-49{fill:#6d1b1b;}.cls-50{fill:#e40517;}.cls-51{fill:#808daa;}.cls-52{fill:#bf8d64;}.cls-53{fill:#ededed;}.cls-54{fill:#af4533;}.cls-55{fill:#080305;}.cls-56{fill:#8c6239;}.cls-57{fill:#721a25;}.cls-58{fill:#ccc;}.cls-59{fill:#9e4646;}.cls-60{fill:#f3505e;}.cls-61{fill:#e2e1e2;}.cls-62{fill:#bbbbba;}.cls-63{fill:#a5a5a4;}.cls-64{fill:#a86c42;}.cls-65{fill:#6c422e;}.cls-66{fill:#ca8566;}.cls-67{fill:#905e3d;}.cls-68{fill:#583627;}.cls-69{fill:#a91917;}.cls-70{fill:#ed9d84;}.cls-71{fill:#f5ac96;}.cls-72{fill:#7e140a;}.cls-73{fill:#f6e297;}.cls-74{fill:#37536e;}.cls-75{fill:#22b0af;}.cls-76{stroke:#f1977f;}.cls-77{fill:#191a1a;}.cls-78{fill:#e97d5b;}</style><linearGradient id="Áåçûìÿííûé_ãðàäèåíò_35" y1="103.26" x2="320.89" y2="103.26" gradientUnits="userSpaceOnUse"><stop offset="0.05" stop-color="#00b7e1"/><stop offset="0.9" stop-color="#92ccdc"/></linearGradient></defs><title>FinalFeliz1</title><rect class="cls-1" width="320.89" height="206.52"/><g class="cls-2"><rect class="cls-3" y="0.48" width="7.95" height="9.24"/><rect class="cls-3" x="9.03" y="0.48" width="19.29" height="9.24"/><rect class="cls-3" x="29.28" y="0.48" width="19.29" height="9.24"/><rect class="cls-3" x="49.54" y="0.48" width="19.29" height="9.24"/><rect class="cls-3" x="69.79" y="0.48" width="19.29" height="9.24"/><rect class="cls-3" x="90.04" y="0.48" width="19.29" height="9.24"/><rect class="cls-3" x="110.29" y="0.48" width="19.29" height="9.24"/><rect class="cls-3" x="130.54" y="0.48" width="19.29" height="9.24"/><rect class="cls-3" x="150.8" y="0.48" width="19.29" height="9.24"/><rect class="cls-3" x="171.05" y="0.48" width="19.29" height="9.24"/><rect class="cls-3" x="191.3" y="0.48" width="19.29" height="9.24"/><rect class="cls-3" x="211.55" y="0.48" width="19.29" height="9.24"/><rect class="cls-3" x="231.81" y="0.48" width="19.29" height="9.24"/><rect class="cls-3" x="252.06" y="0.48" width="19.29" height="9.24"/><rect class="cls-3" x="272.31" y="0.48" width="19.29" height="9.24"/><rect class="cls-3" x="292.56" y="0.48" width="19.29" height="9.24"/><rect class="cls-3" x="312.81" y="0.48" width="8.08" height="9.24"/><rect class="cls-3" y="10.49" width="11.87" height="9.24"/><rect class="cls-3" x="12.95" y="10.49" width="19.29" height="9.24"/><rect class="cls-3" x="33.2" y="10.49" width="19.29" height="9.24"/><rect class="cls-3" x="53.45" y="10.49" width="19.29" height="9.24"/><rect class="cls-3" x="73.7" y="10.49" width="19.29" height="9.24"/><rect class="cls-3" x="93.96" y="10.49" width="19.29" height="9.24"/><rect class="cls-3" x="114.21" y="10.49" width="19.29" height="9.24"/><rect class="cls-3" x="134.46" y="10.49" width="19.29" height="9.24"/><rect class="cls-3" x="154.71" y="10.49" width="19.29" height="9.24"/><rect class="cls-3" x="174.97" y="10.49" width="19.29" height="9.24"/><rect class="cls-3" x="195.22" y="10.49" width="19.29" height="9.24"/><rect class="cls-3" x="215.47" y="10.49" width="19.29" height="9.24"/><rect class="cls-3" x="235.72" y="10.49" width="19.29" height="9.24"/><rect class="cls-3" x="255.97" y="10.49" width="19.29" height="9.24"/><rect class="cls-3" x="276.23" y="10.49" width="19.29" height="9.24"/><rect class="cls-3" x="296.48" y="10.49" width="19.29" height="9.24"/><rect class="cls-3" x="316.73" y="10.49" width="4.16" height="9.24"/><rect class="cls-3" y="20.61" width="7.95" height="9.24"/><rect class="cls-3" x="9.03" y="20.61" width="19.29" height="9.24"/><rect class="cls-3" x="29.28" y="20.61" width="19.29" height="9.24"/><rect class="cls-3" x="49.54" y="20.61" width="19.29" height="9.24"/><rect class="cls-3" x="69.79" y="20.61" width="19.29" height="9.24"/><rect class="cls-3" x="90.04" y="20.61" width="19.29" height="9.24"/><rect class="cls-3" x="110.29" y="20.61" width="19.29" height="9.24"/><rect class="cls-3" x="130.54" y="20.61" width="19.29" height="9.24"/><rect class="cls-3" x="150.8" y="20.61" width="19.29" height="9.24"/><rect class="cls-3" x="171.05" y="20.61" width="19.29" height="9.24"/><rect class="cls-3" x="191.3" y="20.61" width="19.29" height="9.24"/><rect class="cls-3" x="211.55" y="20.61" width="19.29" height="9.24"/><rect class="cls-3" x="231.81" y="20.61" width="19.29" height="9.24"/><rect class="cls-3" x="252.06" y="20.61" width="19.29" height="9.24"/><rect class="cls-3" x="272.31" y="20.61" width="19.29" height="9.24"/><rect class="cls-3" x="292.56" y="20.61" width="19.29" height="9.24"/><rect class="cls-3" x="312.81" y="20.61" width="8.08" height="9.24"/><rect class="cls-3" y="30.62" width="11.87" height="9.24"/><rect class="cls-3" x="12.95" y="30.62" width="19.29" height="9.24"/><rect class="cls-3" x="33.2" y="30.62" width="19.29" height="9.24"/><rect class="cls-3" x="53.45" y="30.62" width="19.29" height="9.24"/><rect class="cls-3" x="73.7" y="30.62" width="19.29" height="9.24"/><rect class="cls-3" x="93.96" y="30.62" width="19.29" height="9.24"/><rect class="cls-3" x="114.21" y="30.62" width="19.29" height="9.24"/><rect class="cls-3" x="134.46" y="30.62" width="19.29" height="9.24"/><rect class="cls-3" x="154.71" y="30.62" width="19.29" height="9.24"/><rect class="cls-3" x="174.97" y="30.62" width="19.29" height="9.24"/><rect class="cls-3" x="195.22" y="30.62" width="19.29" height="9.24"/><rect class="cls-3" x="215.47" y="30.62" width="19.29" height="9.24"/><rect class="cls-3" x="235.72" y="30.62" width="19.29" height="9.24"/><rect class="cls-3" x="255.97" y="30.62" width="19.29" height="9.24"/><rect class="cls-3" x="276.23" y="30.62" width="19.29" height="9.24"/><rect class="cls-3" x="296.48" y="30.62" width="19.29" height="9.24"/><rect class="cls-3" x="316.73" y="30.62" width="4.16" height="9.24"/><rect class="cls-3" y="40.62" width="7.95" height="9.24"/><rect class="cls-3" x="9.03" y="40.62" width="19.29" height="9.24"/><rect class="cls-3" x="29.28" y="40.62" width="19.29" height="9.24"/><rect class="cls-3" x="49.54" y="40.62" width="19.29" height="9.24"/><rect class="cls-3" x="69.79" y="40.62" width="19.29" height="9.24"/><rect class="cls-3" x="90.04" y="40.62" width="19.29" height="9.24"/><rect class="cls-3" x="110.29" y="40.62" width="19.29" height="9.24"/><rect class="cls-3" x="130.54" y="40.62" width="19.29" height="9.24"/><rect class="cls-3" x="150.8" y="40.62" width="19.29" height="9.24"/><rect class="cls-3" x="171.05" y="40.62" width="19.29" height="9.24"/><rect class="cls-3" x="191.3" y="40.62" width="19.29" height="9.24"/><rect class="cls-3" x="211.55" y="40.62" width="19.29" height="9.24"/><rect class="cls-3" x="231.81" y="40.62" width="19.29" height="9.24"/><rect class="cls-3" x="252.06" y="40.62" width="19.29" height="9.24"/><rect class="cls-3" x="272.31" y="40.62" width="19.29" height="9.24"/><rect class="cls-3" x="292.56" y="40.62" width="19.29" height="9.24"/><rect class="cls-3" x="312.81" y="40.62" width="8.08" height="9.24"/><rect class="cls-3" y="50.63" width="11.86" height="9.24"/><rect class="cls-3" x="12.94" y="50.63" width="19.28" height="9.24"/><rect class="cls-3" x="33.19" y="50.63" width="19.28" height="9.24"/><rect class="cls-3" x="53.43" y="50.63" width="19.28" height="9.24"/><rect class="cls-3" x="73.68" y="50.63" width="19.28" height="9.24"/><rect class="cls-3" x="93.93" y="50.63" width="19.28" height="9.24"/><rect class="cls-3" x="114.17" y="50.63" width="19.28" height="9.24"/><rect class="cls-3" x="134.42" y="50.63" width="19.28" height="9.24"/><rect class="cls-3" x="154.66" y="50.63" width="19.28" height="9.24"/><rect class="cls-3" x="174.91" y="50.63" width="19.28" height="9.24"/><rect class="cls-3" x="195.15" y="50.63" width="19.28" height="9.24"/><rect class="cls-3" x="215.4" y="50.63" width="19.28" height="9.24"/><rect class="cls-3" x="235.64" y="50.63" width="19.28" height="9.24"/><rect class="cls-3" x="255.89" y="50.63" width="19.28" height="9.24"/><rect class="cls-3" x="276.14" y="50.63" width="19.28" height="9.24"/><rect class="cls-3" x="296.38" y="50.63" width="19.28" height="9.24"/><rect class="cls-3" x="316.63" y="50.63" width="4.27" height="9.24"/><rect class="cls-3" y="60.62" width="7.95" height="9.24"/><rect class="cls-3" x="9.03" y="60.62" width="19.29" height="9.24"/><rect class="cls-3" x="29.28" y="60.62" width="19.29" height="9.24"/><rect class="cls-3" x="49.54" y="60.62" width="19.29" height="9.24"/><rect class="cls-3" x="69.79" y="60.62" width="19.29" height="9.24"/><rect class="cls-3" x="90.04" y="60.62" width="19.29" height="9.24"/><rect class="cls-3" x="110.29" y="60.62" width="19.29" height="9.24"/><rect class="cls-3" x="130.54" y="60.62" width="19.29" height="9.24"/><rect class="cls-3" x="150.8" y="60.62" width="19.29" height="9.24"/><rect class="cls-3" x="171.05" y="60.62" width="19.29" height="9.24"/><rect class="cls-3" x="191.3" y="60.62" width="19.29" height="9.24"/><rect class="cls-3" x="211.55" y="60.62" width="19.29" height="9.24"/><rect class="cls-3" x="231.81" y="60.62" width="19.29" height="9.24"/><rect class="cls-3" x="252.06" y="60.62" width="19.29" height="9.24"/><rect class="cls-3" x="272.31" y="60.62" width="19.29" height="9.24"/><rect class="cls-3" x="292.56" y="60.62" width="19.29" height="9.24"/><rect class="cls-3" x="312.81" y="60.62" width="8.08" height="9.24"/><rect class="cls-3" y="70.63" width="11.86" height="9.24"/><rect class="cls-3" x="12.94" y="70.63" width="19.28" height="9.24"/><rect class="cls-3" x="33.19" y="70.63" width="19.28" height="9.24"/><rect class="cls-3" x="53.43" y="70.63" width="19.28" height="9.24"/><rect class="cls-3" x="73.68" y="70.63" width="19.28" height="9.24"/><rect class="cls-3" x="93.93" y="70.63" width="19.28" height="9.24"/><rect class="cls-3" x="114.17" y="70.63" width="19.28" height="9.24"/><rect class="cls-3" x="134.42" y="70.63" width="19.28" height="9.24"/><rect class="cls-3" x="154.66" y="70.63" width="19.28" height="9.24"/><rect class="cls-3" x="174.91" y="70.63" width="19.28" height="9.24"/><rect class="cls-3" x="195.15" y="70.63" width="19.28" height="9.24"/><rect class="cls-3" x="215.4" y="70.63" width="19.28" height="9.24"/><rect class="cls-3" x="235.64" y="70.63" width="19.28" height="9.24"/><rect class="cls-3" x="255.89" y="70.63" width="19.28" height="9.24"/><rect class="cls-3" x="276.14" y="70.63" width="19.28" height="9.24"/><rect class="cls-3" x="296.38" y="70.63" width="19.28" height="9.24"/><rect class="cls-3" x="316.63" y="70.63" width="4.27" height="9.24"/><rect class="cls-3" y="80.62" width="7.95" height="9.24"/><rect class="cls-3" x="9.03" y="80.62" width="19.29" height="9.24"/><rect class="cls-3" x="29.28" y="80.62" width="19.29" height="9.24"/><rect class="cls-3" x="49.54" y="80.62" width="19.29" height="9.24"/><rect class="cls-3" x="69.79" y="80.62" width="19.29" height="9.24"/><rect class="cls-3" x="90.04" y="80.62" width="19.29" height="9.24"/><rect class="cls-3" x="110.29" y="80.62" width="19.29" height="9.24"/><rect class="cls-3" x="130.54" y="80.62" width="19.29" height="9.24"/><rect class="cls-3" x="150.8" y="80.62" width="19.29" height="9.24"/><rect class="cls-3" x="171.05" y="80.62" width="19.29" height="9.24"/><rect class="cls-3" x="191.3" y="80.62" width="19.29" height="9.24"/><rect class="cls-3" x="211.55" y="80.62" width="19.29" height="9.24"/><rect class="cls-3" x="231.81" y="80.62" width="19.29" height="9.24"/><rect class="cls-3" x="252.06" y="80.62" width="19.29" height="9.24"/><rect class="cls-3" x="272.31" y="80.62" width="19.29" height="9.24"/><rect class="cls-3" x="292.56" y="80.62" width="19.29" height="9.24"/><rect class="cls-3" x="312.81" y="80.62" width="8.08" height="9.24"/><rect class="cls-3" y="90.64" width="11.87" height="9.24"/><rect class="cls-3" x="12.95" y="90.64" width="19.29" height="9.24"/><rect class="cls-3" x="33.2" y="90.64" width="19.29" height="9.24"/><rect class="cls-3" x="53.45" y="90.64" width="19.29" height="9.24"/><rect class="cls-3" x="73.7" y="90.64" width="19.29" height="9.24"/><rect class="cls-3" x="93.96" y="90.64" width="19.29" height="9.24"/><rect class="cls-3" x="114.21" y="90.64" width="19.29" height="9.24"/><rect class="cls-3" x="134.46" y="90.64" width="19.29" height="9.24"/><rect class="cls-3" x="154.71" y="90.64" width="19.29" height="9.24"/><rect class="cls-3" x="174.97" y="90.64" width="19.29" height="9.24"/><rect class="cls-3" x="195.22" y="90.64" width="19.29" height="9.24"/><rect class="cls-3" x="215.47" y="90.64" width="19.29" height="9.24"/><rect class="cls-3" x="235.72" y="90.64" width="19.29" height="9.24"/><rect class="cls-3" x="255.97" y="90.64" width="19.29" height="9.24"/><rect class="cls-3" x="276.23" y="90.64" width="19.29" height="9.24"/><rect class="cls-3" x="296.48" y="90.64" width="19.29" height="9.24"/><rect class="cls-3" x="316.73" y="90.64" width="4.16" height="9.24"/><rect class="cls-3" y="100.63" width="7.95" height="9.24"/><rect class="cls-3" x="9.03" y="100.63" width="19.29" height="9.24"/><rect class="cls-3" x="29.28" y="100.63" width="19.29" height="9.24"/><rect class="cls-3" x="49.54" y="100.63" width="19.29" height="9.24"/><rect class="cls-3" x="69.79" y="100.63" width="19.29" height="9.24"/><rect class="cls-3" x="90.04" y="100.63" width="19.29" height="9.24"/><rect class="cls-3" x="110.29" y="100.63" width="19.29" height="9.24"/><rect class="cls-3" x="130.54" y="100.63" width="19.29" height="9.24"/><rect class="cls-3" x="150.8" y="100.63" width="19.29" height="9.24"/><rect class="cls-3" x="171.05" y="100.63" width="19.29" height="9.24"/><rect class="cls-3" x="191.3" y="100.63" width="19.29" height="9.24"/><rect class="cls-3" x="211.55" y="100.63" width="19.29" height="9.24"/><rect class="cls-3" x="231.81" y="100.63" width="19.29" height="9.24"/><rect class="cls-3" x="252.06" y="100.63" width="19.29" height="9.24"/><rect class="cls-3" x="272.31" y="100.63" width="19.29" height="9.24"/><rect class="cls-3" x="292.56" y="100.63" width="19.29" height="9.24"/><rect class="cls-3" x="312.81" y="100.63" width="8.08" height="9.24"/><rect class="cls-3" y="110.64" width="11.87" height="9.24"/><rect class="cls-3" x="12.95" y="110.64" width="19.29" height="9.24"/><rect class="cls-3" x="33.2" y="110.64" width="19.29" height="9.24"/><rect class="cls-3" x="53.45" y="110.64" width="19.29" height="9.24"/><rect class="cls-3" x="73.7" y="110.64" width="19.29" height="9.24"/><rect class="cls-3" x="93.96" y="110.64" width="19.29" height="9.24"/><rect class="cls-3" x="114.21" y="110.64" width="19.29" height="9.24"/><rect class="cls-3" x="134.46" y="110.64" width="19.29" height="9.24"/><rect class="cls-3" x="154.71" y="110.64" width="19.29" height="9.24"/><rect class="cls-3" x="174.97" y="110.64" width="19.29" height="9.24"/><rect class="cls-3" x="195.22" y="110.64" width="19.29" height="9.24"/><rect class="cls-3" x="215.47" y="110.64" width="19.29" height="9.24"/><rect class="cls-3" x="235.72" y="110.64" width="19.29" height="9.24"/><rect class="cls-3" x="255.97" y="110.64" width="19.29" height="9.24"/><rect class="cls-3" x="276.23" y="110.64" width="19.29" height="9.24"/><rect class="cls-3" x="296.48" y="110.64" width="19.29" height="9.24"/><rect class="cls-3" x="316.69" y="110.64" width="4.2" height="9.24"/><rect class="cls-3" y="120.63" width="7.95" height="9.24"/><rect class="cls-3" x="9.03" y="120.63" width="19.29" height="9.24"/><rect class="cls-3" x="29.28" y="120.63" width="19.29" height="9.24"/><rect class="cls-3" x="49.54" y="120.63" width="19.29" height="9.24"/><rect class="cls-3" x="69.79" y="120.63" width="19.29" height="9.24"/><rect class="cls-3" x="90.04" y="120.63" width="19.29" height="9.24"/><rect class="cls-3" x="110.29" y="120.63" width="19.29" height="9.24"/><rect class="cls-3" x="130.54" y="120.63" width="19.29" height="9.24"/><rect class="cls-3" x="150.8" y="120.63" width="19.29" height="9.24"/><rect class="cls-3" x="171.05" y="120.63" width="19.29" height="9.24"/><rect class="cls-3" x="191.3" y="120.63" width="19.29" height="9.24"/><rect class="cls-3" x="211.55" y="120.63" width="19.29" height="9.24"/><rect class="cls-3" x="231.81" y="120.63" width="19.29" height="9.24"/><rect class="cls-3" x="252.06" y="120.63" width="19.29" height="9.24"/><rect class="cls-3" x="272.31" y="120.63" width="19.29" height="9.24"/><rect class="cls-3" x="292.56" y="120.63" width="19.29" height="9.24"/><rect class="cls-3" x="312.81" y="120.63" width="8.08" height="9.24"/><rect class="cls-3" y="130.64" width="11.87" height="9.24"/><rect class="cls-3" x="12.95" y="130.64" width="19.29" height="9.24"/><rect class="cls-3" x="33.2" y="130.64" width="19.29" height="9.24"/><rect class="cls-3" x="53.45" y="130.64" width="19.29" height="9.24"/><rect class="cls-3" x="73.7" y="130.64" width="19.29" height="9.24"/><rect class="cls-3" x="93.96" y="130.64" width="19.29" height="9.24"/><rect class="cls-3" x="114.21" y="130.64" width="19.29" height="9.24"/><rect class="cls-3" x="134.46" y="130.64" width="19.29" height="9.24"/><rect class="cls-3" x="154.71" y="130.64" width="19.29" height="9.24"/><rect class="cls-3" x="174.97" y="130.64" width="19.29" height="9.24"/><rect class="cls-3" x="195.22" y="130.64" width="19.29" height="9.24"/><rect class="cls-3" x="215.47" y="130.64" width="19.29" height="9.24"/><rect class="cls-3" x="235.72" y="130.64" width="19.29" height="9.24"/><rect class="cls-3" x="255.97" y="130.64" width="19.29" height="9.24"/><rect class="cls-3" x="276.23" y="130.64" width="19.29" height="9.24"/><rect class="cls-3" x="296.48" y="130.64" width="19.29" height="9.24"/><rect class="cls-3" x="316.73" y="130.64" width="4.16" height="9.24"/><rect class="cls-3" y="140.63" width="7.95" height="9.24"/><rect class="cls-3" x="9.03" y="140.63" width="19.29" height="9.24"/><rect class="cls-3" x="29.28" y="140.63" width="19.29" height="9.24"/><rect class="cls-3" x="49.54" y="140.63" width="19.29" height="9.24"/><rect class="cls-3" x="69.79" y="140.63" width="19.29" height="9.24"/><rect class="cls-3" x="90.04" y="140.63" width="19.29" height="9.24"/><rect class="cls-3" x="110.29" y="140.63" width="19.29" height="9.24"/><rect class="cls-3" x="130.54" y="140.63" width="19.29" height="9.24"/><rect class="cls-3" x="150.8" y="140.63" width="19.29" height="9.24"/><rect class="cls-3" x="171.05" y="140.63" width="19.29" height="9.24"/><rect class="cls-3" x="191.3" y="140.63" width="19.29" height="9.24"/><rect class="cls-3" x="211.55" y="140.63" width="19.29" height="9.24"/><rect class="cls-3" x="231.81" y="140.63" width="19.29" height="9.24"/><rect class="cls-3" x="252.06" y="140.63" width="19.29" height="9.24"/><rect class="cls-3" x="272.31" y="140.63" width="19.29" height="9.24"/><rect class="cls-3" x="292.56" y="140.63" width="19.29" height="9.24"/><rect class="cls-3" x="312.81" y="140.63" width="8.08" height="9.24"/><rect class="cls-3" y="150.65" width="11.87" height="9.24"/><rect class="cls-3" x="12.95" y="150.65" width="19.29" height="9.24"/><rect class="cls-3" x="33.2" y="150.65" width="19.29" height="9.24"/><rect class="cls-3" x="53.45" y="150.65" width="19.29" height="9.24"/><rect class="cls-3" x="73.7" y="150.65" width="19.29" height="9.24"/><rect class="cls-3" x="93.96" y="150.65" width="19.29" height="9.24"/><rect class="cls-3" x="114.21" y="150.65" width="19.29" height="9.24"/><rect class="cls-3" x="134.46" y="150.65" width="19.29" height="9.24"/><rect class="cls-3" x="154.71" y="150.65" width="19.29" height="9.24"/><rect class="cls-3" x="174.97" y="150.65" width="19.29" height="9.24"/><rect class="cls-3" x="195.22" y="150.65" width="19.29" height="9.24"/><rect class="cls-3" x="215.47" y="150.65" width="19.29" height="9.24"/><rect class="cls-3" x="235.72" y="150.65" width="19.29" height="9.24"/><rect class="cls-3" x="255.97" y="150.65" width="19.29" height="9.24"/><rect class="cls-3" x="276.23" y="150.65" width="19.29" height="9.24"/><rect class="cls-3" x="296.48" y="150.65" width="19.29" height="9.24"/><rect class="cls-3" x="316.73" y="150.65" width="4.16" height="9.24"/><rect class="cls-3" y="160.64" width="7.95" height="9.24"/><rect class="cls-3" x="9.03" y="160.64" width="19.29" height="9.24"/><rect class="cls-3" x="29.28" y="160.64" width="19.29" height="9.24"/><rect class="cls-3" x="49.54" y="160.64" width="19.29" height="9.24"/><rect class="cls-3" x="69.79" y="160.64" width="19.29" height="9.24"/><rect class="cls-3" x="90.04" y="160.64" width="19.29" height="9.24"/><rect class="cls-3" x="110.29" y="160.64" width="19.29" height="9.24"/><rect class="cls-3" x="130.54" y="160.64" width="19.29" height="9.24"/><rect class="cls-3" x="150.8" y="160.64" width="19.29" height="9.24"/><rect class="cls-3" x="171.05" y="160.64" width="19.29" height="9.24"/><rect class="cls-3" x="191.3" y="160.64" width="19.29" height="9.24"/><rect class="cls-3" x="211.55" y="160.64" width="19.29" height="9.24"/><rect class="cls-3" x="231.81" y="160.64" width="19.29" height="9.24"/><rect class="cls-3" x="252.06" y="160.64" width="19.29" height="9.24"/><rect class="cls-3" x="272.31" y="160.64" width="19.29" height="9.24"/><rect class="cls-3" x="292.56" y="160.64" width="19.29" height="9.24"/><rect class="cls-3" x="312.81" y="160.64" width="8.08" height="9.24"/><rect class="cls-3" y="170.65" width="11.87" height="9.24"/><rect class="cls-3" x="12.95" y="170.65" width="19.29" height="9.24"/><rect class="cls-3" x="33.2" y="170.65" width="19.29" height="9.24"/><rect class="cls-3" x="53.45" y="170.65" width="19.29" height="9.24"/><rect class="cls-3" x="73.7" y="170.65" width="19.29" height="9.24"/><rect class="cls-3" x="93.96" y="170.65" width="19.29" height="9.24"/><rect class="cls-3" x="114.21" y="170.65" width="19.29" height="9.24"/><rect class="cls-3" x="134.46" y="170.65" width="19.29" height="9.24"/><rect class="cls-3" x="154.71" y="170.65" width="19.29" height="9.24"/><rect class="cls-3" x="174.97" y="170.65" width="19.29" height="9.24"/><rect class="cls-3" x="195.22" y="170.65" width="19.29" height="9.24"/><rect class="cls-3" x="215.47" y="170.65" width="19.29" height="9.24"/><rect class="cls-3" x="235.72" y="170.65" width="19.29" height="9.24"/><rect class="cls-3" x="255.97" y="170.65" width="19.29" height="9.24"/><rect class="cls-3" x="276.23" y="170.65" width="19.29" height="9.24"/><rect class="cls-3" x="296.48" y="170.65" width="19.29" height="9.24"/><rect class="cls-3" x="316.73" y="170.65" width="4.16" height="9.24"/><rect class="cls-3" y="180.64" width="7.95" height="9.24"/><rect class="cls-3" x="9.03" y="180.64" width="19.29" height="9.24"/><rect class="cls-3" x="29.28" y="180.64" width="19.29" height="9.24"/><rect class="cls-3" x="49.54" y="180.64" width="19.29" height="9.24"/><rect class="cls-3" x="69.79" y="180.64" width="19.29" height="9.24"/><rect class="cls-3" x="90.04" y="180.64" width="19.29" height="9.24"/><rect class="cls-3" x="110.29" y="180.64" width="19.29" height="9.24"/><rect class="cls-3" x="130.54" y="180.64" width="19.29" height="9.24"/><rect class="cls-3" x="150.8" y="180.64" width="19.29" height="9.24"/><rect class="cls-3" x="171.05" y="180.64" width="19.29" height="9.24"/><rect class="cls-3" x="191.3" y="180.64" width="19.29" height="9.24"/><rect class="cls-3" x="211.55" y="180.64" width="19.29" height="9.24"/><rect class="cls-3" x="231.81" y="180.64" width="19.29" height="9.24"/><rect class="cls-3" x="252.06" y="180.64" width="19.29" height="9.24"/><rect class="cls-3" x="272.31" y="180.64" width="19.29" height="9.24"/><rect class="cls-3" x="292.56" y="180.64" width="19.29" height="9.24"/><rect class="cls-3" x="312.81" y="180.64" width="8.08" height="9.24"/><rect class="cls-3" y="190.65" width="11.87" height="9.24"/><rect class="cls-3" x="12.95" y="190.65" width="19.29" height="9.24"/><rect class="cls-3" x="33.2" y="190.65" width="19.29" height="9.24"/><rect class="cls-3" x="53.45" y="190.65" width="19.29" height="9.24"/><rect class="cls-3" x="73.7" y="190.65" width="19.29" height="9.24"/><rect class="cls-3" x="93.96" y="190.65" width="19.29" height="9.24"/><rect class="cls-3" x="114.21" y="190.65" width="19.29" height="9.24"/><rect class="cls-3" x="134.46" y="190.65" width="19.29" height="9.24"/><rect class="cls-3" x="154.71" y="190.65" width="19.29" height="9.24"/><rect class="cls-3" x="174.97" y="190.65" width="19.29" height="9.24"/><rect class="cls-3" x="195.22" y="190.65" width="19.29" height="9.24"/><rect class="cls-3" x="215.47" y="190.65" width="19.29" height="9.24"/><rect class="cls-3" x="235.72" y="190.65" width="19.29" height="9.24"/><rect class="cls-3" x="255.97" y="190.65" width="19.29" height="9.24"/><rect class="cls-3" x="276.23" y="190.65" width="19.29" height="9.24"/><rect class="cls-3" x="296.48" y="190.65" width="19.29" height="9.24"/><rect class="cls-3" x="316.73" y="190.65" width="4.16" height="9.24"/></g><rect class="cls-4" y="200.75" width="320.89" height="26.14"/><path class="cls-5" d="M159.47,27.84h0c0,.47-1.84.85-4.11.85V13.89c-.45,0-.88,0-1.27-.05l-.24,14.8c-1.52-.13-2.6-.43-2.6-.79h0L152,13.19h6.75Z" transform="translate(12.38 14.89)"/><path class="cls-5" d="M164.48,31.66a18.29,18.29,0,0,1-9.6,2.25l.48-5.21c-.54,0-1.05,0-1.51-.06v.06l-2.09,4.9a22.29,22.29,0,0,1-5.25-1.52l4.74-4.23h8.22Z" transform="translate(12.38 14.89)"/><path class="cls-6" d="M158.73,13.19c0,.39-1.51.7-3.37.7-.45,0-.88,0-1.27-.05-1.24-.11-2.11-.36-2.11-.65s1.51-.7,3.38-.7S158.73,12.8,158.73,13.19Z" transform="translate(12.38 14.89)"/><path class="cls-7" d="M155.36,13.89V28.7c-.54,0-1.05,0-1.51-.06l.24-14.8C154.48,13.87,154.91,13.89,155.36,13.89Z" transform="translate(12.38 14.89)"/><path class="cls-7" d="M155.36,28.7l-.48,5.21a22.41,22.41,0,0,1-3.12-.31l2.09-4.9v-.06C154.31,28.68,154.82,28.7,155.36,28.7Z" transform="translate(12.38 14.89)"/><path class="cls-8" d="M155.06-14.89V13.28a.61.61,0,0,0,.74,0V-14.89Z" transform="translate(12.38 14.89)"/><path class="cls-5" d="M231.23,27.84h0c0,.47-1.84.85-4.11.85V13.89c-.45,0-.88,0-1.27-.05l-.24,14.8c-1.52-.13-2.6-.43-2.6-.79h0l.73-14.65h6.75Z" transform="translate(12.38 14.89)"/><path class="cls-5" d="M236.24,31.66a18.3,18.3,0,0,1-9.61,2.25l.49-5.21c-.54,0-1.05,0-1.51-.06v.06l-2.09,4.9a22.29,22.29,0,0,1-5.25-1.52L223,27.85h8.22Z" transform="translate(12.38 14.89)"/><path class="cls-6" d="M230.49,13.19c0,.39-1.51.7-3.37.7-.45,0-.88,0-1.27-.05-1.24-.11-2.11-.36-2.11-.65s1.51-.7,3.38-.7S230.49,12.8,230.49,13.19Z" transform="translate(12.38 14.89)"/><path class="cls-7" d="M227.12,13.89V28.7c-.54,0-1.05,0-1.51-.06l.24-14.8C226.24,13.87,226.67,13.89,227.12,13.89Z" transform="translate(12.38 14.89)"/><path class="cls-7" d="M227.12,28.7l-.49,5.21a22.42,22.42,0,0,1-3.11-.31l2.09-4.9v-.06C226.07,28.68,226.58,28.7,227.12,28.7Z" transform="translate(12.38 14.89)"/><path class="cls-8" d="M226.82-14.89V13.28a.61.61,0,0,0,.74,0V-14.89Z" transform="translate(12.38 14.89)"/><path class="cls-5" d="M280.12,27.84h0c0,.47-1.84.85-4.11.85V13.89c-.45,0-.88,0-1.27-.05l-.24,14.8c-1.52-.13-2.6-.43-2.6-.79h0l.73-14.65h6.75Z" transform="translate(12.38 14.89)"/><path class="cls-5" d="M285.13,31.66a18.3,18.3,0,0,1-9.61,2.25L276,28.7c-.54,0-1.05,0-1.51-.06v.06l-2.09,4.9a22.29,22.29,0,0,1-5.25-1.52l4.74-4.23h8.22Z" transform="translate(12.38 14.89)"/><path class="cls-6" d="M279.38,13.19c0,.39-1.51.7-3.37.7-.45,0-.88,0-1.27-.05-1.24-.11-2.11-.36-2.11-.65s1.51-.7,3.38-.7S279.38,12.8,279.38,13.19Z" transform="translate(12.38 14.89)"/><path class="cls-7" d="M276,13.89V28.7c-.54,0-1.05,0-1.51-.06l.24-14.8C275.13,13.87,275.56,13.89,276,13.89Z" transform="translate(12.38 14.89)"/><path class="cls-7" d="M276,28.7l-.49,5.21a22.42,22.42,0,0,1-3.11-.31l2.09-4.9v-.06C275,28.68,275.47,28.7,276,28.7Z" transform="translate(12.38 14.89)"/><path class="cls-8" d="M275.71-14.89V13.28a.61.61,0,0,0,.74,0V-14.89Z" transform="translate(12.38 14.89)"/><rect class="cls-9" x="204.86" y="68.86" width="100.29" height="63.17"/><polygon class="cls-9" points="218.12 68.86 262.39 132.03 204.86 132.03 204.86 68.86 218.12 68.86"/><polygon class="cls-10" points="288.85 132.03 262.39 132.03 218.12 68.86 244.58 68.86 288.85 132.03"/><polygon class="cls-10" points="305.15 98.38 305.15 132.03 302.28 132.03 258.01 68.86 284.47 68.86 305.15 98.38"/><path class="cls-4" d="M189.21,50.69v69.72H296.05V50.69Zm103.56,66.45H192.48V54H292.77Z" transform="translate(12.38 14.89)"/><polygon class="cls-9" points="258.01 68.86 302.28 132.03 288.85 132.03 244.58 68.86 258.01 68.86"/><polygon class="cls-9" points="305.15 68.86 305.15 98.38 284.47 68.86 305.15 68.86"/><rect class="cls-11" x="204.86" y="68.71" width="100.29" height="2.31"/><rect class="cls-12" x="204.86" y="68.71" width="100.29" height="0.66"/><rect class="cls-11" x="204.86" y="72.4" width="100.29" height="2.31"/><rect class="cls-11" x="204.86" y="76.25" width="100.29" height="2.31"/><rect class="cls-11" x="208.08" y="77.4" width="0.66" height="41.63"/><polygon class="cls-11" points="209.07 123.32 207.75 123.32 208.08 119.03 208.74 119.03 209.07 123.32"/><path class="cls-13" d="M182.62,177.58l.55,11.72s22.42,4.21,4.58-2.72l-.61-7.44Z" transform="translate(12.38 14.89)"/><path class="cls-14" d="M183,186.5l-.42-8.92,4.52,1.56.51,6.23C186.12,185.8,184.58,186.17,183,186.5Z" transform="translate(12.38 14.89)"/><path class="cls-15" d="M190.13,189.71a13.36,13.36,0,0,1,1.1-1.74c2.65,1.19,3.55,1.88,3.39,2.24-.2,1.43-11.46-.82-11.46-.82l0-.79C183.71,188.71,187.14,189.37,190.13,189.71Z" transform="translate(12.38 14.89)"/><path class="cls-13" d="M201.54,177.62l.55,11.72s22.42,4.2,4.58-2.72l-.61-7.45Z" transform="translate(12.38 14.89)"/><path class="cls-14" d="M202,186.54l-.42-8.92,4.52,1.55.51,6.23C205,185.84,203.51,186.21,202,186.54Z" transform="translate(12.38 14.89)"/><path class="cls-15" d="M209.06,189.75a12.3,12.3,0,0,1,1.09-1.74c2.65,1.18,3.55,1.87,3.4,2.24-.21,1.43-11.46-.83-11.46-.83l0-.79C202.63,188.75,206.06,189.41,209.06,189.75Z" transform="translate(12.38 14.89)"/><rect class="cls-13" x="193.05" y="148.98" width="27.19" height="17.35"/><path class="cls-13" d="M195.15,139.09l4,41.13c0,.34.4.61.88.61h7.3c.48,0,.88-.28.88-.63l-.52-41.42Z" transform="translate(12.38 14.89)"/><path class="cls-13" d="M195.34,138.58l-4.56,42.14c0,.35-.47.63-1,.63l-8.4,0c-.56,0-1-.29-1-.65l.6-42.42Z" transform="translate(12.38 14.89)"/><rect class="cls-16" x="193.46" y="87.46" width="8.12" height="15.98" transform="translate(26.43 -9.92) rotate(7.45)"/><path class="cls-17" d="M215.53,126.37a.54.54,0,0,1-.64.47l-1.41-.29a.27.27,0,0,0-.28.42,1.94,1.94,0,0,0,.81.57l3.63,1.13a.51.51,0,0,1,.18.09.53.53,0,0,1,.15.57.7.7,0,0,1-.78.31l-2.52-.78a.25.25,0,0,0-.3.12l0,.07a.26.26,0,0,0,.07.35l2.75,1.82a.53.53,0,1,1-.57.9l-2.67-1.76a.34.34,0,0,0-.45.06.38.38,0,0,0,0,.55l2.1,1.94a.55.55,0,0,1,.08.73.53.53,0,0,1-.78.08l-2.19-2a.91.91,0,0,0-.53-.23.29.29,0,0,0-.26.44l.76,1.1a.55.55,0,0,1-.08.73.51.51,0,0,1-.77-.08l-1.72-2.37c-.46-.56-.85-1.08-1.18-1.55s-.59-.9-.79-1.27L206,125.63l3.94-3.09,1.62,2.41h0a7.61,7.61,0,0,1,2.07.54l1.49.3A.54.54,0,0,1,215.53,126.37Z" transform="translate(12.38 14.89)"/><path class="cls-18" d="M207.71,116l0-.15.76-6.52s4-12.08,1-13.49a5.54,5.54,0,0,0-7.17,2.38c-2.24,3.71-2.92,16.73-2.75,19h0Z" transform="translate(12.38 14.89)"/><path class="cls-18" d="M205.46,126.56c.57.48,5.43-2.25,5.73-3.26s-4.48-8.51-5.07-9.44l-6.53,3.87A79.88,79.88,0,0,0,205.46,126.56Z" transform="translate(12.38 14.89)"/><ellipse class="cls-18" cx="202.88" cy="115.86" rx="3.76" ry="2.64" transform="translate(-18.19 139.93) rotate(-31.98)"/><path class="cls-15" d="M197.55,99.88a4.51,4.51,0,0,0,4.16-5.12l6.62.79a147.08,147.08,0,0,1,.54,19.4c-.13,3.32-.37,6.49-.68,9.5-.05,3.55-.11,7.11-.16,10.67l-27.24-.57c-.81-15.81-.95-28-.67-34,.09-2,.3-5.55,2.77-7.24,1.71-1.18,4.05-.87,5.35-.71a12.41,12.41,0,0,1,5.31,1.92A4.51,4.51,0,0,0,197.55,99.88Z" transform="translate(12.38 14.89)"/><path class="cls-17" d="M187.77,129.2a.56.56,0,0,1-.76.24l-1.24-.73a.27.27,0,0,0-.4.3,2,2,0,0,0,.58.81l3.08,2.23a.66.66,0,0,1,.14.15.53.53,0,0,1,0,.58.72.72,0,0,1-.85.05l-2.13-1.56a.27.27,0,0,0-.32,0l-.06.06a.24.24,0,0,0,0,.35l2,2.61a.53.53,0,1,1-.83.67l-2-2.53a.34.34,0,0,0-.44-.09.39.39,0,0,0-.17.53l1.37,2.52a.55.55,0,0,1-.16.71.54.54,0,0,1-.77-.17l-1.42-2.62a.88.88,0,0,0-.42-.39.28.28,0,0,0-.39.33l.36,1.29a.54.54,0,0,1-.31.66.52.52,0,0,1-.71-.33L181,132.1c-.26-.68-.46-1.3-.62-1.85s-.27-1-.35-1.45l-1.1-3.38,4.73-1.66.75,2.81h0a8.18,8.18,0,0,1,1.79,1.18l1.31.76A.55.55,0,0,1,187.77,129.2Z" transform="translate(12.38 14.89)"/><path class="cls-18" d="M181.75,112.62c0-.1,0-.15,0-.15l2.45-6.09s7-10.61,4.53-12.74a5.55,5.55,0,0,0-7.55.4c-3.14,3-7.22,15.37-7.65,17.61h0Z" transform="translate(12.38 14.89)"/><path class="cls-18" d="M178.17,126.72c.5.85,5.93-.42,6.41-1.55s-3.08-12.71-3.51-14.15l-7.34,2C174.18,115.22,177.68,125.86,178.17,126.72Z" transform="translate(12.38 14.89)"/><ellipse class="cls-18" cx="177.41" cy="112.09" rx="3.76" ry="3.59" transform="translate(-12.36 70.65) rotate(-16.71)"/><path class="cls-14" d="M197.84,68.35c5.69,1.81,8.19,1.53,9.72,3.94.78,1.24.88,2.65,1.06,5.48a17.55,17.55,0,0,1-.74,7.65c-.54,1.42-1.9,5-5.35,6.56-4.25,1.88-9.1-.57-11.63-2.81-3.4-3-4.05-6.93-4.74-11.14-.42-2.53-1.86-11.22,1.56-13C189.55,64,190.68,66.07,197.84,68.35Z" transform="translate(12.38 14.89)"/><path class="cls-13" d="M210.78,78.48c.7-.24.62-2.48.28-4a10.93,10.93,0,0,0-4.64-6.51,8.79,8.79,0,0,1,3.14,1.54c1.8,1.39,2.22,2.89,2.46,2.79.45-.18-.12-5.69-3.81-8a9.1,9.1,0,0,0-3.05-1c-5.26-1.19-7.89-1.78-9.19-1.78s-6,.25-11.35,5.63a35.23,35.23,0,0,0,.14,9.8c.54,3.43,1.12,6.82,3.85,9.37a10.64,10.64,0,0,0,1.46,1.13l1.3-1.22A22.79,22.79,0,0,1,188.84,76c0-1.71.2-4.84,1-5,.49-.08.75,1,1.69,2,2.68,2.87,8.15,2.44,8.44,1.5.14-.47-1-.89-.89-1.69s1.33-1.31,2.33-1.36a3.93,3.93,0,0,1,2.31.7C207.46,74.64,209.75,78.83,210.78,78.48Z" transform="translate(12.38 14.89)"/><ellipse class="cls-14" cx="201.79" cy="95.49" rx="2.18" ry="2.58"/><path class="cls-19" d="M189.28,79.7a1.33,1.33,0,0,0-.93,1.74,1.25,1.25,0,0,0,1.4.51" transform="translate(12.38 14.89)"/><path class="cls-20" d="M201.61,76.72a8.68,8.68,0,0,1,1.34-.43,10.46,10.46,0,0,1,1.38-.23,9.59,9.59,0,0,1,1.42,0c.92,0,1.23,0,1.43.26s.22.32.16.4-.31,0-.34,0c-.32,0-.75,0-1.25,0s-.75,0-1.28.07-1,.07-1.29.11c-.5.08-.91.18-1.22.26-.06,0-.55.21-.63.08S201.43,76.8,201.61,76.72Z" transform="translate(12.38 14.89)"/><path class="cls-20" d="M197.72,78.81a.94.94,0,1,1-1.81,0c0-.66.4-1.19.9-1.19A1.08,1.08,0,0,1,197.72,78.81Z" transform="translate(12.38 14.89)"/><path class="cls-20" d="M205.41,78.61c0,.66-.4,1.19-.9,1.19a1.23,1.23,0,0,1,0-2.38C205,77.42,205.41,78,205.41,78.61Z" transform="translate(12.38 14.89)"/><path class="cls-20" d="M194.05,76.35a8.37,8.37,0,0,1,1.37-.29,10.85,10.85,0,0,1,1.4-.1,9.55,9.55,0,0,1,1.41.1c.92.14,1.22.15,1.4.4s.19.34.12.41-.3,0-.33-.05c-.32,0-.75-.09-1.25-.12l-1.28-.06c-.64,0-1,0-1.3,0a8.75,8.75,0,0,0-1.24.14s-.56.15-.63,0S193.86,76.41,194.05,76.35Z" transform="translate(12.38 14.89)"/><path class="cls-21" d="M200.55,84.53a.22.22,0,0,1,0-.44h1a1.26,1.26,0,0,0,1.08-1.39v-.11c0-.28-.17-.51-.37-.51h0a1.17,1.17,0,0,1-.9-.45,1.6,1.6,0,0,1-.35-1V79a.22.22,0,0,1,.22-.23.22.22,0,0,1,.22.23v1.62a1.21,1.21,0,0,0,.25.75.76.76,0,0,0,.56.29h0a.9.9,0,0,1,.82,1v.11a1.71,1.71,0,0,1-1.52,1.84Z" transform="translate(12.38 14.89)"/><path class="cls-22" d="M200.59,87a2.22,2.22,0,0,1-2.21.79c-1-.26-1.53-1.35-1.44-1.45s.51.49,1.38.75A5.39,5.39,0,0,0,200.59,87Z" transform="translate(12.38 14.89)"/><path class="cls-23" d="M38.24,146.64l-1.33-2.52H17.77l-1.33,2.52a.28.28,0,0,0-.1.18c0,.78,4.92,1.41,11,1.41s11-.63,11-1.41A.28.28,0,0,0,38.24,146.64Z" transform="translate(12.38 14.89)"/><path class="cls-23" d="M37.52,105.73,53.21,98.4s-4.46-7.83-11.36-4.89C33.86,96.92,37.52,105.73,37.52,105.73Z" transform="translate(12.38 14.89)"/><path class="cls-5" d="M40.1,94.81s4.08-1.75,10.38,4.86l-3.9,1.83s-2.13-4.75-6.73-5.21Z" transform="translate(12.38 14.89)"/><path class="cls-24" d="M31.36,93.59l.36,2.87,5.75,2.83s3-2.16,2.6-4.81l-5.65-3-2.5.81Z" transform="translate(12.38 14.89)"/><polygon class="cls-24" points="43.21 106.42 44.3 107.23 43.74 108.48 42.43 108.02 43.21 106.42"/><polygon class="cls-25" points="39.05 158.38 19.64 133.5 39.78 111.19 40.54 111.87 20.97 133.55 39.85 157.75 39.05 158.38"/><polygon class="cls-25" points="42.03 158.11 22.59 133.37 41.52 112.98 42.27 113.67 23.92 133.42 42.83 157.48 42.03 158.11"/><path class="cls-24" d="M26.13,98.1c-.16-.83-.84-3-2.09-3.13a8.32,8.32,0,0,0-2.33.47c-1.72.48-3.49,1-4.35.18a1.81,1.81,0,0,1-.4-1.77,3.68,3.68,0,0,1,2-2.59c2.61-1.41,7.33-1.05,12,.92l-.32.75c-4.46-1.88-8.9-2.25-11.31-1a2.87,2.87,0,0,0-1.57,2c-.09.51,0,.86.14,1,.54.48,2.3,0,3.59-.37a8.77,8.77,0,0,1,2.63-.49c2.11.19,2.78,3.64,2.81,3.79Z" transform="translate(12.38 14.89)"/><polygon class="cls-24" points="38.19 112.95 40.27 114.27 38.55 115.66 39.66 116.97 44.5 114.57 39.78 111.19 38.19 112.95"/><polygon class="cls-24" points="43.08 113.55 43.34 115.18 47.13 115.18 47.13 113.85 43.08 113.55"/><polygon class="cls-24" points="47 112.12 46.11 114.36 47.13 115.18 48.4 112.92 47 112.12"/><path class="cls-24" d="M36.91,144.12c0,.68-4.28,1.23-9.57,1.23s-9.57-.55-9.57-1.23,4.28-1.22,9.57-1.22S36.91,143.45,36.91,144.12Z" transform="translate(12.38 14.89)"/><path class="cls-26" d="M28.3,139.64l-4.15.26-1.95,4.27a17.79,17.79,0,0,0,9.52,0Z" transform="translate(12.38 14.89)"/><polygon class="cls-25" points="23.29 130.16 22.91 131.06 26.75 130.05 27.2 129.24 23.29 130.16"/><circle class="cls-27" cx="41.76" cy="114.08" r="0.45"/><path class="cls-27" d="M9,116.3c.12.07,1.28,1.19,1.28,1.19l-1.14,1.12,1.39,1.85-1.37.83-2.23-2.68Z" transform="translate(12.38 14.89)"/><path class="cls-27" d="M11.77,116.17c.12.06,1.27,1.18,1.27,1.18l-1.13,1.13,1.39,1.85-1.38.83L9.7,118.48Z" transform="translate(12.38 14.89)"/><path class="cls-28" d="M11.69,118.6a.56.56,0,1,1-.56-.56A.56.56,0,0,1,11.69,118.6Z" transform="translate(12.38 14.89)"/><path class="cls-28" d="M8.73,118.66a.56.56,0,1,1-.56-.56A.56.56,0,0,1,8.73,118.66Z" transform="translate(12.38 14.89)"/><path class="cls-29" d="M277.22,153.47a15.19,15.19,0,0,0-2.14-1.62,14.3,14.3,0,0,0-5.15-2h0a8.35,8.35,0,0,0,4.63,3.18A10.52,10.52,0,0,0,277.22,153.47Z" transform="translate(12.38 14.89)"/><path class="cls-29" d="M264.41,153.07l.69.06a14.56,14.56,0,0,0,1.74,0,9.19,9.19,0,0,0,2.35-.5,4.82,4.82,0,0,0,2.26-1.62h0s0,0,0,0a23.19,23.19,0,0,0-2.65.25,12.2,12.2,0,0,0-2.25.64,9.44,9.44,0,0,0-1.57.79A5.21,5.21,0,0,0,264.41,153.07Z" transform="translate(12.38 14.89)"/><path class="cls-29" d="M280,145.63a15.08,15.08,0,0,0-3.36,1.12,13.44,13.44,0,0,0-5.76,4.65s0,0,0,0h0a28.85,28.85,0,0,0,6.39-3.58A32.69,32.69,0,0,0,280,145.63Z" transform="translate(12.38 14.89)"/><path class="cls-29" d="M278.67,151a6.6,6.6,0,0,0-2.14-.66,6.07,6.07,0,0,0-4.47,1h0s0,0,0,0a8.54,8.54,0,0,0,4.5.27A12.22,12.22,0,0,0,278.67,151Z" transform="translate(12.38 14.89)"/><path class="cls-29" d="M275.43,138.72a9.82,9.82,0,0,0-.61,1.05,20.87,20.87,0,0,0-1.23,2.87c-.43,1.19-.83,2.6-1.22,4.05l-.62,2.23a12.92,12.92,0,0,1-.79,2.23s0,0,0,0l0,0a6,6,0,0,0,1.68-1.85,12.28,12.28,0,0,0,1.08-2.18,22.77,22.77,0,0,0,1.08-4.17c.22-1.24.35-2.3.46-3.05Z" transform="translate(12.38 14.89)"/><path class="cls-29" d="M265,139.26a21.2,21.2,0,0,0,1.34,4.06,20.31,20.31,0,0,0,5.22,7.3s0,0,0,0,0,0,0,0a39.63,39.63,0,0,0-4.13-7.89C266.07,140.64,265,139.26,265,139.26Z" transform="translate(12.38 14.89)"/><path class="cls-29" d="M271.13,150.49A19.87,19.87,0,0,0,271,147a17.79,17.79,0,0,0-2.24-7s0,0,0,0,0,0,0,0a18.14,18.14,0,0,0,1,7.25A20.7,20.7,0,0,0,271.13,150.49Z" transform="translate(12.38 14.89)"/><path class="cls-29" d="M271.57,150.58a17.46,17.46,0,0,0-2.7-1.76,20,20,0,0,0-6.35-2.2h0l0,0a12.45,12.45,0,0,0,5.88,3.35A16.84,16.84,0,0,0,271.57,150.58Z" transform="translate(12.38 14.89)"/><path class="cls-29" d="M271.06,131.73s-.28,2.36-.62,5.74a48.53,48.53,0,0,0-.28,5.78,22,22,0,0,0,1,6.41s0,.05,0,0v0c.15-2.19.31-4.33.43-6.4s.16-4,.11-5.75a32.32,32.32,0,0,0-.35-4.18C271.2,132.3,271.06,131.73,271.06,131.73Z" transform="translate(12.38 14.89)"/><path class="cls-30" d="M262.29,149.85a29.38,29.38,0,0,0,3,.82,23.25,23.25,0,0,0,6.48.51s0,0,0,0h0a10.56,10.56,0,0,0-6.36-1.75A11.36,11.36,0,0,0,262.29,149.85Z" transform="translate(12.38 14.89)"/><path class="cls-30" d="M273.12,135s-.55,2.15-1.07,5.28a55.35,55.35,0,0,0-.84,11.33s0,.06,0,0,0,0,0,0a35,35,0,0,0,2.09-11.21A37.07,37.07,0,0,0,273.12,135Z" transform="translate(12.38 14.89)"/><path class="cls-30" d="M263.6,143.73a4.17,4.17,0,0,0,.44.84,13.17,13.17,0,0,0,1.49,1.93,16.45,16.45,0,0,0,5.69,4.07h0s0,0,0,0a16.48,16.48,0,0,0-4.86-5c-.8-.55-1.5-1-2-1.3S263.6,143.73,263.6,143.73Z" transform="translate(12.38 14.89)"/><path class="cls-30" d="M278.09,142a16.47,16.47,0,0,0-2.65,2.33,15.48,15.48,0,0,0-3.71,6.39s0,0,0,0,0,0,0,0a21.91,21.91,0,0,0,4.71-5.63A28,28,0,0,0,278.09,142Z" transform="translate(12.38 14.89)"/><path class="cls-30" d="M268.32,133.87s-.09.56-.18,1.52a31.67,31.67,0,0,0-.08,4,30,30,0,0,0,.73,5.44,26.78,26.78,0,0,0,.85,2.92c.35,1,.73,1.91,1.16,2.86l0,0s0,0,0-.05a48.38,48.38,0,0,0-.63-6c-.29-1.92-.6-3.74-.87-5.31s-.53-2.91-.7-3.85Z" transform="translate(12.38 14.89)"/><path class="cls-30" d="M279.4,149.08a5.7,5.7,0,0,0-.69-.15,8.65,8.65,0,0,0-1.79-.08,8.2,8.2,0,0,0-4.78,1.76h0a9.3,9.3,0,0,0,5-.53,15.37,15.37,0,0,0,1.6-.69Z" transform="translate(12.38 14.89)"/><path class="cls-30" d="M271.79,151.18c-.08,0-1.26,3.07-3.85,3.73,0,0,1-3.34,2.88-3.93l-.45-1s1,.22,1.12-.2,1.26.63,1.47.69S271.79,151.18,271.79,151.18Z" transform="translate(12.38 14.89)"/><polygon class="cls-31" points="282.9 165.81 281.44 197.53 284.97 197.53 284.09 165.81 282.9 165.81"/><path class="cls-32" d="M265.47,147.76v.36a11.26,11.26,0,0,1-1.71-.43v-.37A14.8,14.8,0,0,0,265.47,147.76Z" transform="translate(12.38 14.89)"/><path class="cls-33" d="M257.92,141.23s.27.11.75.26,1.15.32,1.93.48,1.66.32,2.59.46l3,.43h0s0,0,0,0a5.3,5.3,0,0,0-2.67-1.81,8,8,0,0,0-2.83-.33,11.38,11.38,0,0,0-2,.3A7.68,7.68,0,0,0,257.92,141.23Z" transform="translate(12.38 14.89)"/><path class="cls-33" d="M273.82,129s-.39.36-1,1a27.41,27.41,0,0,0-2.34,2.91,24.71,24.71,0,0,0-4.23,10s0,.05,0,0l0,0a93.51,93.51,0,0,0,5.31-9.37l1.64-3.29C273.61,129.44,273.82,129,273.82,129Z" transform="translate(12.38 14.89)"/><path class="cls-33" d="M274,139.74s-4.75,0-8,3c0,0,0,0,0,0h0C270.47,142.89,274,139.74,274,139.74Z" transform="translate(12.38 14.89)"/><path class="cls-33" d="M267.8,122.8l-.31,1.76c-.2,1.11-.54,2.66-.92,4.52a35.71,35.71,0,0,0-.82,6.44,30.85,30.85,0,0,0,.17,3.58c.05.6.12,1.2.2,1.8l.12.89a1,1,0,0,1-.18.81l0,0,.05,0a1.14,1.14,0,0,0,.48-.81c.06-.31.1-.6.14-.9.08-.61.15-1.21.21-1.81.09-1.19.19-2.37.28-3.51.19-2.27.48-4.42.65-6.33a34.64,34.64,0,0,0,.14-4.67A17.37,17.37,0,0,0,267.8,122.8Z" transform="translate(12.38 14.89)"/><path class="cls-33" d="M274.36,135.49a22.19,22.19,0,0,0-3.13,1.84,23.78,23.78,0,0,0-2.78,2.27,7.81,7.81,0,0,0-2.22,3.45s0,0,0,0l0,0c1-.92,2.13-1.59,3.15-2.39a23.75,23.75,0,0,0,2.66-2.37A23.07,23.07,0,0,0,274.36,135.49Z" transform="translate(12.38 14.89)"/><path class="cls-34" d="M266.66,147.77a11.48,11.48,0,0,1-1.7-.44l.08-3.21,0-.89h1.53v.11l0,.93Z" transform="translate(12.38 14.89)"/><path class="cls-34" d="M266.7,150.61a15.92,15.92,0,0,1-1.83,0l.08-2.95a14.75,14.75,0,0,0,1.71.43Z" transform="translate(12.38 14.89)"/><path class="cls-34" d="M266.76,154.3c-.65.09-1.32.15-2,.18l.08-3.46a14.24,14.24,0,0,0,1.85-.06Z" transform="translate(12.38 14.89)"/><path class="cls-34" d="M266.82,158.45a14.53,14.53,0,0,1-2.13-.65l.08-3a19,19,0,0,0,2-.17Z" transform="translate(12.38 14.89)"/><path class="cls-34" d="M266.84,160c-.74-.11-1.47-.24-2.19-.41l0-1.36a14.57,14.57,0,0,0,2.14.63Z" transform="translate(12.38 14.89)"/><path class="cls-34" d="M266.89,163.15a18.11,18.11,0,0,1-2.33-.15l.08-3.09c.72.16,1.47.3,2.21.4Z" transform="translate(12.38 14.89)"/><path class="cls-34" d="M266.93,165.77c-.82.16-1.64.31-2.46.43l.08-2.83a20.39,20.39,0,0,0,2.34.13Z" transform="translate(12.38 14.89)"/><path class="cls-34" d="M267,168.11a5.35,5.35,0,0,1-2.56.71l.06-2.27c.82-.12,1.64-.26,2.46-.41Z" transform="translate(12.38 14.89)"/><path class="cls-34" d="M267,171.85a11.7,11.7,0,0,1-2.7.3l.08-3a5.63,5.63,0,0,0,2.57-.68Z" transform="translate(12.38 14.89)"/><path class="cls-34" d="M267.06,174.83a11.47,11.47,0,0,1-2.79-.47l0-1.85a12.32,12.32,0,0,0,2.72-.29Z" transform="translate(12.38 14.89)"/><path class="cls-34" d="M267.09,176.91a27.79,27.79,0,0,1-2.88-.16l.05-2a12,12,0,0,0,2.81.46Z" transform="translate(12.38 14.89)"/><path class="cls-34" d="M267.2,184.13H264l.18-7a25.75,25.75,0,0,0,2.9.16Z" transform="translate(12.38 14.89)"/><path class="cls-33" d="M257,129.38a38.38,38.38,0,0,0,2.31,5.07,31.24,31.24,0,0,0,6.35,8.76c-.68-.66-.17-.14-.09,0,0,.43,1.18.1,1.17.07-1.72-3.84-4.44-6.85-6.35-9.52S257,129.38,257,129.38Z" transform="translate(12.38 14.89)"/><path class="cls-35" d="M264,124l-.07.45c0,.3-.11.73-.15,1.28a26.35,26.35,0,0,0,.07,4.55,57.69,57.69,0,0,0,1,6.14c.45,2.19,1,4.46,1.37,6.77,0,0,0,.06,0,0s0,0,0,0a22.21,22.21,0,0,0,0-7c-.3-2.25-.77-4.32-1.15-6.11s-.68-3.29-.84-4.37S264,124,264,124Z" transform="translate(12.38 14.89)"/><path class="cls-35" d="M276.66,135.88s-1.54.68-3.64,1.86a40.74,40.74,0,0,0-7.07,4.93s0,0,0,0l0,0a29.3,29.3,0,0,0,7.56-4.17A33.57,33.57,0,0,0,276.66,135.88Z" transform="translate(12.38 14.89)"/><path class="cls-35" d="M259.16,127.73a45.17,45.17,0,0,0,1.61,5.07,47.31,47.31,0,0,0,2.12,4.85c.42.85.92,1.72,1.4,2.56a8.66,8.66,0,0,1,1.1,2.68s0,.05,0,0v0a5.91,5.91,0,0,0-.21-3.06c-.29-1-.64-1.88-1-2.77a48.17,48.17,0,0,0-2.27-4.79A47.2,47.2,0,0,0,259.16,127.73Z" transform="translate(12.38 14.89)"/><path class="cls-35" d="M255.31,137.31a32.51,32.51,0,0,0,3.11,2.14,26,26,0,0,0,7.25,3.15h0s0,0,0,0a17.55,17.55,0,0,0-6.71-4.28A19.48,19.48,0,0,0,255.31,137.31Z" transform="translate(12.38 14.89)"/><path class="cls-35" d="M259.31,143.81a13,13,0,0,0,2.11.06,8.59,8.59,0,0,0,4.15-1.22s0,0,0,0h0a5.39,5.39,0,0,0-4.44,0A5.81,5.81,0,0,0,259.31,143.81Z" transform="translate(12.38 14.89)"/><path class="cls-35" d="M255.5,133.91s.31.33.86.86,1.34,1.26,2.3,2.08c1.92,1.65,4.4,3.6,7,5.62l0,0s0,0,0,0a12.06,12.06,0,0,0-2.79-4,18.46,18.46,0,0,0-3.45-2.64,25.4,25.4,0,0,0-2.78-1.44C255.92,134.07,255.5,133.91,255.5,133.91Z" transform="translate(12.38 14.89)"/><path class="cls-35" d="M264.74,128.2s-.12.48-.24,1.32a26.88,26.88,0,0,0-.28,3.46,23.24,23.24,0,0,0,1.92,9.9s0,.05,0,0v0a63.36,63.36,0,0,0-.67-10c-.19-1.38-.38-2.55-.51-3.38Z" transform="translate(12.38 14.89)"/><path class="cls-35" d="M262.8,138a1.53,1.53,0,0,0,0,.62,4.85,4.85,0,0,0,.46,1.48,6.78,6.78,0,0,0,1.06,1.68,5.46,5.46,0,0,0,.81.78c.3.26.62.37.85.73,0,0,0,0,0,0s.14,0,.14,0c.22-.4-.09-1-.19-1.31a6.5,6.5,0,0,0-.44-1,7.52,7.52,0,0,0-1.2-1.59c-.43-.44-.82-.71-1.07-1A2.85,2.85,0,0,1,262.8,138Z" transform="translate(12.38 14.89)"/><path class="cls-35" d="M274.13,131.86a41.51,41.51,0,0,0-3.05,3.22,33.68,33.68,0,0,0-5.15,7.6s.06.07.07.07,0,0,.05,0a24.15,24.15,0,0,0,6.06-6.92A26.23,26.23,0,0,0,274.13,131.86Z" transform="translate(12.38 14.89)"/><path class="cls-35" d="M277.05,140l-1,.24c-.66.15-1.58.32-2.67.49a27.14,27.14,0,0,0-7.78,2s0,0,0,0h0a18.33,18.33,0,0,0,8.09-.8,10.81,10.81,0,0,0,2.54-1.27A7,7,0,0,0,277.05,140Z" transform="translate(12.38 14.89)"/><path class="cls-35" d="M274.12,143.26a17.55,17.55,0,0,0-2.62-.59A13,13,0,0,0,266,143h0s0,0,0,0a8.91,8.91,0,0,0,5.52,1A9.92,9.92,0,0,0,274.12,143.26Z" transform="translate(12.38 14.89)"/><path class="cls-35" d="M262.53,146.05s.17-.08.43-.23a10.23,10.23,0,0,0,.94-.67,12.31,12.31,0,0,0,1-.91c.34-.34.64-.75,1.16-1.23h0a2.05,2.05,0,0,0-2,.08,2.87,2.87,0,0,0-1.17,1.3,3.87,3.87,0,0,0-.34,1.18A2.94,2.94,0,0,0,262.53,146.05Z" transform="translate(12.38 14.89)"/><path class="cls-35" d="M270.14,145.62a7.5,7.5,0,0,0-1.16-1.35,5.27,5.27,0,0,0-3.25-1.49h0s0,0,0,0a4.05,4.05,0,0,0,2.62,2.57A4.69,4.69,0,0,0,270.14,145.62Z" transform="translate(12.38 14.89)"/><path class="cls-35" d="M265.29,143.5a2.27,2.27,0,0,0,1.17-.05c.39-.22-.84-1-.87-.95l-.55.43Z" transform="translate(12.38 14.89)"/><path class="cls-35" d="M266.35,142.2s.18-.5.51-1.35.73-2.06,1.25-3.48c1-2.86,2.31-6.53,3.27-10.32,0,0,0,0,0,0s0,0,0,0a23.83,23.83,0,0,0-4.47,10,27.57,27.57,0,0,0-.5,3.72C266.34,141.67,266.35,142.2,266.35,142.2Z" transform="translate(12.38 14.89)"/><path class="cls-32" d="M266.71,151a14.24,14.24,0,0,1-1.85.06v-.36a15.92,15.92,0,0,0,1.83,0Z" transform="translate(12.38 14.89)"/><path class="cls-32" d="M266.77,154.66a19,19,0,0,1-2,.17v-.35c.66,0,1.33-.09,2-.18Z" transform="translate(12.38 14.89)"/><path class="cls-32" d="M266.82,158.45v.36a14.57,14.57,0,0,1-2.14-.63v-.38A14.53,14.53,0,0,0,266.82,158.45Z" transform="translate(12.38 14.89)"/><path class="cls-32" d="M266.85,160.31c-.74-.1-1.49-.24-2.21-.4v-.37c.72.17,1.45.3,2.19.41Z" transform="translate(12.38 14.89)"/><path class="cls-32" d="M266.89,163.5a20.39,20.39,0,0,1-2.34-.13h0V163a18.11,18.11,0,0,0,2.33.15Z" transform="translate(12.38 14.89)"/><path class="cls-32" d="M266.93,166.14c-.82.15-1.64.29-2.46.41v-.35c.82-.12,1.64-.27,2.46-.43Z" transform="translate(12.38 14.89)"/><path class="cls-32" d="M267,168.5a5.63,5.63,0,0,1-2.57.68v-.36a5.35,5.35,0,0,0,2.56-.71Z" transform="translate(12.38 14.89)"/><path class="cls-32" d="M267,172.22a12.32,12.32,0,0,1-2.72.29v-.36a11.7,11.7,0,0,0,2.7-.3Z" transform="translate(12.38 14.89)"/><path class="cls-32" d="M267.07,175.19a12,12,0,0,1-2.81-.46v-.37a11.47,11.47,0,0,0,2.79.47Z" transform="translate(12.38 14.89)"/><path class="cls-32" d="M267.1,177.26a25.75,25.75,0,0,1-2.9-.16v-.35a27.79,27.79,0,0,0,2.88.16Z" transform="translate(12.38 14.89)"/><path class="cls-34" d="M270,150.94c-.46,0-.91,0-1.38-.09l.12-2.38h1.19Z" transform="translate(12.38 14.89)"/><path class="cls-34" d="M270,152.28c-.49,0-1,0-1.47,0l.05-1c.47,0,.93.08,1.4.09Z" transform="translate(12.38 14.89)"/><path class="cls-34" d="M270.07,155.38a12.1,12.1,0,0,1-1.71.2l.14-3c.5,0,1,0,1.49,0Z" transform="translate(12.38 14.89)"/><path class="cls-34" d="M270.17,158.89a5.45,5.45,0,0,1-2,.63l.16-3.58a11.17,11.17,0,0,0,1.74-.2Z" transform="translate(12.38 14.89)"/><path class="cls-34" d="M268.11,161.15l.05-1.28a5.66,5.66,0,0,0,2-.58l.05,1.86A15,15,0,0,1,268.11,161.15Z" transform="translate(12.38 14.89)"/><path class="cls-34" d="M270.32,164.47a9,9,0,0,1-2.32-1.06l.09-1.9a14,14,0,0,0,2.15,0Z" transform="translate(12.38 14.89)"/><path class="cls-34" d="M270.37,166.38c-.83,0-1.67-.1-2.5-.2l.11-2.36a8.73,8.73,0,0,0,2.35,1Z" transform="translate(12.38 14.89)"/><path class="cls-34" d="M270.45,169a10.83,10.83,0,0,1-2.74.65l.15-3.1c.83.09,1.68.17,2.52.2Z" transform="translate(12.38 14.89)"/><path class="cls-34" d="M270.52,171.49a15.23,15.23,0,0,1-2.92.65l.1-2.14a11.92,11.92,0,0,0,2.75-.63Z" transform="translate(12.38 14.89)"/><path class="cls-34" d="M270.58,173.91l-3.06-.23.06-1.18a16.32,16.32,0,0,0,2.95-.64Z" transform="translate(12.38 14.89)"/><path class="cls-34" d="M270.76,180.19h-3.53l.28-6.15,3.08.23Z" transform="translate(12.38 14.89)"/><path class="cls-33" d="M263.07,147.67a5.87,5.87,0,0,0,.58.2c.37.11.89.24,1.49.37s1.28.25,2,.36l2.3.33h0a0,0,0,0,0,0,0,4.09,4.09,0,0,0-2.06-1.4,6.36,6.36,0,0,0-2.18-.25,8.16,8.16,0,0,0-1.55.23A5.19,5.19,0,0,0,263.07,147.67Z" transform="translate(12.38 14.89)"/><path class="cls-33" d="M275.33,138.21s-.3.28-.77.79a20.56,20.56,0,0,0-1.8,2.25,19,19,0,0,0-3.27,7.72s0,0,0,0l0,0a74.46,74.46,0,0,0,4.08-7.22l1.27-2.54C275.17,138.58,275.33,138.21,275.33,138.21Z" transform="translate(12.38 14.89)"/><path class="cls-33" d="M275.58,146.78a10,10,0,0,0-6.32,1.8h0A10,10,0,0,0,275.58,146.78Z" transform="translate(12.38 14.89)"/><path class="cls-33" d="M275.74,143.25a16.45,16.45,0,0,0-2.4,1.41,17.61,17.61,0,0,0-2.15,1.75,6,6,0,0,0-1.71,2.66s0,0,0,0h0c.81-.71,1.64-1.22,2.43-1.84a16.51,16.51,0,0,0,2.05-1.83A17.54,17.54,0,0,0,275.74,143.25Z" transform="translate(12.38 14.89)"/><path class="cls-33" d="M262.32,138.54a31.61,31.61,0,0,0,1.79,3.9,24.09,24.09,0,0,0,4.89,6.75c-.52-.5-.13-.1-.07,0,0,.33,1,0,1,0-1.32-2.95-3.49-5.25-5-7.3S262.32,138.54,262.32,138.54Z" transform="translate(12.38 14.89)"/><path class="cls-35" d="M267.77,134.4l0,.35c0,.23-.09.56-.11,1a19.14,19.14,0,0,0,.05,3.51,46.36,46.36,0,0,0,.77,4.74c.35,1.69.74,3.43,1.06,5.21,0,0,0,.05,0,0v0a17.16,17.16,0,0,0,0-5.4c-.23-1.73-.59-3.32-.88-4.7s-.53-2.54-.66-3.37S267.77,134.4,267.77,134.4Z" transform="translate(12.38 14.89)"/><path class="cls-35" d="M276.61,144.36s-1.06.44-2.5,1.21a27,27,0,0,0-4.85,3.21s0,0,0,0h0a20.09,20.09,0,0,0,5.2-2.7A20.83,20.83,0,0,0,276.61,144.36Z" transform="translate(12.38 14.89)"/><path class="cls-35" d="M264,137.26a36.4,36.4,0,0,0,1.24,3.91,39.76,39.76,0,0,0,1.63,3.73c.33.66.71,1.33,1.08,2a6.51,6.51,0,0,1,.85,2.07s0,0,0,0v0a4.62,4.62,0,0,0-.16-2.36c-.23-.76-.5-1.45-.77-2.14a40.34,40.34,0,0,0-1.75-3.69A36.05,36.05,0,0,0,264,137.26Z" transform="translate(12.38 14.89)"/><path class="cls-35" d="M261.06,144.65a24.93,24.93,0,0,0,2.4,1.64,19.81,19.81,0,0,0,5.59,2.43s0,0,0,0l0,0a13.68,13.68,0,0,0-5.17-3.3A14.35,14.35,0,0,0,261.06,144.65Z" transform="translate(12.38 14.89)"/><path class="cls-35" d="M261.21,142s.23.25.66.66,1,1,1.77,1.6c1.49,1.28,3.4,2.78,5.37,4.33l0,0s0,0,0,0a9.36,9.36,0,0,0-2.14-3.09,14.41,14.41,0,0,0-2.67-2,18,18,0,0,0-2.14-1.11C261.53,142.15,261.21,142,261.21,142Z" transform="translate(12.38 14.89)"/><path class="cls-35" d="M268.33,137.62s-.09.38-.18,1a20.19,20.19,0,0,0-.22,2.66,17.85,17.85,0,0,0,1.48,7.64v0s0,0,0,0a47.93,47.93,0,0,0-.51-7.69c-.15-1.07-.29-2-.4-2.61S268.33,137.62,268.33,137.62Z" transform="translate(12.38 14.89)"/><path class="cls-35" d="M266.68,145.45a1.26,1.26,0,0,0,0,.46,3.47,3.47,0,0,0,.44,1.06,5.05,5.05,0,0,0,.92,1.18,4.42,4.42,0,0,0,.67.52c.25.17.5.23.69.48v0c.06,0,.35-.12.23-.06.2-.38-.25-.66-.35-.91a4.26,4.26,0,0,0-.4-.73,4.92,4.92,0,0,0-1-1.1c-.36-.3-.68-.48-.88-.64A2.79,2.79,0,0,1,266.68,145.45Z" transform="translate(12.38 14.89)"/><path class="cls-35" d="M275.57,140.45a30.89,30.89,0,0,0-2.35,2.48,25.52,25.52,0,0,0-4,5.85s.05.06.05.06h0A18.7,18.7,0,0,0,274,143.5,20.21,20.21,0,0,0,275.57,140.45Z" transform="translate(12.38 14.89)"/><path class="cls-35" d="M273.11,149.79A5.52,5.52,0,0,0,272,149a4.07,4.07,0,0,0-2.72-.45h0a3.12,3.12,0,0,0,2.46,1.38A3.65,3.65,0,0,0,273.11,149.79Z" transform="translate(12.38 14.89)"/><path class="cls-35" d="M265.81,150.43a5.85,5.85,0,0,0,1.33-.33,4.14,4.14,0,0,0,2.15-1.72h0a3.11,3.11,0,0,0-2.67.91A3.48,3.48,0,0,0,265.81,150.43Z" transform="translate(12.38 14.89)"/><path class="cls-35" d="M269.57,148.42l.39-1,1-2.69c.77-2.2,1.78-5,2.52-7.95t0,0l0,0a18.39,18.39,0,0,0-3.44,7.7,21.82,21.82,0,0,0-.39,2.87C269.56,148,269.57,148.42,269.57,148.42Z" transform="translate(12.38 14.89)"/><path class="cls-35" d="M269.41,147a32.7,32.7,0,0,0,.89-3.27,26.93,26.93,0,0,0,.68-7.08v0s0,0,0,0a18.74,18.74,0,0,0-1.64,7A19.84,19.84,0,0,0,269.41,147Z" transform="translate(12.38 14.89)"/><path class="cls-36" d="M270,151.3c-.47,0-.93,0-1.4-.09v-.36c.47.05.92.08,1.38.09Z" transform="translate(12.38 14.89)"/><path class="cls-36" d="M270,152.64c-.5,0-1,0-1.49,0v-.36c.49,0,1,0,1.47,0Z" transform="translate(12.38 14.89)"/><path class="cls-36" d="M270.08,155.74a11.17,11.17,0,0,1-1.74.2l0-.36a12.1,12.1,0,0,0,1.71-.2Z" transform="translate(12.38 14.89)"/><path class="cls-36" d="M270.18,159.29h0a5.66,5.66,0,0,1-2,.58l0-.35a5.45,5.45,0,0,0,2-.63Z" transform="translate(12.38 14.89)"/><path class="cls-36" d="M270.24,161.5a14,14,0,0,1-2.15,0l0-.36a15,15,0,0,0,2.12,0Z" transform="translate(12.38 14.89)"/><path class="cls-36" d="M270.33,164.84a8.73,8.73,0,0,1-2.35-1h0l0-.41a9,9,0,0,0,2.32,1.06Z" transform="translate(12.38 14.89)"/><path class="cls-36" d="M270.38,166.74c-.84,0-1.69-.11-2.52-.2v-.36c.83.1,1.67.17,2.5.2Z" transform="translate(12.38 14.89)"/><path class="cls-36" d="M270.45,169.37a11.92,11.92,0,0,1-2.75.63v-.36a10.83,10.83,0,0,0,2.74-.65Z" transform="translate(12.38 14.89)"/><path class="cls-36" d="M270.53,171.86a16.32,16.32,0,0,1-2.95.64l0-.36a15.23,15.23,0,0,0,2.92-.65Z" transform="translate(12.38 14.89)"/><path class="cls-36" d="M270.59,174.27l-3.08-.23v-.36l3.06.23Z" transform="translate(12.38 14.89)"/><path class="cls-34" d="M272.6,163.29c.4,0,.78,0,1.17-.06l-.09-1.77h-1Z" transform="translate(12.38 14.89)"/><path class="cls-34" d="M272.58,164.29h1.25l0-.79c-.4,0-.79.06-1.19.07Z" transform="translate(12.38 14.89)"/><path class="cls-34" d="M272.5,166.59a11.64,11.64,0,0,0,1.46.15l-.12-2.2c-.42,0-.84,0-1.27,0Z" transform="translate(12.38 14.89)"/><path class="cls-34" d="M272.42,169.2a5.24,5.24,0,0,0,1.69.46L274,167a11.8,11.8,0,0,1-1.47-.15Z" transform="translate(12.38 14.89)"/><path class="cls-34" d="M274.17,170.88l-.05-.95a5.25,5.25,0,0,1-1.71-.43l0,1.38A13.51,13.51,0,0,0,274.17,170.88Z" transform="translate(12.38 14.89)"/><path class="cls-34" d="M272.29,173.34a7.78,7.78,0,0,0,2-.78l-.07-1.42a14,14,0,0,1-1.83,0Z" transform="translate(12.38 14.89)"/><path class="cls-34" d="M272.25,174.76c.71,0,1.42-.07,2.12-.14l-.09-1.76a7.94,7.94,0,0,1-2,.76Z" transform="translate(12.38 14.89)"/><path class="cls-34" d="M272.19,176.7a10.68,10.68,0,0,0,2.31.49l-.12-2.31c-.71.07-1.42.13-2.14.15Z" transform="translate(12.38 14.89)"/><path class="cls-34" d="M272.12,178.56a14.69,14.69,0,0,0,2.48.48l-.08-1.59a11.54,11.54,0,0,1-2.34-.46Z" transform="translate(12.38 14.89)"/><path class="cls-34" d="M272.07,180.36l2.6-.17-.05-.88a14.73,14.73,0,0,1-2.5-.48Z" transform="translate(12.38 14.89)"/><path class="cls-34" d="M271.92,185h3l-.24-4.57-2.62.18Z" transform="translate(12.38 14.89)"/><path class="cls-36" d="M272.6,163.56c.4,0,.79,0,1.19-.07l0-.26c-.39,0-.77.06-1.17.06Z" transform="translate(12.38 14.89)"/><path class="cls-36" d="M272.57,164.55c.43,0,.85,0,1.27,0v-.26h-1.25Z" transform="translate(12.38 14.89)"/><path class="cls-36" d="M272.5,166.86A11.8,11.8,0,0,0,274,167v-.27a11.64,11.64,0,0,1-1.46-.15Z" transform="translate(12.38 14.89)"/><path class="cls-36" d="M272.41,169.49h0a5.25,5.25,0,0,0,1.71.43v-.27a5.24,5.24,0,0,1-1.69-.46Z" transform="translate(12.38 14.89)"/><path class="cls-36" d="M272.36,171.14a14,14,0,0,0,1.83,0l0-.26a13.51,13.51,0,0,1-1.8,0Z" transform="translate(12.38 14.89)"/><path class="cls-36" d="M272.28,173.62a7.94,7.94,0,0,0,2-.76h0l0-.3a7.78,7.78,0,0,1-2,.78Z" transform="translate(12.38 14.89)"/><path class="cls-36" d="M272.24,175c.72,0,1.43-.08,2.14-.15v-.26c-.7.07-1.41.12-2.12.14Z" transform="translate(12.38 14.89)"/><path class="cls-36" d="M272.18,177a11.54,11.54,0,0,0,2.34.46l0-.26a10.68,10.68,0,0,1-2.31-.49Z" transform="translate(12.38 14.89)"/><path class="cls-36" d="M272.12,178.83a14.73,14.73,0,0,0,2.5.48l0-.27a14.69,14.69,0,0,1-2.48-.48Z" transform="translate(12.38 14.89)"/><path class="cls-36" d="M272.06,180.63l2.62-.18v-.26l-2.6.17Z" transform="translate(12.38 14.89)"/><path class="cls-33" d="M278.34,160.6l-.48.17a12.66,12.66,0,0,1-1.23.33c-.5.12-1.06.22-1.64.32l-1.9.29h0a3.4,3.4,0,0,1,1.7-1.24,4.83,4.83,0,0,1,1.79-.22,6.63,6.63,0,0,1,1.28.2C278.16,160.53,278.34,160.6,278.34,160.6Z" transform="translate(12.38 14.89)"/><path class="cls-33" d="M268.23,152.18s.25.25.64.71a18.31,18.31,0,0,1,1.48,2,17.62,17.62,0,0,1,2.69,6.87v0l0,0a67.67,67.67,0,0,1-3.36-6.42l-1.05-2.26C268.37,152.52,268.23,152.18,268.23,152.18Z" transform="translate(12.38 14.89)"/><path class="cls-33" d="M268.1,159.57a7.82,7.82,0,0,1,5.06,2.07s0,0,0,0h0A8,8,0,0,1,268.1,159.57Z" transform="translate(12.38 14.89)"/><path class="cls-33" d="M272.26,149l.14,1.14c.09.72.25,1.73.44,2.94a23.63,23.63,0,0,1,.31,4.15,20.06,20.06,0,0,1-.21,2.3c-.06.39-.12.77-.19,1.15l-.1.57a.66.66,0,0,0,.09.53l0,0h0a.74.74,0,0,1-.28-.53c0-.21,0-.4-.06-.59,0-.39-.06-.78-.07-1.17,0-.77-.05-1.53-.07-2.27-.05-1.46-.17-2.85-.21-4.08a23.09,23.09,0,0,1,0-3C272.17,149.4,272.26,149,272.26,149Z" transform="translate(12.38 14.89)"/><path class="cls-33" d="M267.89,156.66a14.59,14.59,0,0,1,2,1.26,15,15,0,0,1,1.76,1.56,5.21,5.21,0,0,1,1.41,2.36,0,0,0,0,1,0,0h0c-.66-.63-1.35-1.09-2-1.64a14.7,14.7,0,0,1-1.69-1.63A15,15,0,0,1,267.89,156.66Z" transform="translate(12.38 14.89)"/><path class="cls-33" d="M279,152.47a27.9,27.9,0,0,1-1.47,3.48,21.64,21.64,0,0,1-4,6c.43-.45.11-.1.05,0,0,.29-.75.06-.73,0a36.84,36.84,0,0,1,4-6.52C278,153.67,279,152.47,279,152.47Z" transform="translate(12.38 14.89)"/><path class="cls-35" d="M274.46,148.8l0,.31a8.54,8.54,0,0,1,.1.87,18.64,18.64,0,0,1-.05,3.12,41.48,41.48,0,0,1-.63,4.21c-.29,1.5-.61,3.05-.87,4.64,0,0,0,0,0,0s0,0,0,0a16.43,16.43,0,0,1,0-4.8c.19-1.54.49-3,.73-4.18s.43-2.26.54-3Z" transform="translate(12.38 14.89)"/><path class="cls-35" d="M266.43,156.92s1,.47,2.31,1.28a25.84,25.84,0,0,1,4.49,3.38l0,0h0a18.5,18.5,0,0,1-4.81-2.86A20.46,20.46,0,0,1,266.43,156.92Z" transform="translate(12.38 14.89)"/><path class="cls-35" d="M277.55,151.34a32.39,32.39,0,0,1-1,3.47,34.09,34.09,0,0,1-1.34,3.33c-.27.58-.59,1.18-.89,1.75a6.1,6.1,0,0,0-.7,1.84s0,0,0,0v0a4.4,4.4,0,0,1,.13-2.1c.19-.67.41-1.29.64-1.9.46-1.21,1-2.33,1.44-3.28A32.89,32.89,0,0,1,277.55,151.34Z" transform="translate(12.38 14.89)"/><path class="cls-35" d="M280,157.91a22,22,0,0,1-2,1.46,15.91,15.91,0,0,1-4.61,2.16h0l0,0a11.94,11.94,0,0,1,6.58-3.61Z" transform="translate(12.38 14.89)"/><path class="cls-35" d="M277.45,162.36a6.78,6.78,0,0,1-1.34,0,5.08,5.08,0,0,1-2.63-.83s0,0,0,0h0a3.17,3.17,0,0,1,2.81,0A3.9,3.9,0,0,1,277.45,162.36Z" transform="translate(12.38 14.89)"/><path class="cls-35" d="M279.87,155.58l-.54.59c-.35.36-.86.86-1.46,1.42-1.23,1.13-2.8,2.47-4.43,3.85,0,0,0,0,0,0a0,0,0,0,1,0,0,8.45,8.45,0,0,1,1.77-2.75,12.36,12.36,0,0,1,2.2-1.81,15.14,15.14,0,0,1,1.76-1C279.6,155.68,279.87,155.58,279.87,155.58Z" transform="translate(12.38 14.89)"/><path class="cls-35" d="M275.31,152s0,.34,0,.92a19.78,19.78,0,0,1-.22,2.36,17.06,17.06,0,0,1-2.34,6.49s0,0,0,0,0,0,0,0a46.29,46.29,0,0,1,1.56-6.66c.28-.92.53-1.69.71-2.24S275.31,152,275.31,152Z" transform="translate(12.38 14.89)"/><path class="cls-35" d="M275.23,158.37a1.26,1.26,0,0,1,0,.43,3.57,3.57,0,0,1-.29,1,5.22,5.22,0,0,1-.68,1.16,4.23,4.23,0,0,1-.51.53c-.19.18-.4.25-.54.5,0,0,0,0,0,0s-.09,0-.09,0c-.14-.27.06-.66.13-.9a4,4,0,0,1,.28-.71,4.37,4.37,0,0,1,.76-1.09c.27-.3.52-.49.68-.66A1.78,1.78,0,0,0,275.23,158.37Z" transform="translate(12.38 14.89)"/><path class="cls-35" d="M268,154.17a27.12,27.12,0,0,1,1.94,2.21,22.89,22.89,0,0,1,3.27,5.21s0,0,0,0,0,0,0,0a16.41,16.41,0,0,1-3.85-4.74A19.35,19.35,0,0,1,268,154.17Z" transform="translate(12.38 14.89)"/><path class="cls-35" d="M266.18,159.73l.66.17c.42.1,1,.22,1.7.33a16.34,16.34,0,0,1,4.94,1.38h0a10.69,10.69,0,0,1-5.14-.55,6.58,6.58,0,0,1-1.62-.87A4.08,4.08,0,0,1,266.18,159.73Z" transform="translate(12.38 14.89)"/><path class="cls-35" d="M268.05,162a10.71,10.71,0,0,1,1.65-.4,7.7,7.7,0,0,1,3.52.19h0a5.3,5.3,0,0,1-3.51.67A5.88,5.88,0,0,1,268.05,162Z" transform="translate(12.38 14.89)"/><path class="cls-35" d="M275.41,163.9l-.28-.16a7,7,0,0,1-.6-.46,7.57,7.57,0,0,1-.64-.63c-.22-.23-.41-.5-.74-.84h0a1.23,1.23,0,0,1,1.27.06,2,2,0,0,1,.75.89,2.92,2.92,0,0,1,.22.81C275.41,163.77,275.41,163.9,275.41,163.9Z" transform="translate(12.38 14.89)"/><path class="cls-35" d="M270.57,163.6a5.2,5.2,0,0,1,.74-.93,3.29,3.29,0,0,1,2.06-1h0a2.66,2.66,0,0,1-1.66,1.76A2.89,2.89,0,0,1,270.57,163.6Z" transform="translate(12.38 14.89)"/><path class="cls-35" d="M273.65,162.15a1.29,1.29,0,0,1-.74,0c-.25-.15.53-.67.55-.65l.35.3Z" transform="translate(12.38 14.89)"/><path class="cls-35" d="M273,161.26l-.32-.93-.8-2.39c-.63-1.95-1.47-4.47-2.07-7.06,0,0,0,0,0,0l0,0a17.18,17.18,0,0,1,2.84,6.84,18.29,18.29,0,0,1,.31,2.56C273,160.89,273,161.26,273,161.26Z" transform="translate(12.38 14.89)"/><path class="cls-37" d="M274.66,179.35H262.92a31.5,31.5,0,0,0,2.94,13.54h5.87A31.41,31.41,0,0,0,274.66,179.35Z" transform="translate(12.38 14.89)"/><path class="cls-38" d="M270.7,192.88h-3.56a31.35,31.35,0,0,1-2.93-13.53h3.12a31.89,31.89,0,0,0,1.57,13.31Z" transform="translate(12.38 14.89)"/><path class="cls-37" d="M276,179.91a31.32,31.32,0,0,1-2.94,13H270.7l-1.8-.22a31.89,31.89,0,0,1-1.57-13.31H276Z" transform="translate(12.38 14.89)"/><path class="cls-39" d="M41.69,221v-4.44H40.63v3.29a2.88,2.88,0,0,0-1.53-.44A2.93,2.93,0,1,0,42,222.37,2.86,2.86,0,0,0,41.69,221Z" transform="translate(12.38 14.89)"/><path class="cls-39" d="M57.87,219v-4.43H56.81v3.29a2.88,2.88,0,0,0-1.53-.44A3,3,0,1,0,57.87,219Z" transform="translate(12.38 14.89)"/><path class="cls-40" d="M56.54,212.3l18-8s1.16,2.37.17,3.71-17.38,6.22-17.38,6.22Z" transform="translate(12.38 14.89)"/><polygon class="cls-40" points="68.66 227.53 68.66 231.4 70.74 231.4 70.74 229.01 68.66 227.53"/><path class="cls-39" d="M98,219v-4.43h1.06v3.29a2.88,2.88,0,0,1,1.53-.44A3,3,0,1,1,98,219Z" transform="translate(12.38 14.89)"/><path class="cls-40" d="M99.59,212.65l-17-7.66s-1.15,2.38-.23,3.69,16.49,5.91,16.49,5.91Z" transform="translate(12.38 14.89)"/><polygon class="cls-40" points="111.96 227.53 111.96 231.4 109.88 231.4 109.88 229.01 111.96 227.53"/><path class="cls-41" d="M73.9,209.05V196.88H83v12.17S80.12,210.53,73.9,209.05Z" transform="translate(12.38 14.89)"/><rect class="cls-39" x="90.31" y="235.84" width="1.25" height="3.02"/><rect class="cls-39" x="88.68" y="237.66" width="4.28" height="6.23"/><ellipse class="cls-42" cx="90.82" cy="211.77" rx="4.54" ry="0.67"/><path class="cls-43" d="M39.78,214.59s1.36,1.7,2.89,1.7l31.53-8.83s1.1-4.58,0-5.18Z" transform="translate(12.38 14.89)"/><path class="cls-43" d="M78.56,203a1.94,1.94,0,0,0-2.15,1.95l1,16.49h2.27l1-16.49A2,2,0,0,0,78.56,203Z" transform="translate(12.38 14.89)"/><polygon class="cls-43" points="52.16 229.49 52.16 232.97 54.92 233.48 55.05 231.19 52.16 229.49"/><path class="cls-43" d="M117.2,214.59s-1.36,1.7-2.89,1.7l-31.53-8.83s-1.1-4.58,0-5.18Z" transform="translate(12.38 14.89)"/><polygon class="cls-43" points="129.58 229.49 129.58 232.97 126.82 233.48 126.69 231.19 129.58 229.49"/><path class="cls-39" d="M115.29,221v-4.44h1.06v3.29a2.88,2.88,0,0,1,1.53-.44,2.93,2.93,0,1,1-2.93,2.93A2.86,2.86,0,0,1,115.29,221Z" transform="translate(12.38 14.89)"/><path class="cls-44" d="M75.47,196.83V187.1h6v9.73A13,13,0,0,1,75.47,196.83Z" transform="translate(12.38 14.89)"/><path class="cls-45" d="M81.42,187.1c0,.45-1.33.81-3,.81s-3-.36-3-.81,1.33-.8,3-.8S81.42,186.66,81.42,187.1Z" transform="translate(12.38 14.89)"/><path class="cls-43" d="M76.86,181.28c-.06.23,0,5.67,0,5.67a3.26,3.26,0,0,0,3.28,0v-5.67Z" transform="translate(12.38 14.89)"/><path class="cls-41" d="M51.36,183l-.3-.89.15.45-.32-.34c.15-.17,1-1.56,1.7-2.79l.1-.17L63,176.67l.22.9L53.3,180C51.65,182.86,51.55,182.89,51.36,183Z" transform="translate(12.38 14.89)"/><path class="cls-41" d="M76.41,176v6a7,7,0,0,0,4.3,0v-6Z" transform="translate(12.38 14.89)"/><path d="M50.83,181.28s-4.68,5.95-4.76,7.14S51.46,191,53,189.87s1.58-4,.68-4.42-1.7-1.87-.89-2.93S50.83,181.28,50.83,181.28Z" transform="translate(12.38 14.89)"/><polygon class="cls-46" points="85.6 195.98 133.2 191.01 108.16 184.01 105.67 178.72 62.74 184.01 85.6 195.98"/><path class="cls-46" d="M93.29,163.82s-3.66-56.49-7.7-57.42S90,172.71,90,172.71l30.83,3.4s5.91-9.8-1.87-11.66S93.29,163.82,93.29,163.82Z" transform="translate(12.38 14.89)"/><polygon class="cls-46" points="56.44 122.07 97.97 121.29 105.67 178.72 62.74 184.01 56.44 122.07"/><path class="cls-47" d="M50.36,169.11s-2.25-61-6.3-61.93S48.81,176,48.81,176l24.42,5.13s2.8-9.33-5-11.2S50.36,169.11,50.36,169.11Z" transform="translate(12.38 14.89)"/><path class="cls-48" d="M73.62,58.21c-.12-3.78-6.13-2.68-4.86,1.38-1.27-1.38-3.23-1.92-5.09.07-.84.9-.72,2.55-.36,3.72-1.56-.07-3.47.27-3.77,2.48a2.62,2.62,0,0,0,1.67,3c-4,.2-4.07,6.19-.18,6.26-1.19.76-2.15,1.52-2,3.31.18,2.06,1.43,2.27,2.87,2.34-2,3.23.24,5.85,3.36,4.82.06,1.17-.18,2.2.9,2.89a4.19,4.19,0,0,0,4.13-.14c.18,1.1.42,1.79,1.44,2.07s1.56-.41,2.22-.21c.84.28,1.32,1,2.33.62s1.26-1.51,2.1-2c1.56-.89,3.18.21,4.32,1.45S86,92,86.26,89.61c.9.21,2.16,1,3.12.21.72-.55.54-1.59.6-2.48,2.39,1.58,4.31-.48,3.11-3.24,1-.48,1.5.07,2.4-.89,1.38-1.45.84-3.19.36-4.64,0,0,.36.09.9-.8a5.33,5.33,0,0,0,.54-1.65c.18-1.18,0-2.28-1.08-2.76,1-1.38,1.92-2.13,1.44-4.13A3.32,3.32,0,0,0,95,66.61c2.16-2.41.24-6.75-2.7-6.06,1.28-2.82-1.85-5.5-3.89-3A2.87,2.87,0,0,0,83,56.35a2.83,2.83,0,0,0-3.6-1.72,2.77,2.77,0,0,0-1.5,2.62c-.54-1.38-1.56-2.2-3.05-1.59-.9.42-1.14,1.52-1.26,2.55" transform="translate(12.38 14.89)"/><rect class="cls-49" x="81.74" y="107.75" width="17.21" height="4.18"/><path class="cls-50" d="M103.86,192.17l.34,16.24s30.88,6.65,6.44-3.6l-.58-10.33Z" transform="translate(12.38 14.89)"/><path class="cls-17" d="M104.12,204.53l-.26-12.36,6.2,2.31.48,8.65C108.41,203.67,106.27,204.13,104.12,204.53Z" transform="translate(12.38 14.89)"/><path class="cls-15" d="M113.82,209.24a19.25,19.25,0,0,1,1.58-2.38c3.62,1.74,4.84,2.73,4.62,3.23-.34,2-15.84-1.56-15.84-1.56v-1.1C105,207.61,109.69,208.66,113.82,209.24Z" transform="translate(12.38 14.89)"/><path class="cls-50" d="M81.38,205.37l1,16.18s27.81,4.71,5.59-4L87,207.3Z" transform="translate(12.38 14.89)"/><path class="cls-17" d="M82.13,217.68l-.75-12.31L87,207.3l.8,8.59Q85,216.9,82.13,217.68Z" transform="translate(12.38 14.89)"/><path class="cls-15" d="M91,221.78a17.67,17.67,0,0,1,1.3-2.47c3.3,1.51,4.43,2.42,4.26,2.93-.22,2-14.19-.57-14.19-.57l0-1.09C83,220.71,87.28,221.46,91,221.78Z" transform="translate(12.38 14.89)"/><rect class="cls-51" x="74.79" y="166.21" width="31.28" height="20.71" rx="9.76"/><path class="cls-17" d="M95.78,160.57a.65.65,0,0,0,1-.08s.67-.87,1.1-1.45a.33.33,0,0,1,.59.17,2.45,2.45,0,0,1-.3,1.22l-2.52,4.11a.58.58,0,0,0-.09.25.65.65,0,0,0,.31.66.86.86,0,0,0,1-.35l1.75-2.85a.31.31,0,0,1,.37-.13l.1,0a.33.33,0,0,1,.21.4l-1.14,4a.69.69,0,0,0,.39.83.66.66,0,0,0,.88-.44l1.1-3.92a.44.44,0,0,1,.47-.32.5.5,0,0,1,.43.55l-.43,3.62a.69.69,0,0,0,.51.76.65.65,0,0,0,.8-.57l.45-3.76a1.16,1.16,0,0,1,.31-.66.35.35,0,0,1,.6.2l.16,1.7a.7.7,0,0,0,.66.63.66.66,0,0,0,.66-.73l-.28-3.71c0-.92-.06-1.74-.13-2.47s-.17-1.35-.26-1.88l-.26-4.51-6.2.31.42,3.67h0a10.22,10.22,0,0,0-1.52,2.24l-1.16,1.53A.69.69,0,0,0,95.78,160.57Z" transform="translate(12.38 14.89)"/><path class="cls-17" d="M60.78,160.57a.65.65,0,0,1-1-.08s-.67-.87-1.1-1.45a.33.33,0,0,0-.59.17,2.45,2.45,0,0,0,.3,1.22l2.52,4.11a.58.58,0,0,1,.09.25.65.65,0,0,1-.31.66.86.86,0,0,1-1-.35L58,162.25a.31.31,0,0,0-.38-.13l-.09,0a.32.32,0,0,0-.21.4l1.14,4a.69.69,0,0,1-.39.83.66.66,0,0,1-.88-.44l-1.1-3.92a.44.44,0,0,0-.47-.32.5.5,0,0,0-.43.55l.43,3.62a.69.69,0,0,1-.51.76.65.65,0,0,1-.8-.57l-.45-3.76a1.16,1.16,0,0,0-.31-.66.35.35,0,0,0-.6.2l-.16,1.7a.7.7,0,0,1-.66.63.67.67,0,0,1-.67-.73l.29-3.71c0-.92.06-1.74.13-2.47s.16-1.35.26-1.88l.26-4.51,6.2.31-.42,3.67h0a10.22,10.22,0,0,1,1.52,2.24l1.16,1.53A.69.69,0,0,1,60.78,160.57Z" transform="translate(12.38 14.89)"/><path class="cls-52" d="M83.89,95.59c-.14-.41-.44-1.73-.35-5.58h-11c.09,3.85-.21,5.17-.35,5.58L67,97.41l11,4.38,11-4.38Z" transform="translate(12.38 14.89)"/><path class="cls-17" d="M90.94,77.88c-.32,1-2.68,3.35-3.55,1.72L88,74.21h0a2.69,2.69,0,0,1,1.84-.29l.27.1C91.38,74.68,91.32,76.69,90.94,77.88Z" transform="translate(12.38 14.89)"/><path class="cls-17" d="M68.65,74.09a2.46,2.46,0,0,0-2.11-.19c-1.32.66-1.26,2.67-.88,3.86.32,1,2.68,3.35,3.56,1.71" transform="translate(12.38 14.89)"/><path class="cls-53" d="M92.63,130.53c0,2.85,0,11.18.9,14.73,1.07,4.32,1.43,7.21-2.88,6.66s-23.46,0-24.73,0a4,4,0,0,1-1.28-.16,3.16,3.16,0,0,1-1.58-1.12c-.93-1.23-1.15-3.24-.56-5.64.88-3.55.91-11.88.9-14.73.34-22.94.34-22.94-3.62-28.78-.63-.92,1.77-1.72,3-2.4a26.38,26.38,0,0,1,3.42-1.57l5-2S71,98.79,78,98.85h.18A12,12,0,0,0,83.31,98a2.72,2.72,0,0,0,1.58-2.24l2,.83,1.68.69,1.25.51c1.88.71,7.63,2.1,6.4,4C92.88,106.9,92.88,106.9,92.63,130.53Z" transform="translate(12.38 14.89)"/><path class="cls-53" d="M71,95.8V96A.67.67,0,0,1,71,95.8Z" transform="translate(12.38 14.89)"/><path class="cls-54" d="M95.59,131.41v-.25L93.2,120.84s-7.63-18.37-4.27-21.5,7.24-1.5,9.44,1.76c3.6,5.34,7.35,26.18,7.64,29.91h0Z" transform="translate(12.38 14.89)"/><path class="cls-54" d="M105.6,154.42c-.32,1.58-8,2.15-9,.6s-1-21.44-1-23.91l10.43-.39C106.3,134.47,105.91,152.85,105.6,154.42Z" transform="translate(12.38 14.89)"/><ellipse class="cls-54" cx="113.19" cy="145.95" rx="5.17" ry="5.9"/><path class="cls-54" d="M60.34,131.41v-.25l2.4-10.32s7.62-18.37,4.26-21.5-7.23-1.5-9.43,1.76c-3.6,5.34-7.35,26.18-7.65,29.91h0Z" transform="translate(12.38 14.89)"/><path class="cls-54" d="M50.34,154.42c.32,1.58,8,2.15,9,.6s1-21.44,1-23.91l-10.42-.39C49.63,134.47,50,152.85,50.34,154.42Z" transform="translate(12.38 14.89)"/><ellipse class="cls-54" cx="67.5" cy="145.95" rx="5.17" ry="5.9"/><path class="cls-54" d="M96.51,99.27c-.64-.58-3.4-3-10.11-4.24l-2.77,13.28V156.5l10.08-.37h.22a.68.68,0,0,0,.6-.73l-1.08-31.07S98.51,101.08,96.51,99.27Z" transform="translate(12.38 14.89)"/><path class="cls-54" d="M59.49,99.27c.63-.58,3.4-3,10.1-4.24l2.78,13.28V156.5l-10.08-.37h-.22a.68.68,0,0,1-.6-.73l1.08-31.07S57.49,101.08,59.49,99.27Z" transform="translate(12.38 14.89)"/><polygon class="cls-49" points="98.95 107.75 102.79 109.25 104.46 113.52 101.46 114.1 102.63 119.61 95.94 129.46 95.94 121.61 98.95 107.75"/><polygon class="cls-49" points="81.74 107.75 77.9 109.25 76.23 113.52 79.24 114.1 78.07 119.61 84.75 129.46 84.75 121.61 81.74 107.75"/><path class="cls-17" d="M69.53,71.64c-1,1.5-1.11,3.64-1,5.51.17,2.58.42,6.17.57,7.29.25,1.81,2.13,7.37,9.49,7.18,5.31-.25,8.68-1.81,9.25-9.37a38,38,0,0,0-.11-9.11c-.3-1.6-1.21-2.87-1.54-4.13C85.59,66.65,85,65.08,85,65.08l-6.12-.62-5.31.06-3.5.37-.68,2.19Z" transform="translate(12.38 14.89)"/><path class="cls-48" d="M69.07,67.92c-.51,1.19-.84,2.89.65,3.65s2.45-.19,3.49-1c.26,1.64.32,3,2.39,3.08,1.55,0,3-.88,3-2.45-.25,2.64,3.75,2.7,4,.06a3,3,0,0,0,3.74,2.27c1.55-.38,1.68-1.76,1.1-3,1.75-.31,3.62-.13,3.17-2.52-.39-2-1.62-2.26-3.36-2.7.84-1.39,1.1-3-.58-4a2.83,2.83,0,0,0-3.43.63,3.19,3.19,0,0,0-2.65-3.14,2.15,2.15,0,0,0-2.77,2c-1-1.26-2.07-2.39-3.88-1.95-1.62.44-1.68,1.64-1.75,3-2.64-2.14-5,1.2-2.51,3.4-1.1-.38-2.78-.76-3.11.75s1.3,1.83,2.46,1.83" transform="translate(12.38 14.89)"/><path class="cls-55" d="M76.29,75.39l-1.11.1-1.11.1L73,75.72l-1,.2h0a.45.45,0,0,1-.53-.35.46.46,0,0,1,.23-.49,5.08,5.08,0,0,1,1.16-.43,8.31,8.31,0,0,1,1.2-.19,9.61,9.61,0,0,1,1.2,0,7,7,0,0,1,1.19.15.4.4,0,0,1,0,.79Z" transform="translate(12.38 14.89)"/><path class="cls-55" d="M80.74,74.6a6.92,6.92,0,0,1,1.19-.15,9.47,9.47,0,0,1,1.19,0,8.31,8.31,0,0,1,1.2.19,5.16,5.16,0,0,1,1.17.43.45.45,0,0,1,.18.61.46.46,0,0,1-.49.23h0l-1-.2L83,75.59l-1.11-.1-1.11-.1h0a.4.4,0,0,1-.35-.44A.42.42,0,0,1,80.74,74.6Z" transform="translate(12.38 14.89)"/><path class="cls-55" d="M74.57,78.47a.8.8,0,1,1-.78-1A.92.92,0,0,1,74.57,78.47Z" transform="translate(12.38 14.89)"/><path class="cls-55" d="M83.82,78.47a.8.8,0,1,1-.78-1A.92.92,0,0,1,83.82,78.47Z" transform="translate(12.38 14.89)"/><path class="cls-56" d="M77.69,83.82a.24.24,0,1,1,0-.48h1.09a1.37,1.37,0,0,0,1.17-1.51V81.7c0-.31-.19-.56-.41-.56h0a1.22,1.22,0,0,1-1-.49,1.75,1.75,0,0,1-.39-1.12V77.76a.24.24,0,0,1,.24-.24.24.24,0,0,1,.24.24v1.76a1.25,1.25,0,0,0,.28.82.76.76,0,0,0,.6.32h0a1,1,0,0,1,.89,1v.13a1.85,1.85,0,0,1-1.65,2Z" transform="translate(12.38 14.89)"/><path class="cls-57" d="M76.06,85a12.58,12.58,0,0,0,3.45.63c1.7,0,.77,3-1.8,3.12S74.66,84.89,76.06,85Z" transform="translate(12.38 14.89)"/><polygon class="cls-51" points="121.89 180.91 117.02 193.54 94.34 187.09 99.51 172.57 121.89 180.91"/><path class="cls-51" d="M113.57,201.68a1,1,0,0,1-1.08.82l-9,0a1,1,0,0,1-1.09-.8L99.63,172l13.54,0Z" transform="translate(12.38 14.89)"/><ellipse class="cls-51" cx="106.37" cy="171.95" rx="6.77" ry="6.51" transform="translate(12.12 15.06) rotate(-0.09)"/><polygon class="cls-51" points="91.36 198.95 101.54 190.02 87.68 170.94 75.83 180.79 91.36 198.95"/><path class="cls-51" d="M80.66,210.24a1,1,0,0,0,1.15.71l9-.82c.58-.06,1-.45,1-.9l-.06-29.89L78.24,180.6Z" transform="translate(12.38 14.89)"/><ellipse class="cls-51" cx="85.01" cy="179.97" rx="6.77" ry="6.51" transform="translate(-4.03 23.6) rotate(-5.35)"/><rect class="cls-49" x="76.9" y="130.3" width="6.51" height="1.34"/><circle class="cls-49" cx="97.53" cy="131.89" r="0.92"/><circle class="cls-49" cx="97.53" cy="140.07" r="0.92"/><circle class="cls-49" cx="97.53" cy="147.76" r="0.92"/><circle class="cls-49" cx="97.53" cy="156.44" r="0.92"/><circle class="cls-49" cx="97.53" cy="163.96" r="0.92"/><path class="cls-26" d="M140.84,119.77a2.57,2.57,0,0,0-2-1h-32a2.59,2.59,0,0,0-2.52,2l-5.12,21.77a2.59,2.59,0,0,0,2.52,3.18h32a2.57,2.57,0,0,0,2.52-2L141.33,122A2.54,2.54,0,0,0,140.84,119.77Z" transform="translate(12.38 14.89)"/><path class="cls-37" d="M142.31,119.77a2.6,2.6,0,0,0-2-1h-32a2.57,2.57,0,0,0-2.52,2l-5.13,21.77a2.59,2.59,0,0,0,2.52,3.18h32a2.57,2.57,0,0,0,2.52-2L142.8,122A2.6,2.6,0,0,0,142.31,119.77Z" transform="translate(12.38 14.89)"/><rect class="cls-37" x="105.78" y="159.88" width="43.38" height="2.02" rx="0.51"/><rect class="cls-26" x="95.05" y="159.88" width="18.15" height="2.02" rx="0.51"/><polygon class="cls-58" points="163.55 153.8 163.8 160.66 181.71 162.05 181.71 155.68 163.55 153.8"/><polygon class="cls-59" points="162.62 153.84 162.62 152.9 182.89 153.75 182.89 155.63 182.89 161.12 182.89 162.98 162.62 161.43 162.62 160.66 181.33 161.12 181.68 155.48 162.62 153.84"/><polygon class="cls-60" points="182.89 153.75 207.24 153.75 207.24 161.12 182.89 162.98 182.89 153.75"/><polygon class="cls-61" points="205.57 155.2 205.57 159.79 189.7 161.4 189.7 155.2 205.57 155.2"/><polygon class="cls-60" points="199.08 161.27 202.76 161.07 202.76 154.86 202.67 154.86 202.67 160.97 199.18 161.15 199.18 154.55 195.37 154.55 195.37 154.61 195.53 161.21 195.62 161.21 195.46 154.66 199.08 154.66 199.08 161.27"/><polygon class="cls-62" points="181.57 157.24 163.55 154.43 163.55 153.8 181.68 155.48 181.57 157.24"/><path class="cls-61" d="M173,143.37a2.15,2.15,0,0,0,1.65,2.4c1,0,1.76-.94,1.81-2.21a2.12,2.12,0,0,0-1.64-2.39C173.85,141.12,173,142.1,173,143.37Zm.58,0c0-.85.57-1.51,1.21-1.48a1.43,1.43,0,0,1,1.1,1.6c0,.85-.57,1.51-1.21,1.47A1.41,1.41,0,0,1,173.57,143.41Z" transform="translate(12.38 14.89)"/><path class="cls-58" d="M174.51,145l.16,0c.64,0,1.18-.62,1.21-1.47a1.43,1.43,0,0,0-1.1-1.6h-.16a1.48,1.48,0,0,1,.95,1.57A1.41,1.41,0,0,1,174.51,145Z" transform="translate(12.38 14.89)"/><path class="cls-28" d="M173.57,143.41a1.48,1.48,0,0,0,.94,1.57,1.41,1.41,0,0,0,1.06-1.47,1.48,1.48,0,0,0-.95-1.57A1.41,1.41,0,0,0,173.57,143.41Z" transform="translate(12.38 14.89)"/><polygon class="cls-61" points="208.27 148.16 208.02 152.74 187.07 153.67 187.07 147.3 208.27 148.16"/><polygon class="cls-28" points="209.2 148.2 209.2 147.25 185.89 145.36 185.89 147.25 185.89 152.74 185.89 154.6 209.2 153.51 209.2 152.74 187.45 152.74 187.76 147.33 209.2 148.2"/><polygon class="cls-8" points="185.89 145.36 161.54 145.36 161.54 152.74 185.89 154.6 185.89 145.36"/><polygon class="cls-61" points="163.21 146.82 163.21 151.41 179.08 153.02 179.08 146.82 163.21 146.82"/><polygon class="cls-8" points="169.7 152.89 166.02 152.69 166.02 146.48 166.11 146.48 166.11 152.59 169.6 152.77 169.6 146.17 173.41 146.17 173.41 146.23 173.25 152.83 173.16 152.83 173.32 146.28 169.7 146.28 169.7 152.89"/><polygon class="cls-58" points="187.67 148.78 208.27 148.78 208.27 148.16 187.76 147.33 187.67 148.78"/><path class="cls-61" d="M169.22,132.79a2.12,2.12,0,0,0-1.65,2.39c.05,1.27.86,2.26,1.81,2.21A2.15,2.15,0,0,0,171,135C171,133.72,170.17,132.74,169.22,132.79Zm.13,3.83c-.63,0-1.18-.62-1.21-1.47a1.43,1.43,0,0,1,1.1-1.6c.65,0,1.19.63,1.22,1.47A1.42,1.42,0,0,1,169.35,136.62Z" transform="translate(12.38 14.89)"/><path class="cls-58" d="M169.51,136.6l-.16,0c-.63,0-1.18-.62-1.21-1.47a1.43,1.43,0,0,1,1.1-1.6h.16a1.47,1.47,0,0,0-1,1.57A1.43,1.43,0,0,0,169.51,136.6Z" transform="translate(12.38 14.89)"/><path class="cls-28" d="M170.46,135a1.51,1.51,0,0,1-1,1.58,1.43,1.43,0,0,1-1.06-1.47,1.47,1.47,0,0,1,1-1.57A1.43,1.43,0,0,1,170.46,135Z" transform="translate(12.38 14.89)"/><path class="cls-63" d="M151.26,141.32l0,.62s7.94.59,7.82.56S151.26,141.32,151.26,141.32Z" transform="translate(12.38 14.89)"/><polygon class="cls-63" points="163.72 158.49 175.32 159.14 163.74 159.14 163.72 158.49"/><polygon class="cls-58" points="208.17 149.97 208.15 150.49 200.37 149.98 208.17 149.97"/><polygon class="cls-64" points="42.45 178.35 48.03 178.35 35.43 249.42 31.72 249.42 42.45 178.35"/><polygon class="cls-64" points="49.96 167.52 49.91 167.84 44.03 167.84 44.08 167.52 49.96 167.52"/><polygon class="cls-65" points="48.73 178.35 53.08 178.35 44.08 241.39 41.61 241.39 48.73 178.35"/><polygon class="cls-65" points="54.61 167.52 54.56 167.84 49.94 167.84 49.96 167.52 54.61 167.52"/><polygon class="cls-64" points="198.04 167.84 192.16 167.84 192.11 167.52 197.99 167.52 198.04 167.84"/><polygon class="cls-64" points="210.33 249.42 206.62 249.42 194.04 178.35 199.63 178.35 210.33 249.42"/><polygon class="cls-65" points="192.13 167.84 187.54 167.84 187.49 167.52 192.11 167.52 192.13 167.84"/><polygon class="cls-65" points="200.44 241.39 197.97 241.39 189.02 178.35 193.32 178.35 200.44 241.39"/><rect class="cls-66" x="23.08" y="161.66" width="197.15" height="6.18"/><polygon class="cls-67" points="49.91 167.84 48.03 178.35 42.45 178.35 44.03 167.84 49.91 167.84"/><polygon class="cls-68" points="54.56 167.84 53.08 178.35 48.73 178.35 49.91 167.84 54.56 167.84"/><polygon class="cls-68" points="193.32 178.35 189.02 178.35 187.54 167.84 192.16 167.84 193.32 178.35"/><polygon class="cls-67" points="199.63 178.35 194.04 178.35 192.16 167.84 198.04 167.84 199.63 178.35"/><path class="cls-48" d="M73.26,54.94c-.13-4.13-6.68-2.93-5.29,1.5-1.39-1.5-3.52-2.09-5.55.07-.92,1-.79,2.78-.4,4.06-1.69-.08-3.79.3-4.11,2.7a2.85,2.85,0,0,0,1.83,3.23c-4.32.22-4.45,6.75-.2,6.83-1.31.82-2.35,1.65-2.22,3.6.2,2.25,1.57,2.48,3.14,2.56-2.16,3.52.26,6.38,3.65,5.25.07,1.28-.19,2.4,1,3.15a4.59,4.59,0,0,0,4.51-.15c.2,1.2.46,2,1.57,2.26s1.7-.45,2.42-.23c.91.3,1.44,1.13,2.55.68s1.37-1.66,2.28-2.18c1.7-1,3.47.22,4.71,1.58s3.59,2,3.92-.68c1,.23,2.35,1,3.4.23.78-.61.58-1.73.65-2.71,2.61,1.73,4.7-.52,3.4-3.53,1.11-.52,1.63.08,2.61-1,1.5-1.58.91-3.48.39-5,0,0,.39.09,1-.88a5.69,5.69,0,0,0,.59-1.8c.2-1.28,0-2.48-1.18-3,1-1.5,2.09-2.33,1.57-4.5a3.6,3.6,0,0,0-2.87-2.86c2.35-2.62.26-7.35-2.94-6.6,1.39-3.08-2-6-4.25-3.31a3.13,3.13,0,0,0-6-1.27A3.07,3.07,0,0,0,79.53,51c-1.24.6-1.5,1.58-1.63,2.85-.59-1.5-1.7-2.4-3.33-1.72-1,.45-1.24,1.65-1.37,2.78" transform="translate(12.38 14.89)"/><path class="cls-17" d="M92.15,76.38c-.35,1.1-2.92,3.65-3.88,1.87l.62-5.87h0a2.94,2.94,0,0,1,2-.32l.29.11C92.63,72.89,92.57,75.08,92.15,76.38Z" transform="translate(12.38 14.89)"/><path class="cls-17" d="M67.85,72.25A2.69,2.69,0,0,0,65.54,72c-1.43.72-1.37,2.91-1,4.21.36,1.1,2.93,3.65,3.88,1.87" transform="translate(12.38 14.89)"/><path class="cls-17" d="M68.81,69.09c-1.1,1.64-1.21,4-1.08,6,.18,2.82.45,6.73.62,8,.27,2,2.32,8,10.35,7.83,5.79-.28,9.46-2,10.08-10.22a41.21,41.21,0,0,0-.12-9.93C88.34,69,87.35,67.6,87,66.23c-.68-2.58-1.28-4.29-1.28-4.29L79,61.26l-5.79.07-3.81.41-.75,2.38Z" transform="translate(12.38 14.89)"/><path class="cls-48" d="M68.31,65.52c-.57,1.3-.92,3.15.7,4s2.68-.21,3.81-1.1c.28,1.78.35,3.29,2.6,3.36,1.69,0,3.24-1,3.31-2.68-.28,2.89,4.09,3,4.3.07a3.31,3.31,0,0,0,4.09,2.47c1.69-.41,1.83-1.92,1.19-3.22,1.9-.34,4-.14,3.45-2.75-.42-2.19-1.76-2.47-3.66-3,.92-1.5,1.2-3.29-.63-4.32a3.07,3.07,0,0,0-3.74.69,3.47,3.47,0,0,0-2.88-3.43,2.36,2.36,0,0,0-3,2.19c-1.13-1.37-2.26-2.6-4.23-2.12-1.76.48-1.83,1.78-1.9,3.29-2.89-2.33-5.43,1.3-2.75,3.7-1.2-.41-3-.82-3.38.83s1.41,2,2.68,2" transform="translate(12.38 14.89)"/><path class="cls-55" d="M76.18,73.66c-.4,0-.81.08-1.21.11l-1.21.11c-.4,0-.79.09-1.18.15s-.77.13-1.15.21h0a.5.5,0,0,1-.58-.39.49.49,0,0,1,.25-.53,5.61,5.61,0,0,1,1.27-.48,9.64,9.64,0,0,1,1.31-.2,9.4,9.4,0,0,1,1.3,0,7.24,7.24,0,0,1,1.3.17.43.43,0,0,1,0,.85Z" transform="translate(12.38 14.89)"/><path class="cls-55" d="M81,72.81a7.36,7.36,0,0,1,1.3-.17,9.56,9.56,0,0,1,1.31,0,9.74,9.74,0,0,1,1.3.2,5.27,5.27,0,0,1,1.27.48.49.49,0,0,1-.33.92h0q-.56-.12-1.14-.21c-.39-.06-.79-.11-1.18-.15l-1.21-.11c-.4,0-.82-.06-1.22-.11h0a.43.43,0,0,1-.38-.48A.44.44,0,0,1,81,72.81Z" transform="translate(12.38 14.89)"/><path class="cls-55" d="M74.3,77s-.2,1.1-.85,1.1-.91-1-.84-1.1.4.64.89.62S74.25,77,74.3,77Z" transform="translate(12.38 14.89)"/><path class="cls-55" d="M84.38,77c.07,0-.17,1.1-.84,1.1s-.9-1.06-.84-1.1.34.61.82.62S84.33,77,84.38,77Z" transform="translate(12.38 14.89)"/><path class="cls-56" d="M77.7,82.86a.26.26,0,0,1-.26-.26.25.25,0,0,1,.26-.27h1.18a1.51,1.51,0,0,0,1.28-1.65v-.14c0-.33-.21-.61-.45-.61h0a1.39,1.39,0,0,1-1.07-.53,1.93,1.93,0,0,1-.42-1.23V76.25a.27.27,0,0,1,.53,0v1.92a1.45,1.45,0,0,0,.3.9.85.85,0,0,0,.66.34h0a1.06,1.06,0,0,1,1,1.13v.13a2,2,0,0,1-1.8,2.18Z" transform="translate(12.38 14.89)"/><path class="cls-57" d="M74.59,85.67a11.7,11.7,0,0,0,3.46.72c1.8.1,2.8-.28,2.92,0s-1.44,2-3.25,1.84A3.92,3.92,0,0,1,74.59,85.67Z" transform="translate(12.38 14.89)"/><path class="cls-69" d="M259.23,88.13a25.86,25.86,0,0,0,.53-15.56c-1.09-3.74-2.75-9.58-8.22-11.72a12.81,12.81,0,0,0-13.12,2.8c-2.85,2.8-3.23,6.28-3.85,12.77a58.14,58.14,0,0,0,.53,14.86Z" transform="translate(12.38 14.89)"/><path class="cls-70" d="M246.38,83.1a18.05,18.05,0,0,1-2.78,6.74c-2,3-4,3.85-3.78,4.9s2.48,2,12.33,1.7a39.68,39.68,0,0,0-1.84-13.25Z" transform="translate(12.38 14.89)"/><path class="cls-71" d="M252.56,73.92s2.72-3.72,3.51-.15c.63,2.85-2.88,6-3.49,4.41C252.44,77.82,252.56,73.92,252.56,73.92Z" transform="translate(12.38 14.89)"/><path class="cls-71" d="M251,68.9l1.58,7.87,1.58-4.33a16.37,16.37,0,0,1,.18,3c0,6-6.78,10.46-9.18,10.46-4.94,0-8.89-7.55-7.25-10.46A3.42,3.42,0,0,1,240.17,74Z" transform="translate(12.38 14.89)"/><path class="cls-72" d="M248,71a4.51,4.51,0,0,1,.84.23,5.7,5.7,0,0,1,.8.35,4.87,4.87,0,0,1,.75.46,3.52,3.52,0,0,1,.66.62.33.33,0,0,1-.05.46.32.32,0,0,1-.39,0h0c-.21-.15-.43-.29-.65-.43s-.45-.27-.68-.4l-.72-.38-.72-.38h0a.28.28,0,0,1-.11-.39A.27.27,0,0,1,248,71Z" transform="translate(12.38 14.89)"/><path class="cls-20" d="M241.32,75.5a.67.67,0,0,1-.57.74c-.31,0-.56-.33-.56-.74s.25-.74.56-.74A.67.67,0,0,1,241.32,75.5Z" transform="translate(12.38 14.89)"/><path class="cls-20" d="M248,75.14a.58.58,0,1,1-1.12,0c0-.41.25-.74.56-.74S248,74.73,248,75.14Z" transform="translate(12.38 14.89)"/><path class="cls-73" d="M254.42,90.23a46,46,0,0,0-4.5,3.19,4.56,4.56,0,0,1-5.28.79A5.37,5.37,0,0,1,242,90.59a11.74,11.74,0,0,0-4.09,6c-1,3.82.85,6.32,1.23,11.41a25.15,25.15,0,0,1-1.3,9.9l16.62-.26a19.14,19.14,0,0,1-.87-7.36c.32-3.76,1.65-5.46,2.3-8.54C256.38,99.21,256.53,95.42,254.42,90.23Z" transform="translate(12.38 14.89)"/><path class="cls-74" d="M238.13,117.09a59.45,59.45,0,0,0,16.72,0,25.47,25.47,0,0,1,6.74,14.66l-29.32,1.76a20,20,0,0,1,.15-5.28A21.21,21.21,0,0,1,238.13,117.09Z" transform="translate(12.38 14.89)"/><path class="cls-75" d="M252.07,89.25a13.26,13.26,0,0,1,6,1c1.78.74,2,1.35,8.31,7.56a48.74,48.74,0,0,1,5.44,5.9c1.69,2.25,2.15,3.38,2.18,4.62a8.1,8.1,0,0,1-1.73,4.56,15.74,15.74,0,0,1-3.32,3.65,22.17,22.17,0,0,1-2.93,2.15l-2.74-2.73c2.13-2.94,3.69-5.08,4.24-5.76a2,2,0,0,0,.39-.76,2.18,2.18,0,0,0-.2-1.43c-.83-.77-2.08-1.89-3.65-3.2-2.71-2.27-4.59-3.63-5.28-4.17C256.64,98.91,254,95.75,252.07,89.25Z" transform="translate(12.38 14.89)"/><path class="cls-75" d="M256.36,89.72c1.66.7,1.87,3.81,2.1,7.87.24,4.24.36,6.35-.51,8.23a19.3,19.3,0,0,0-1.84,4.09,14,14,0,0,0-.45,3.62,15.12,15.12,0,0,0,2.7,8.21,18.09,18.09,0,0,1-9,3.29c0-7.58-.06-12.7-.09-16.75a51.61,51.61,0,0,1,1-12.91,44.41,44.41,0,0,1,1.84-6.12,13.16,13.16,0,0,1,2.05,0A11.15,11.15,0,0,1,256.36,89.72Z" transform="translate(12.38 14.89)"/><path class="cls-75" d="M243.6,89.84a26.5,26.5,0,0,0-1.76,3.52,21,21,0,0,0-1.56,5.6c-.25,2.11.17,2.33.45,6.26.25,3.43-.08,3.14.13,7.43.19,3.78.48,4.57.26,6.84a23.94,23.94,0,0,1-1,4.82,8.31,8.31,0,0,1-5.74-2.67c.41-.73,1-1.75,1.63-3a26.65,26.65,0,0,0,1.89-4,11.61,11.61,0,0,0,.72-3.45c0-2.16-.77-3.12-1.5-5.47a19,19,0,0,1-.85-6.13,14.22,14.22,0,0,1,3.32-8.28Z" transform="translate(12.38 14.89)"/><path class="cls-71" d="M263.28,115.91l-.72.68c-.68.64-.94.86-1.05,1-.84.67-1.14.73-1.26.74a1.74,1.74,0,0,1-.81-.09l-3.21-3.81a13.2,13.2,0,0,0-2.37-.2,28.07,28.07,0,0,0-2.85.22l-2,.17a1.28,1.28,0,0,0,.55.75,1.94,1.94,0,0,0,1.11.1c.46,0,.92,0,1.37,0a22.68,22.68,0,0,1,2.64,0c-.34.13-.86.31-1.51.5a12.53,12.53,0,0,0-1.6.48c-.83.35-.71.53-1.58.91-.66.29-1.14.36-1.17.64s.22.39.24.41.29.2,1,0a5,5,0,0,0,.92-.33,9.39,9.39,0,0,1,1.21-.55l.81-.18.52-.09a10.64,10.64,0,0,0,2-.81h0s-1.55.74-3.68,1.58c-.89.35-1.62.62-2.13.81a.52.52,0,0,0-.06.43s.12.21.72.22a3.37,3.37,0,0,0,1.36-.29,18.89,18.89,0,0,0,1.73-.92,5.72,5.72,0,0,1,2-.58c-.49.13-1,.29-1.58.5a13.91,13.91,0,0,0-2.66,1.37.82.82,0,0,0,.28.38,1.14,1.14,0,0,0,.95.07,4.17,4.17,0,0,0,.85-.36,4.86,4.86,0,0,1,1.11-.43c.43-.1.51,0,1.17-.12a7.52,7.52,0,0,0,.79-.14c.19.31.5.77.89,1.3.81,1.1,1.08,1.27,1.31,1.35a2.38,2.38,0,0,0,1.59-.11,14.32,14.32,0,0,0,3.19-1.1,15.91,15.91,0,0,0,2.66-1.62Z" transform="translate(12.38 14.89)"/><path class="cls-70" d="M249.29,115.13l5.66.15-1.81.57c.47-.14.57-.23.56-.29s-.09-.1-.09-.1-.14,0-.26,0h-.24c-.15,0-1,0-3.17,0a.84.84,0,0,1-.33-.07A.82.82,0,0,1,249.29,115.13Z" transform="translate(12.38 14.89)"/><path class="cls-76" d="M255.56,117.52a12.78,12.78,0,0,0-2.64,1,11.87,11.87,0,0,0-1.71,1" transform="translate(12.38 14.89)"/><path class="cls-76" d="M249,118.29a3.87,3.87,0,0,0,1.68-.13c.66-.21.82-.47,1.71-.78.51-.17.61-.14,1.2-.3a10.27,10.27,0,0,0,1.89-.73" transform="translate(12.38 14.89)"/><path class="cls-77" d="M243.72,184.31a15.38,15.38,0,0,0-.85,7.83h-1.36v-6.33a5.51,5.51,0,0,0-.64,1.56,16.41,16.41,0,0,0-.14,2.57,8,8,0,0,1-.5,2.2l-6.34-.07a4.54,4.54,0,0,1,1.43-2,19.91,19.91,0,0,1,1.78-1,7.82,7.82,0,0,0,1.78-1.64c.93-1.21.76-2,1.36-3.51a9.19,9.19,0,0,1,2.2-3.18,2,2,0,0,1,1.85.93A2.08,2.08,0,0,1,243.72,184.31Z" transform="translate(12.38 14.89)"/><path class="cls-71" d="M238,180.82a24,24,0,0,0-.81,3.94,23.09,23.09,0,0,0-.11,4.32,5.92,5.92,0,0,0,1.78-1.64c.87-1.22.81-2.19,1.49-3.84a12.18,12.18,0,0,1,1.64-2.78Z" transform="translate(12.38 14.89)"/><path class="cls-71" d="M259.66,179.94l-3.35-.19.11,2.74c-.19,1-.4,1.74-.56,2.29-.36,1.21-.76,2.23-1.27,3.57l-.35.87h6.28c-.38-2.4-.77-4.81-1.15-7.21C259.46,181.32,259.56,180.63,259.66,179.94Z" transform="translate(12.38 14.89)"/><path class="cls-77" d="M259.45,182.19c.42,1.58.81,3.29,1.14,5.14.25,1.42.44,2.78.58,4.06-1.4.1-2.89.16-4.46.16-1.3,0-2.54,0-3.72-.11a4.73,4.73,0,0,1,.56-2.49,4.42,4.42,0,0,1,1.07-1.3c1.35-4.22,1.73-5.18,1.8-5.16a17.91,17.91,0,0,1-.84,3.41c-.28.91-.57,1.67-.8,2.23H260Z" transform="translate(12.38 14.89)"/><path class="cls-74" d="M261.09,128.8c.15.66.34,1.66.5,2.88.65,4.95,0,8.53-.62,12.7-.42,2.87-1,7.09-1.47,12.48a55.09,55.09,0,0,1,.71,23.61l-4.5.18a51.71,51.71,0,0,1-2.81-23.93c-1.07-2.84-2.11-5.84-3.07-9a144.38,144.38,0,0,1-4.26-18Z" transform="translate(12.38 14.89)"/><path class="cls-74" d="M233.81,125.5l-5.13,19.73s-.38,4.39-.4,4.68c-.41,4.86,2.33,11.86,3.6,15.22,1.42,3.72,3.42,9.22,5.67,16.37l4.62-.82c-.28-2.05-.69-5.27-1-9.27-.44-5.44-.38-7.22-.92-10.21a29.72,29.72,0,0,0-4-10.22A53.45,53.45,0,0,0,247,126.38Z" transform="translate(12.38 14.89)"/><path class="cls-78" d="M244.69,73.7a16.15,16.15,0,0,1-.31,1.91,3.86,3.86,0,0,1-1.06,1.73,1.26,1.26,0,0,0-.44.62.4.4,0,0,0,.14.43,5,5,0,0,0,1.63.6s0,0,0,0,0,0,0,0a3.06,3.06,0,0,1-1,.19,1.85,1.85,0,0,1-1.08-.26,1.09,1.09,0,0,1-.44-.56,1.07,1.07,0,0,1,0-.71,1.92,1.92,0,0,1,.75-.83,3.29,3.29,0,0,0,1.09-1.4,16.69,16.69,0,0,0,.6-1.81s0,0,0,0S244.69,73.68,244.69,73.7Z" transform="translate(12.38 14.89)"/><path class="cls-75" d="M240.51,91.05a13.18,13.18,0,0,0-6,.94c-1.78.75-2,1.35-8.31,7.56a47.9,47.9,0,0,0-5.44,5.9c-1.7,2.25-2.16,3.38-2.19,4.62a8.2,8.2,0,0,0,1.73,4.57,16,16,0,0,0,3.32,3.65,22.43,22.43,0,0,0,2.94,2.15l2.73-2.74c-2.13-2.93-3.69-5.07-4.24-5.76a1.89,1.89,0,0,1-.38-.76,2.14,2.14,0,0,1,.19-1.43c.83-.76,2.09-1.88,3.65-3.19,2.71-2.28,4.59-3.64,5.28-4.17C236,100.7,238.57,97.54,240.51,91.05Z" transform="translate(12.38 14.89)"/><path class="cls-71" d="M229.3,117.7l.72.68c.68.64.94.86,1,1,.84.67,1.14.73,1.26.75a1.66,1.66,0,0,0,.82-.1l3.2-3.8a13.4,13.4,0,0,1,2.37-.21c.76,0,1.21.07,2.85.22l2,.17a1.3,1.3,0,0,1-.56.75c-.28.17-.56.13-1.11.1s-.91,0-1.37,0a23.09,23.09,0,0,0-2.63,0c.34.12.86.3,1.5.49a14.47,14.47,0,0,1,1.6.48c.84.36.71.54,1.58.92.66.28,1.14.35,1.17.63s-.21.4-.24.42-.28.19-1,0a4.11,4.11,0,0,1-.91-.33,9.52,9.52,0,0,0-1.21-.54c-.21-.06-.46-.11-.82-.18s-.37-.06-.52-.1a11.43,11.43,0,0,1-2-.8h0s1.54.73,3.67,1.57c.89.35,1.63.63,2.13.81a.52.52,0,0,1,.06.43s-.12.22-.72.22a3.62,3.62,0,0,1-1.36-.28c-.88-.39-1.17-.65-1.73-.93a6.18,6.18,0,0,0-2-.58,14.31,14.31,0,0,1,1.58.51,13.93,13.93,0,0,1,2.66,1.36.78.78,0,0,1-.28.38,1.15,1.15,0,0,1-1,.08,4.06,4.06,0,0,1-.84-.37,5.43,5.43,0,0,0-1.12-.43c-.42-.09-.51,0-1.17-.11-.33,0-.61-.11-.78-.15-.2.31-.5.77-.9,1.3-.81,1.1-1.08,1.27-1.3,1.36a2.48,2.48,0,0,1-1.6-.11,15.61,15.61,0,0,1-3.19-1.1,16.49,16.49,0,0,1-2.66-1.63Z" transform="translate(12.38 14.89)"/><path class="cls-22" d="M243.48,83a6.63,6.63,0,0,0,1.94-.34c1-.33,1.4-.74,1.52-.61s-.34,1.32-1.31,1.63A2.18,2.18,0,0,1,243.48,83Z" transform="translate(12.38 14.89)"/></svg>