<?xml version="1.0" encoding="utf-8"?>
<!-- Generator: Adobe Illustrator 24.0.2, SVG Export Plug-In . SVG Version: 6.00 Build 0)  -->
<svg version="1.1" xmlns="http://www.w3.org/2000/svg" xmlns:xlink="http://www.w3.org/1999/xlink" x="0px" y="0px"
	 viewBox="0 0 300 200" style="enable-background:new 0 0 300 200;" xml:space="preserve">
<style type="text/css">
	.st0{fill:none;}
	.st1{fill:#644C2C;}
	.st2{fill:#584327;}
	.st3{opacity:0.5;}
	.st4{fill:#F1E9DE;}
	.st5{fill:#2C2214;}
	.st6{opacity:0.3;fill:#FFFFFF;}
	.st7{fill:#FFFFFF;stroke:#FFFFFF;stroke-linecap:round;stroke-linejoin:round;stroke-miterlimit:10;}
	.st8{clip-path:url(#SVGID_2_);}
	.st9{fill:#F15A24;}
	.st10{fill:#1D1D1B;}
	.st11{fill:#D49E6E;}
	.st12{fill:#FFFFFF;}
	.st13{fill:#DEA370;}
	.st14{fill:#E42320;}
	.st15{fill:none;stroke:#B17F49;stroke-miterlimit:10;}
	.st16{fill:#060405;}
	.st17{opacity:0.72;fill:#8B6239;}
	.st18{fill:#721925;}
	.st19{fill:#2D2D2D;}
	.st20{fill:#29292C;}
	.st21{opacity:0.2;fill:#0D3043;}
	.st22{fill:#E40517;}
	.st23{fill:#D69F6E;}
	.st24{fill:#808DAA;}
	.st25{fill:#BF8D64;}
	.st26{fill:#EDEDED;}
	.st27{fill:url(#SVGID_3_);}
	.st28{fill:url(#SVGID_4_);}
	.st29{fill:url(#SVGID_5_);}
	.st30{fill:url(#SVGID_6_);}
	.st31{fill:url(#SVGID_7_);}
	.st32{fill:url(#SVGID_8_);}
	.st33{fill:url(#SVGID_9_);}
	.st34{fill:url(#SVGID_10_);}
	.st35{fill:#080305;}
	.st36{opacity:0.72;fill:#8C6239;}
	.st37{fill:#721A25;}
	.st38{fill:#A91917;}
	.st39{fill:#ED9D84;}
	.st40{fill:#F5AC96;}
	.st41{fill:#7E140A;}
	.st42{fill:#F6E297;}
	.st43{fill:#37536E;}
	.st44{fill:#22B0AF;}
	.st45{fill:none;stroke:#F1977F;stroke-miterlimit:10;}
	.st46{fill:#E6E6E6;}
	.st47{fill:#C7C6B3;}
	.st48{fill:#191A1A;}
	.st49{fill:#BFC2C0;}
	.st50{fill:#E97D5B;}
	.st51{fill:#F3A489;}
	.st52{fill:#F5AC92;}
	.st53{fill:none;stroke:#F3A489;stroke-width:2;stroke-miterlimit:10;}
	.st54{fill:#F5AC91;}
	.st55{fill:#3A2900;}
	.st56{fill:#DE9678;}
	.st57{fill:#85441D;}
	.st58{fill:#D8826C;}
	.st59{fill:#F0A98F;}
	.st60{fill:#F7F7F7;}
	.st61{fill:#669EC1;}
	.st62{fill:#FB9988;}
	.st63{fill:#FD7D6F;}
	.st64{fill:#262424;}
	.st65{fill:#E03B72;}
	.st66{fill:#752E33;}
	.st67{opacity:0.08;}
	.st68{fill:#99360A;}
</style>
<pattern  width="464.66" height="462.02" patternUnits="userSpaceOnUse" id="Motivo_nuevo_2" viewBox="0 -462.02 464.66 462.02" style="overflow:visible;">
	<g>
		<rect y="-462.02" class="st0" width="464.66" height="462.02"/>
		<rect x="0" y="-462.02" class="st1" width="464.66" height="462.02"/>
		<rect x="22.49" y="-462.02" class="st2" width="74.84" height="462.02"/>
		<rect x="120.9" y="-462.02" class="st2" width="85.39" height="462.02"/>
		<rect x="229.87" y="-462.02" class="st2" width="59.6" height="462.02"/>
		<rect x="313.06" y="-462.02" class="st2" width="70.15" height="462.02"/>
		<rect x="406.8" y="-462.02" class="st2" width="57.86" height="462.02"/>
		<g class="st3">
			<rect x="124.48" y="-462.02" class="st4" width="33.37" height="462.02"/>
			<rect x="33.25" y="-462.02" class="st4" width="37.65" height="462.02"/>
			<rect x="232.56" y="-462.02" class="st4" width="37.98" height="462.02"/>
			<rect x="181.84" y="-462.02" class="st4" width="12.89" height="462.02"/>
			<rect x="413.44" y="-462.02" class="st4" width="51.21" height="462.02"/>
			<rect x="317.57" y="-462.02" class="st4" width="35.59" height="462.02"/>
		</g>
		<g class="st3">
			<rect y="-187.11" class="st5" width="464.66" height="26.03"/>
			<rect y="-123.85" class="st5" width="464.66" height="62.18"/>
			<rect y="-30.21" class="st5" width="464.66" height="30.21"/>
			<rect x="0" y="-436.19" class="st5" width="464.66" height="62.18"/>
			<rect y="-285.8" class="st5" width="464.66" height="68.32"/>
			<rect y="-329.18" class="st5" width="464.66" height="16.99"/>
		</g>
		<rect x="0" y="-448.02" class="st6" width="464.66" height="30.78"/>
		<rect y="-393.79" class="st6" width="464.66" height="45.95"/>
		<rect x="0" y="-324.38" class="st6" width="464.66" height="58.97"/>
		<rect y="-241.96" class="st6" width="464.66" height="62.22"/>
		<rect y="-156.28" class="st6" width="464.66" height="55.71"/>
		<rect y="-77.11" class="st6" width="464.66" height="53.55"/>
		<rect x="0" y="-0.11" class="st6" width="464.66" height="0.11"/>
	</g>
</pattern>
<g id="Capa_1">
	<rect x="-0.5" y="-0.5" class="st7" width="301" height="202"/>
</g>
<g id="Capa_3">
</g>
<g id="Capa_2">
	<g>
		<defs>
			<rect id="SVGID_1_" x="0" width="300" height="200"/>
		</defs>
		<clipPath id="SVGID_2_">
			<use xlink:href="#SVGID_1_"  style="overflow:visible;"/>
		</clipPath>
		<g class="st8">
			<path class="st9" d="M-413,1122c-30-820,862-750,677.93-1261.07C107.62-575.86-754-372-890-878c734,0,2323,0,2323,0v2000H-413z"
				/>
			<path class="st9" d="M797.01-736.99C694.77,77.16-174.37-135.35-74.87,398.67c85.04,456.4,968.22,393.72,1021.1,915.01
				c-724.45-118.02-2292.78-373.5-2292.78-373.5l321.57-1973.98L797.01-736.99z"/>
		</g>
		<g class="st8">
			<g>
				<path class="st10" d="M105.59,156.46l0.46,9.84c0,0,18.83,3.53,3.85-2.28l-0.52-6.25L105.59,156.46z"/>
				<path class="st11" d="M105.94,163.95l-0.35-7.49l3.79,1.31l0.43,5.23C108.53,163.36,107.24,163.67,105.94,163.95z"/>
				<path class="st12" d="M111.9,166.65c0.26-0.51,0.57-0.99,0.92-1.47c2.22,1,2.98,1.58,2.85,1.88c-0.17,1.2-9.63-0.69-9.63-0.69
					l-0.02-0.66C106.5,165.8,109.39,166.36,111.9,166.65z"/>
			</g>
			<g>
				<path class="st10" d="M121.48,156.49l0.46,9.84c0,0,18.83,3.53,3.85-2.28l-0.52-6.25L121.48,156.49z"/>
				<path class="st11" d="M121.83,163.98l-0.35-7.49l3.79,1.31l0.43,5.23C124.42,163.39,123.13,163.7,121.83,163.98z"/>
				<path class="st12" d="M127.79,166.68c0.26-0.51,0.57-0.99,0.92-1.47c2.22,1,2.98,1.58,2.85,1.88c-0.17,1.2-9.63-0.69-9.63-0.69
					l-0.02-0.66C122.4,165.83,125.28,166.39,127.79,166.68z"/>
			</g>
			<rect x="103.95" y="119.93" class="st10" width="22.84" height="14.57"/>
			<path class="st10" d="M116.12,124.13l3.33,34.54c0.02,0.29,0.34,0.52,0.74,0.52l6.14-0.01c0.4,0,0.73-0.24,0.74-0.53l-0.44-34.78
				L116.12,124.13z"/>
			<path class="st10" d="M116.27,123.71l-3.83,35.38c-0.02,0.3-0.39,0.53-0.85,0.53l-7.05-0.01c-0.46,0-0.84-0.24-0.85-0.54
				l0.5-35.63L116.27,123.71z"/>
			
				<rect x="114.7" y="80.77" transform="matrix(0.9916 0.1297 -0.1297 0.9916 12.3434 -14.579)" class="st13" width="6.82" height="13.42"/>
			<path class="st11" d="M146.69,97.14c0.05-0.16,0.09-0.31,0.14-0.47c0.24-0.46,0.47-0.93,0.71-1.39c0.04-0.79-0.01-1.41-0.06-1.84
				c-0.06-0.49-0.15-0.87,0.08-1.07c0.25-0.22,0.65-0.11,0.69-0.09c0.4,0.12,0.59,0.48,0.73,0.74c0.43,0.82,0.37,1.7,0.29,2.2
				c0.46-0.28,1.14-0.62,1.99-0.89c0.25-0.08,0.7-0.21,2.65-0.44c2.55-0.3,2.92-0.22,3.05,0.01c0.15,0.28-0.07,0.72-0.3,0.96
				c-0.35,0.37-0.76,0.3-2.37,0.51c-0.6,0.08-0.91,0.12-1.29,0.21c-1.16,0.27-1.87,0.68-1.86,0.72c0.01,0.04,0.71-0.37,1.27-0.08
				c0.1,0.05,0.37,0.21,0.44,0.52c0.07,0.31-0.11,0.57-0.16,0.65c-0.33,0.47-0.95,0.46-1.02,0.46c0.4-0.15,0.85-0.01,1.06,0.32
				c0.19,0.31,0.15,0.71-0.05,0.96c-0.15,0.19-0.37,0.24-0.46,0.27c-0.36,0.1-0.7-0.03-0.7-0.01c-0.01,0.02,0.55,0.05,0.69,0.35
				c0.11,0.22-0.02,0.53-0.17,0.71c-0.1,0.12-0.34,0.33-1.17,0.37c-0.39,0.02-1.01,0.01-1.95-0.25c-0.39-0.11-0.92-0.28-1.52-0.56
				c-1.17,0.11-2.34,0.21-3.52,0.32c-0.23-1-0.47-2-0.7-2.99C144.33,97.26,145.51,97.2,146.69,97.14z"/>
			<g>
				<path class="st14" d="M138.33,95.98c-0.08-0.02-0.12-0.03-0.12-0.03l-4.71-2.86c0,0-7.83-7.27-9.94-5.5
					c-2.09,1.75-1.94,4.48-0.7,6.31c2.04,3.01,11.74,8.09,13.54,8.76c0,0,0,0,0,0L138.33,95.98z"/>
				<g>
					<path class="st14" d="M145.57,101.38c0.56-0.27,0.18-4.93-0.48-5.51c-0.62-0.54-8.06,0.44-8.98,0.56l0.67,6.34
						C138.19,102.76,145.01,101.65,145.57,101.38z"/>
					
						<ellipse transform="matrix(0.9919 -0.1272 0.1272 0.9919 -11.56 18.1713)" class="st14" cx="136.49" cy="99.6" rx="2.22" ry="3.16"/>
				</g>
			</g>
			<path class="st12" d="M118.13,91.2c1.88,0.02,3.76-1.9,3.49-4.3c1.85,0.22,3.71,0.44,5.56,0.67c0.46,4.92,0.68,10.38,0.45,16.3
				c-0.11,2.78-0.31,5.44-0.57,7.97c-0.05,2.99-0.09,5.97-0.14,8.96c-7.62-0.16-15.25-0.32-22.87-0.48
				c-0.68-13.27-0.8-23.48-0.56-28.54c0.08-1.68,0.26-4.66,2.33-6.09c1.44-0.99,3.4-0.72,4.5-0.6c2.07,0.24,3.61,1.07,4.45,1.61
				C114.37,89.14,116.22,91.18,118.13,91.2z"/>
			<path class="st11" d="M86.13,108.66c0.11,0.11,0.22,0.21,0.33,0.32c0.28,0.4,0.57,0.8,0.85,1.19c0.64,0.37,1.19,0.6,1.57,0.74
				c0.43,0.16,0.79,0.25,0.86,0.53c0.08,0.3-0.19,0.59-0.22,0.62c-0.27,0.28-0.66,0.29-0.93,0.29c-0.87,0-1.58-0.43-1.96-0.71
				c0.03,0.51,0.03,1.22-0.12,2.05c-0.04,0.25-0.13,0.68-0.78,2.4c-0.85,2.26-1.08,2.53-1.33,2.54c-0.3,0.01-0.57-0.37-0.67-0.67
				c-0.16-0.46,0.08-0.76,0.6-2.2c0.2-0.54,0.29-0.81,0.39-1.17c0.28-1.09,0.24-1.86,0.2-1.86c-0.04,0,0,0.75-0.48,1.1
				c-0.09,0.06-0.34,0.22-0.62,0.15c-0.29-0.07-0.43-0.34-0.47-0.42c-0.25-0.47,0.02-0.99,0.06-1.06c-0.05,0.4-0.36,0.71-0.73,0.74
				c-0.34,0.03-0.66-0.18-0.78-0.46c-0.09-0.21-0.04-0.41-0.02-0.5c0.08-0.34,0.33-0.57,0.31-0.58c-0.02-0.01-0.28,0.43-0.6,0.43
				c-0.23,0-0.43-0.25-0.52-0.45c-0.06-0.14-0.13-0.42,0.2-1.14c0.15-0.33,0.43-0.85,1.05-1.52c0.25-0.28,0.63-0.64,1.13-1.03
				c0.42-1.02,0.84-2.05,1.26-3.07c0.93,0.24,1.87,0.47,2.8,0.71C87.05,106.63,86.59,107.64,86.13,108.66z"/>
			<g>
				<path class="st14" d="M93.26,97.93c0.06-0.06,0.09-0.09,0.09-0.09l4.88-2.56c0,0,10.27-2.95,9.84-5.67
					c-0.42-2.69-2.83-3.97-5.05-3.85c-3.63,0.2-12.99,5.88-14.49,7.08c0,0,0,0,0,0L93.26,97.93z"/>
				<g>
					<path class="st14" d="M83.29,104.98c-0.15,0.81,4.01,2.97,4.94,2.51c0.87-0.43,4.96-9.8,5.46-10.96l-5.75-2.75
						C87.01,95.47,83.44,104.17,83.29,104.98z"/>
					
						<ellipse transform="matrix(0.4028 -0.9153 0.9153 0.4028 -32.7641 139.9262)" class="st14" cx="90.85" cy="95.07" rx="2.85" ry="3.16"/>
				</g>
			</g>
			<path class="st11" d="M118.37,64.72c4.78,1.52,6.88,1.29,8.16,3.31c0.66,1.05,0.75,2.23,0.89,4.6c0.12,2.05,0.25,4.11-0.62,6.42
				c-0.45,1.19-1.59,4.23-4.49,5.51c-3.57,1.58-7.64-0.48-9.77-2.36c-2.86-2.53-3.4-5.81-3.99-9.35c-0.35-2.12-1.56-9.42,1.32-10.96
				C111.41,61.08,112.36,62.81,118.37,64.72z"/>
			<path class="st10" d="M129.24,73.23c0.58-0.2,0.52-2.08,0.24-3.39c-0.68-3.11-3.04-4.89-3.9-5.47c0.74,0.21,1.71,0.58,2.64,1.3
				c1.5,1.17,1.86,2.43,2.06,2.34c0.37-0.16-0.1-4.78-3.2-6.7c-0.6-0.37-1.09-0.51-2.56-0.84c-4.41-1-6.62-1.5-7.72-1.5
				c-1.11,0-5.06,0.21-9.53,4.73c-0.43,3.46-0.18,6.3,0.12,8.23c0.45,2.88,0.94,5.73,3.23,7.87c0.48,0.44,0.92,0.75,1.23,0.95
				c0.36-0.34,0.73-0.68,1.09-1.02c-1.77-3.6-2.12-6.57-2.13-8.55c0-1.43,0.17-4.06,0.87-4.17c0.41-0.06,0.63,0.81,1.42,1.65
				c2.25,2.41,6.85,2.05,7.09,1.26c0.12-0.39-0.86-0.75-0.75-1.42c0.1-0.64,1.12-1.1,1.96-1.14c0.94-0.05,1.66,0.41,1.94,0.59
				C126.46,70.01,128.38,73.53,129.24,73.23z"/>
			<ellipse class="st11" cx="111.29" cy="75.01" rx="1.83" ry="2.17"/>
			<path class="st15" d="M111.19,74.26c-0.74,0.24-1.02,1-0.79,1.46c0.18,0.34,0.67,0.54,1.18,0.43"/>
			<g>
				<path class="st16" d="M117.27,73.5c0,0.55-0.34,1-0.76,1c-0.42,0-0.76-0.45-0.76-1s0.34-1,0.76-1
					C116.93,72.51,117.27,72.95,117.27,73.5z"/>
				<path class="st16" d="M123.73,73.34c0,0.55-0.34,1-0.76,1c-0.42,0-0.76-0.45-0.76-1c0-0.55,0.34-1,0.76-1
					C123.39,72.34,123.73,72.79,123.73,73.34z"/>
			</g>
			<path class="st17" d="M120.65,78.31c-0.1,0-0.19-0.08-0.19-0.18c0-0.1,0.08-0.19,0.18-0.19l0.84,0c0.5,0,0.91-0.53,0.9-1.17
				l0-0.09c0-0.23-0.15-0.43-0.32-0.43c0,0,0,0-0.01,0c-0.29,0-0.55-0.13-0.75-0.38c-0.19-0.23-0.3-0.54-0.3-0.87v-1.36
				c0-0.1,0.08-0.19,0.19-0.19c0.1,0,0.19,0.08,0.19,0.19V75c0,0.24,0.08,0.47,0.21,0.63c0.13,0.16,0.29,0.24,0.47,0.24
				c0,0,0,0,0.01,0c0.38,0,0.69,0.36,0.69,0.8l0,0.09c0,0.85-0.57,1.54-1.27,1.54L120.65,78.31
				C120.65,78.31,120.65,78.31,120.65,78.31z"/>
			<path class="st16" d="M118.3,71.98c-0.16-0.2-0.43-0.48-0.83-0.72c-0.35-0.22-0.86-0.53-1.48-0.46
				c-0.62,0.07-1.08,0.49-1.19,0.59c-0.41,0.38-0.57,0.79-0.87,0.77c-0.14-0.01-0.25-0.1-0.32-0.18c-0.01-0.08-0.01-0.2,0.02-0.33
				c0.02-0.08,0.1-0.37,0.7-0.78c0.48-0.33,0.9-0.47,0.99-0.5c0.38-0.13,0.76-0.25,1.24-0.19c0.31,0.04,0.56,0.18,1.07,0.45
				c0.63,0.33,0.85,0.57,0.99,0.76c0.09,0.13,0.3,0.42,0.19,0.56C118.75,72.05,118.54,72.05,118.3,71.98z"/>
			<g>
				<g>
					<g>
						<path class="st18" d="M122.53,80.15c0.13,0.19-1.21,1.97-2.98,1.91c-1.54-0.05-2.7-1.46-2.59-1.64
							c0.08-0.14,0.9,0.55,2.27,0.64C121.13,81.17,122.42,79.98,122.53,80.15z"/>
					</g>
				</g>
			</g>
			<path class="st16" d="M125.34,72.1c-0.16-0.2-0.43-0.48-0.83-0.72c-0.35-0.22-0.86-0.53-1.48-0.46
				c-0.62,0.07-1.08,0.49-1.19,0.59c-0.41,0.38-0.57,0.79-0.87,0.77c-0.14-0.01-0.25-0.1-0.32-0.18c-0.01-0.08-0.01-0.2,0.02-0.33
				c0.02-0.08,0.1-0.37,0.7-0.78c0.48-0.33,0.9-0.47,0.99-0.5c0.38-0.13,0.76-0.25,1.24-0.19c0.31,0.04,0.56,0.18,1.07,0.45
				c0.63,0.33,0.85,0.57,0.99,0.76c0.09,0.13,0.3,0.42,0.19,0.56C125.78,72.17,125.57,72.17,125.34,72.1z"/>
		</g>
		<g class="st8">
			<g>
				<path class="st19" d="M143.26,46.29c-0.08-2.61-4.23-1.85-3.35,0.95c-0.88-0.95-2.23-1.32-3.52,0.05
					c-0.58,0.62-0.5,1.76-0.25,2.57c-1.08-0.05-2.4,0.19-2.61,1.71c-0.12,1,0.33,1.71,1.16,2.04c-2.73,0.14-2.81,4.28-0.12,4.32
					c-0.83,0.52-1.49,1.05-1.41,2.28c0.12,1.43,0.99,1.57,1.99,1.62c-1.36,2.23,0.17,4.04,2.32,3.33c0.04,0.81-0.12,1.52,0.62,2
					c0.79,0.52,2.11,0.38,2.85-0.1c0.12,0.76,0.29,1.24,0.99,1.43c0.62,0.1,1.08-0.29,1.53-0.14c0.58,0.19,0.91,0.71,1.61,0.43
					c0.62-0.24,0.87-1.05,1.45-1.38c1.08-0.62,2.19,0.14,2.98,1c0.74,0.86,2.27,1.24,2.48-0.43c0.62,0.14,1.49,0.67,2.15,0.14
					c0.5-0.38,0.37-1.09,0.41-1.71c1.65,1.09,2.98-0.33,2.15-2.23c0.7-0.33,1.03,0.05,1.65-0.62c0.95-1,0.58-2.2,0.25-3.2
					c0,0,0.25,0.06,0.62-0.56c0.21-0.38,0.29-0.71,0.37-1.14c0.12-0.81,0-1.57-0.74-1.9c0.66-0.95,1.32-1.47,0.99-2.85
					c-0.25-1.09-0.99-1.62-1.82-1.81c1.49-1.66,0.17-4.66-1.86-4.18c0.88-1.95-1.28-3.8-2.69-2.09c-0.04-2.13-2.85-2.61-3.76-0.81
					c-0.45-1-1.49-1.62-2.48-1.19c-0.79,0.38-0.95,1-1.03,1.81c-0.38-0.95-1.08-1.52-2.11-1.09c-0.62,0.29-0.79,1.05-0.87,1.76"/>
			</g>
			<rect x="140.33" y="70.2" class="st20" width="11.88" height="2.88"/>
			<ellipse class="st21" cx="140.65" cy="171.21" rx="89.35" ry="11.2"/>
			<g>
				<path class="st22" d="M150.93,155.29l0.53,11.2c0,0,21.43,4.02,4.38-2.6l-0.59-7.11L150.93,155.29z"/>
				<path class="st23" d="M151.33,163.82l-0.4-8.52l4.32,1.49l0.49,5.95C154.28,163.15,152.81,163.51,151.33,163.82z"/>
				<path class="st12" d="M158.12,166.89c0.3-0.58,0.65-1.13,1.04-1.67c2.53,1.13,3.39,1.79,3.25,2.14
					c-0.2,1.37-10.96-0.79-10.96-0.79l-0.02-0.75C151.97,165.93,155.25,166.57,158.12,166.89z"/>
			</g>
			<g>
				<path class="st22" d="M142.14,155.99l-0.53,11.2c0,0-21.43,4.02-4.38-2.6l0.59-7.11L142.14,155.99z"/>
				<path class="st23" d="M141.73,164.51l0.4-8.52l-4.32,1.49l-0.49,5.95C138.79,163.84,140.26,164.2,141.73,164.51z"/>
				<path class="st12" d="M134.95,167.58c-0.3-0.58-0.65-1.13-1.04-1.67c-2.53,1.13-3.39,1.79-3.25,2.14
					c0.2,1.37,10.96-0.79,10.96-0.79l0.02-0.75C141.09,166.62,137.81,167.26,134.95,167.58z"/>
			</g>
			<rect x="135.53" y="110.55" class="st24" width="21.59" height="14.3"/>
			<path class="st23" d="M158.56,116.94c0.2,0.19,0.51,0.16,0.68-0.06c0,0,0.46-0.6,0.76-1c0.13-0.17,0.4-0.09,0.41,0.12
				c0.02,0.3-0.09,0.61-0.21,0.85c-0.01,0.01-1.74,2.84-1.74,2.84c-0.03,0.05-0.05,0.11-0.06,0.17c-0.03,0.18,0.05,0.36,0.21,0.46
				c0.24,0.09,0.55-0.02,0.68-0.24l1.21-1.97c0.05-0.09,0.16-0.13,0.26-0.09l0.07,0.02c0.11,0.04,0.18,0.16,0.14,0.28l-0.78,2.79
				c-0.06,0.23,0.04,0.49,0.26,0.57c0.26,0.1,0.54-0.04,0.61-0.3l0.76-2.71c0.04-0.14,0.18-0.23,0.32-0.22
				c0.19,0.02,0.32,0.19,0.3,0.38l-0.3,2.5c-0.03,0.24,0.12,0.47,0.35,0.53c0.27,0.06,0.52-0.13,0.55-0.39l0.31-2.6
				c0.02-0.17,0.1-0.33,0.22-0.46c0.14-0.15,0.39-0.06,0.41,0.14l0.12,1.17c0.02,0.24,0.22,0.44,0.45,0.44
				c0.28,0,0.48-0.24,0.46-0.5l-0.2-2.56c-0.01-0.64-0.04-1.2-0.09-1.71c-0.05-0.5-0.11-0.94-0.18-1.3l-0.18-3.11l-4.28,0.21
				l0.29,2.53l0,0c-0.63,0.68-1.05,1.54-1.05,1.55l-0.8,1.05C158.38,116.5,158.39,116.78,158.56,116.94z"/>
			<path class="st23" d="M134.4,116.94c-0.2,0.19-0.51,0.16-0.68-0.06c0,0-0.46-0.6-0.76-1c-0.13-0.17-0.4-0.09-0.41,0.12
				c-0.02,0.3,0.09,0.61,0.21,0.85c0.01,0.01,1.74,2.84,1.74,2.84c0.03,0.05,0.05,0.11,0.06,0.17c0.03,0.18-0.05,0.36-0.21,0.46
				c-0.24,0.09-0.55-0.02-0.68-0.24l-1.21-1.97c-0.05-0.09-0.16-0.13-0.26-0.09l-0.07,0.02c-0.11,0.04-0.18,0.16-0.14,0.28
				l0.78,2.79c0.06,0.23-0.04,0.49-0.26,0.57c-0.26,0.1-0.54-0.04-0.61-0.3l-0.76-2.71c-0.04-0.14-0.18-0.23-0.32-0.22
				c-0.19,0.02-0.32,0.19-0.3,0.38l0.3,2.5c0.03,0.24-0.12,0.47-0.35,0.53c-0.27,0.06-0.52-0.13-0.55-0.39l-0.31-2.6
				c-0.02-0.17-0.1-0.33-0.22-0.46c-0.14-0.15-0.39-0.06-0.41,0.14l-0.12,1.17c-0.02,0.24-0.22,0.44-0.45,0.44
				c-0.28,0-0.48-0.24-0.46-0.5l0.2-2.56c0.01-0.64,0.04-1.2,0.09-1.71c0.05-0.5,0.11-0.94,0.18-1.3l0.18-3.11l4.28,0.21l-0.29,2.53
				l0,0c0.63,0.68,1.05,1.54,1.05,1.55l0.8,1.05C134.58,116.5,134.58,116.78,134.4,116.94z"/>
			<path class="st25" d="M150.36,72.08c-0.1-0.28-0.3-1.19-0.24-3.85h-3.78h-3.78c0.06,2.65-0.15,3.57-0.24,3.85
				c-0.09,0.03-3.59,1.26-3.59,1.26l7.61,3.02l7.61-3.02C153.94,73.34,150.44,72.11,150.36,72.08z"/>
			<g>
				<path class="st23" d="M155.22,59.86c-0.22,0.7-1.85,2.31-2.46,1.19l0.39-3.71c0,0,0.01,0,0.01,0c0.37-0.19,0.85-0.32,1.27-0.2
					c0.06,0.02,0.12,0.04,0.18,0.07C155.52,57.66,155.49,59.04,155.22,59.86z"/>
				<path class="st23" d="M139.84,57.25c-0.43-0.22-1.01-0.36-1.46-0.13c-0.91,0.46-0.87,1.84-0.61,2.66
					c0.22,0.7,1.85,2.31,2.46,1.19"/>
			</g>
			<g>
				<path class="st26" d="M156.39,96.2c-0.01,1.97,0.01,7.71,0.62,10.17c0.74,2.98,0.99,4.98-1.99,4.6
					c-2.98-0.38-16.19-0.02-17.07,0c-0.32,0-0.62-0.03-0.88-0.11c-0.45-0.14-0.82-0.4-1.09-0.77c-0.64-0.85-0.8-2.24-0.39-3.89
					c0.6-2.45,0.63-8.2,0.62-10.17c0.24-15.83,0.24-15.83-2.5-19.87c-0.43-0.64,1.22-1.19,2.05-1.66c0.83-0.47,1.71-0.83,2.36-1.08
					l3.43-1.4c0,0-0.1,2.28,4.75,2.32h0.12c1.74,0,2.83-0.26,3.53-0.59c1.13-0.68,1.09-1.55,1.09-1.55l1.41,0.58l1.16,0.48
					l0.87,0.35c1.29,0.49,5.26,1.45,4.41,2.74C156.56,79.89,156.56,79.89,156.39,96.2z"/>
				<path class="st26" d="M141.48,72.24l0,0.1C141.47,72.27,141.48,72.24,141.48,72.24z"/>
			</g>
			<g>
				<pattern  id="SVGID_3_" xlink:href="#Motivo_nuevo_2" patternTransform="matrix(1 0 0 1 -362 -77.982)">
				</pattern>
				<path class="st27" d="M158.43,96.81c0-0.11,0-0.17,0-0.17l-1.65-7.12c0,0-5.26-12.68-2.95-14.84c2.29-2.14,4.99-1.03,6.51,1.22
					c2.49,3.68,5.08,18.07,5.28,20.64c0,0,0,0.01,0,0.01L158.43,96.81z"/>
				<g>
					<pattern  id="SVGID_4_" xlink:href="#Motivo_nuevo_2" patternTransform="matrix(1 0 0 1 -362 -77.982)">
					</pattern>
					<path class="st28" d="M165.34,112.69c-0.22,1.09-5.5,1.48-6.24,0.41c-0.7-1.01-0.67-14.8-0.66-16.5l7.19-0.27
						C165.83,98.92,165.55,111.61,165.34,112.69z"/>
					<pattern  id="SVGID_5_" xlink:href="#Motivo_nuevo_2" patternTransform="matrix(1 0 0 1 -362 -77.982)">
					</pattern>
					<ellipse class="st29" cx="162.04" cy="96.57" rx="3.57" ry="4.07"/>
				</g>
			</g>
			<g>
				<pattern  id="SVGID_6_" xlink:href="#Motivo_nuevo_2" patternTransform="matrix(1 0 0 1 -362 -77.982)">
				</pattern>
				<path class="st30" d="M134.1,96.81c0-0.11,0-0.17,0-0.17l1.65-7.12c0,0,5.26-12.68,2.95-14.84c-2.29-2.14-4.99-1.03-6.51,1.22
					c-2.49,3.68-5.08,18.07-5.28,20.64c0,0,0,0.01,0,0.01L134.1,96.81z"/>
				<g>
					<pattern  id="SVGID_7_" xlink:href="#Motivo_nuevo_2" patternTransform="matrix(1 0 0 1 -362 -77.982)">
					</pattern>
					<path class="st31" d="M127.2,112.69c0.22,1.09,5.5,1.48,6.24,0.41c0.7-1.01,0.67-14.8,0.66-16.5l-7.19-0.27
						C126.71,98.92,126.98,111.61,127.2,112.69z"/>
					<pattern  id="SVGID_8_" xlink:href="#Motivo_nuevo_2" patternTransform="matrix(1 0 0 1 -362 -77.982)">
					</pattern>
					<ellipse class="st32" cx="130.5" cy="96.57" rx="3.57" ry="4.07"/>
				</g>
			</g>
			<pattern  id="SVGID_9_" xlink:href="#Motivo_nuevo_2" patternTransform="matrix(1 0 0 1 -362 -77.982)">
			</pattern>
			<path class="st33" d="M159.07,74.62c-0.44-0.4-2.35-2.05-6.98-2.93l-1.92,9.17v33.26l6.96-0.25l0.15-0.01
				c0.24-0.01,0.42-0.24,0.41-0.51l-0.74-21.44C156.95,91.92,160.44,75.88,159.07,74.62z"/>
			<pattern  id="SVGID_10_" xlink:href="#Motivo_nuevo_2" patternTransform="matrix(1 0 0 1 -362 -77.982)">
			</pattern>
			<path class="st34" d="M133.51,74.62c0.44-0.4,2.35-2.05,6.98-2.93l1.92,9.17v33.26l-6.96-0.25l-0.15-0.01
				c-0.24-0.01-0.42-0.24-0.41-0.51l0.74-21.44C135.62,91.92,132.13,75.88,133.51,74.62z"/>
			<polygon class="st20" points="152.21,70.2 154.86,71.24 156.01,74.18 153.93,74.58 154.74,78.38 150.13,85.19 150.13,79.77 			
				"/>
			<polygon class="st20" points="140.33,70.2 137.68,71.24 136.53,74.18 138.6,74.58 137.79,78.38 142.41,85.19 142.41,79.77 			"/>
			<path class="st23" d="M140.45,55.56c-0.69,1.04-0.77,2.51-0.68,3.8c0.12,1.79,0.29,4.26,0.39,5.03c0.17,1.25,1.47,5.09,6.55,4.96
				c3.66-0.17,5.99-1.25,6.38-6.46c0.15-1.99,0.29-4.33-0.07-6.29c-0.2-1.1-0.83-1.98-1.06-2.85c-0.43-1.63-0.81-2.71-0.81-2.71
				l-4.22-0.43l-3.66,0.04l-2.41,0.26l-0.47,1.51L140.45,55.56z"/>
			<g>
				<path class="st19" d="M140.13,52.99c-0.36,0.83-0.58,2,0.45,2.52c0.98,0.48,1.69-0.13,2.41-0.69c0.18,1.13,0.22,2.08,1.65,2.13
					c1.07,0,2.05-0.61,2.1-1.69c-0.18,1.82,2.59,1.87,2.72,0.04c0.36,1.09,1.29,1.91,2.59,1.56c1.07-0.26,1.16-1.22,0.76-2.04
					c1.2-0.22,2.5-0.09,2.18-1.74c-0.27-1.39-1.11-1.56-2.32-1.87c0.58-0.96,0.76-2.08-0.4-2.74c-0.71-0.39-1.92-0.26-2.36,0.43
					c-0.09-1.04-0.67-2-1.83-2.17c-0.94-0.22-1.96,0.39-1.92,1.39c-0.71-0.87-1.43-1.65-2.68-1.35c-1.11,0.3-1.16,1.13-1.2,2.08
					c-1.83-1.48-3.43,0.83-1.74,2.34c-0.76-0.26-1.92-0.52-2.14,0.52c-0.18,1.04,0.89,1.26,1.69,1.26"/>
			</g>
			<g>
				<path class="st35" d="M145.11,58.14c-0.25,0.03-0.51,0.05-0.77,0.07c-0.26,0.02-0.51,0.04-0.76,0.07
					c-0.25,0.03-0.5,0.06-0.75,0.09c-0.25,0.04-0.49,0.09-0.73,0.13l-0.02,0c-0.17,0.03-0.33-0.07-0.37-0.24
					c-0.03-0.14,0.04-0.27,0.16-0.34c0.26-0.14,0.53-0.23,0.8-0.3c0.27-0.07,0.55-0.1,0.83-0.13c0.28-0.02,0.55-0.02,0.83-0.01
					c0.28,0.02,0.54,0.04,0.82,0.11c0.15,0.03,0.24,0.18,0.21,0.33c-0.03,0.12-0.12,0.2-0.24,0.21L145.11,58.14z"/>
				<path class="st35" d="M148.18,57.6c0.28-0.06,0.55-0.09,0.82-0.11c0.27-0.02,0.55-0.01,0.83,0.01c0.28,0.02,0.55,0.06,0.83,0.13
					c0.27,0.07,0.55,0.16,0.8,0.3c0.15,0.08,0.21,0.27,0.13,0.42c-0.07,0.12-0.21,0.18-0.34,0.16l-0.02,0
					c-0.24-0.05-0.48-0.1-0.73-0.13c-0.25-0.03-0.5-0.07-0.75-0.09c-0.25-0.03-0.51-0.05-0.76-0.07c-0.26-0.02-0.52-0.04-0.77-0.07
					l-0.01,0c-0.15-0.02-0.26-0.15-0.24-0.3C147.98,57.72,148.07,57.63,148.18,57.6z"/>
				<path class="st35" d="M143.92,60.27c0,0.39-0.24,0.7-0.53,0.7s-0.53-0.31-0.53-0.7c0-0.39,0.24-0.7,0.53-0.7
					S143.92,59.89,143.92,60.27z"/>
				<path class="st35" d="M150.3,60.27c0,0.39-0.24,0.7-0.53,0.7s-0.53-0.31-0.53-0.7c0-0.39,0.24-0.7,0.53-0.7
					S150.3,59.89,150.3,60.27z"/>
			</g>
			<path class="st36" d="M146.07,63.97c-0.09,0-0.17-0.07-0.17-0.17c0-0.09,0.07-0.17,0.17-0.17l0.75,0c0.45,0,0.81-0.47,0.81-1.04
				l0-0.08c0-0.21-0.13-0.39-0.28-0.39c0,0,0,0-0.01,0c-0.26,0-0.49-0.12-0.67-0.34c-0.17-0.21-0.27-0.48-0.27-0.78v-1.22
				c0-0.09,0.07-0.17,0.17-0.17c0.09,0,0.17,0.07,0.17,0.17V61c0,0.22,0.07,0.42,0.19,0.57c0.11,0.14,0.26,0.21,0.42,0.21
				c0,0,0,0,0.01,0c0.34,0,0.62,0.32,0.62,0.72l0,0.08c0,0.76-0.51,1.38-1.14,1.38L146.07,63.97
				C146.07,63.97,146.07,63.97,146.07,63.97z"/>
			<g>
				<g>
					<g>
						<path class="st37" d="M144.95,64.78c0,0,1.21,0.42,2.38,0.44c1.17,0.02,0.53,2.08-1.24,2.15
							C144.31,67.44,143.99,64.7,144.95,64.78z"/>
					</g>
				</g>
			</g>
			<g>
				<polygon class="st24" points="157.3,140.87 147.95,140.87 146.47,124.67 157.1,124.39 				"/>
				<g>
					<path class="st24" d="M157.54,161.4c0,0.31-0.34,0.56-0.75,0.57l-6.21,0.01c-0.4,0-0.73-0.24-0.75-0.55l-1.89-20.55h9.34
						L157.54,161.4z"/>
					<ellipse class="st24" cx="152.61" cy="140.87" rx="4.67" ry="4.5"/>
				</g>
			</g>
			<g>
				<polygon class="st24" points="135.3,140.87 144.64,140.87 146.13,124.67 135.5,124.39 				"/>
				<g>
					<path class="st24" d="M135.05,161.4c0,0.31,0.34,0.56,0.75,0.57l6.21,0.01c0.4,0,0.73-0.24,0.75-0.55l1.89-20.55h-9.34
						L135.05,161.4z"/>
					<ellipse class="st24" cx="139.99" cy="140.87" rx="4.67" ry="4.5"/>
				</g>
			</g>
		</g>
	</g>
	<g>
		<path class="st38" d="M179.22,78.78c0.73-2.13,2.14-7.18,0.44-13.05c-0.91-3.14-2.3-8.04-6.89-9.83c-3.78-1.47-8.32-0.29-11,2.35
			c-2.39,2.35-2.71,5.26-3.23,10.71c-0.47,4.94-0.1,9.2,0.44,12.47C165.73,80.54,172.47,79.66,179.22,78.78z"/>
		<path class="st39" d="M168.44,74.56c-0.28,1.41-0.88,3.53-2.33,5.65c-1.7,2.48-3.37,3.23-3.17,4.11c0.19,0.84,2.08,1.7,10.34,1.43
			c0.05-1.56-0.01-3.4-0.28-5.45c-0.29-2.19-0.77-4.09-1.26-5.66C170.64,74.61,169.54,74.58,168.44,74.56z"/>
		<path class="st40" d="M173.62,66.86c0,0,2.28-3.12,2.95-0.12c0.53,2.38-2.41,4.99-2.93,3.69
			C173.52,70.13,173.62,66.86,173.62,66.86z"/>
		<path class="st40" d="M172.32,62.65c0.44,2.2,0.88,4.4,1.32,6.6c0.44-1.21,0.89-2.42,1.33-3.63c0.13,0.64,0.15,1.52,0.15,2.56
			c0,4.99-5.69,8.78-7.69,8.78c-4.14,0-7.46-6.34-6.09-8.78c0.27-0.48,0.8-0.97,1.89-1.27C166.26,65.48,169.29,64.06,172.32,62.65z"
			/>
		<g>
			<path class="st41" d="M169.83,64.38c0.25,0.04,0.48,0.11,0.7,0.2c0.23,0.08,0.45,0.18,0.67,0.29c0.22,0.11,0.43,0.24,0.63,0.39
				c0.2,0.15,0.39,0.32,0.55,0.52c0.1,0.12,0.08,0.29-0.04,0.39c-0.1,0.08-0.23,0.08-0.33,0.01L172,66.17
				c-0.18-0.12-0.36-0.24-0.54-0.36c-0.19-0.11-0.38-0.23-0.58-0.33c-0.2-0.11-0.4-0.21-0.6-0.32c-0.2-0.1-0.41-0.21-0.6-0.32
				l-0.01-0.01c-0.12-0.06-0.16-0.21-0.09-0.33C169.63,64.41,169.74,64.36,169.83,64.38z"/>
			<path class="st16" d="M164.19,68.18c0,0.34-0.21,0.62-0.47,0.62s-0.47-0.28-0.47-0.62s0.21-0.62,0.47-0.62
				S164.19,67.84,164.19,68.18z"/>
			<path class="st16" d="M169.83,67.88c0,0.34-0.21,0.62-0.47,0.62s-0.47-0.28-0.47-0.62c0-0.34,0.21-0.62,0.47-0.62
				S169.83,67.54,169.83,67.88z"/>
		</g>
		<path class="st42" d="M175.18,80.53c-1.71,1.07-2.94,2-3.77,2.68c-0.42,0.34-0.86,0.72-1.58,0.93c-1.41,0.41-2.66-0.18-2.84-0.27
			c-1.79-0.88-2.2-2.79-2.25-3.03c-1.23,1.01-2.81,2.65-3.43,5c-0.85,3.21,0.72,5.3,1.04,9.56c0.15,1.96,0.06,4.78-1.09,8.31
			c4.65-0.07,9.29-0.15,13.94-0.22c-0.44-1.38-0.94-3.56-0.73-6.17c0.26-3.15,1.38-4.58,1.93-7.16
			C176.82,88.06,176.95,84.88,175.18,80.53z"/>
		<path class="st43" d="M161.52,103.06c1.98,0.28,4.25,0.48,6.76,0.49c2.72,0.01,5.16-0.2,7.25-0.49c1,1.06,2.17,2.53,3.2,4.43
			c1.68,3.09,2.25,5.98,2.46,7.87c-8.2,0.49-16.39,0.98-24.59,1.48c-0.13-1.23-0.15-2.74,0.12-4.43
			C157.5,107.67,160.15,104.49,161.52,103.06z"/>
		<path class="st44" d="M173.21,79.71c1.16-0.08,3.03-0.04,5.03,0.79c1.49,0.63,1.7,1.13,6.97,6.34c1.53,1.51,2.93,2.77,4.56,4.95
			c1.42,1.89,1.81,2.84,1.83,3.88c0.03,1.5-0.71,2.67-1.45,3.83c-0.91,1.43-1.94,2.33-2.79,3.06c-0.94,0.81-1.81,1.4-2.46,1.8
			c-0.77-0.77-1.53-1.53-2.3-2.3c1.79-2.46,3.1-4.25,3.56-4.83c0.06-0.08,0.24-0.3,0.32-0.64c0.11-0.47-0.02-0.9-0.16-1.2
			c-0.7-0.64-1.75-1.58-3.06-2.68c-2.27-1.91-3.85-3.05-4.43-3.5C177.04,87.81,174.84,85.16,173.21,79.71z"/>
		<path class="st44" d="M176.81,80.11c1.39,0.58,1.57,3.2,1.76,6.6c0.2,3.55,0.3,5.32-0.42,6.9c-0.49,1.05-1.1,1.76-1.54,3.43
			c-0.07,0.25-0.39,1.5-0.38,3.03c0.02,3.25,1.53,5.8,2.27,6.89c-0.81,0.58-1.93,1.26-3.36,1.8c-1.65,0.63-3.13,0.87-4.21,0.96
			c-0.02-6.35-0.05-10.65-0.08-14.04c-0.03-3.71-0.07-6.77,0.83-10.82c0.49-2.19,1.09-3.95,1.55-5.13c0.41-0.03,1.01-0.04,1.71,0.03
			C174.98,79.75,176.25,79.88,176.81,80.11z"/>
		<path class="st44" d="M166.11,80.21c-0.42,0.7-0.97,1.7-1.48,2.95c-0.39,0.96-1.08,2.67-1.31,4.7c-0.2,1.77,0.15,1.95,0.38,5.25
			c0.21,2.88-0.07,2.63,0.11,6.23c0.15,3.17,0.4,3.84,0.22,5.74c-0.17,1.73-0.53,3.13-0.82,4.04c-0.57-0.03-1.44-0.14-2.4-0.55
			c-1.2-0.51-1.98-1.24-2.4-1.69c0.34-0.61,0.82-1.47,1.37-2.51c1.21-2.32,1.47-3.03,1.58-3.39c0.26-0.78,0.57-1.74,0.6-2.9
			c0.04-1.81-0.64-2.62-1.26-4.59c-0.67-2.16-0.75-4.11-0.71-5.14c0.05-1.28,0.4-3.9,2.79-6.94C163.89,81.01,165,80.61,166.11,80.21
			z"/>
		<path class="st44" d="M165.07,80.81c-0.68,0.04-1.79,0.18-3.01,0.77c-0.53,0.26-2.38,1.14-3.33,3.06
			c-0.34,0.69-0.23,0.83-0.66,3.99c-0.21,1.57-0.4,2.72-0.66,4.32c-0.25,1.59-0.49,2.88-0.66,3.72c1.42,0.36,2.84,0.73,4.26,1.09
			c0.06-0.25,0.16-0.66,0.28-1.17c0,0,0.26-1.16,0.49-2.33c0.54-2.82,0.67-5.91,1.53-8.96C163.62,84.23,164.14,82.66,165.07,80.81z"
			/>
		<path class="st40" d="M182.61,102.07c-0.14,0.14-0.35,0.34-0.6,0.57c-0.57,0.54-0.79,0.72-0.88,0.79
			c-0.7,0.57-0.95,0.61-1.06,0.63c-0.29,0.04-0.53-0.03-0.68-0.08c-0.9-1.06-1.79-2.13-2.69-3.19c-0.85-0.15-1.53-0.18-1.99-0.17
			c-0.64,0-1.01,0.06-2.39,0.18c-0.74,0.07-1.34,0.12-1.71,0.15c0.06,0.19,0.19,0.47,0.46,0.63c0.24,0.14,0.47,0.11,0.93,0.08
			c0.38-0.02,0.77,0,1.15-0.03c0.48-0.04,1.21-0.07,2.21-0.03c-0.28,0.1-0.72,0.26-1.26,0.42c-0.81,0.24-0.93,0.22-1.34,0.4
			c-0.7,0.3-0.59,0.45-1.32,0.77c-0.55,0.24-0.95,0.3-0.98,0.53c-0.02,0.18,0.18,0.33,0.2,0.35c0.05,0.04,0.24,0.16,0.82,0.03
			c0.13-0.03,0.32-0.08,0.77-0.28c0.65-0.28,0.65-0.36,1.01-0.46c0.17-0.05,0.38-0.09,0.68-0.15c0.33-0.07,0.31-0.05,0.44-0.08
			c0.72-0.17,1.65-0.65,1.7-0.67c0,0,0,0,0,0c0,0-1.3,0.62-3.08,1.32c-0.74,0.29-1.36,0.52-1.78,0.68
			c-0.04,0.08-0.11,0.23-0.05,0.36c0.02,0.04,0.1,0.18,0.6,0.18c0.57,0,1.01-0.18,1.14-0.24c0.74-0.32,0.98-0.54,1.46-0.78
			c0.36-0.18,0.91-0.4,1.68-0.48c-0.41,0.1-0.85,0.24-1.32,0.42c-0.9,0.35-1.64,0.76-2.23,1.15c0.03,0.09,0.1,0.22,0.24,0.32
			c0.25,0.18,0.58,0.11,0.8,0.06c0.26-0.06,0.32-0.13,0.71-0.31c0.4-0.19,0.63-0.29,0.94-0.36c0.36-0.08,0.43-0.02,0.98-0.1
			c0.28-0.04,0.51-0.09,0.66-0.12c0.17,0.26,0.42,0.64,0.75,1.09c0.68,0.92,0.91,1.06,1.09,1.13c0.33,0.13,0.64,0.09,1.34-0.09
			c1.06-0.28,1.71-0.45,2.67-0.92c0.59-0.29,1.37-0.72,2.23-1.36C184.13,103.63,183.37,102.85,182.61,102.07z"/>
		<path class="st39" d="M170.88,101.41c1.58,0.04,3.17,0.08,4.75,0.13c-0.51,0.16-1.01,0.32-1.52,0.48
			c0.39-0.12,0.48-0.19,0.47-0.24c0-0.05-0.07-0.08-0.08-0.09c-0.06-0.03-0.11-0.02-0.22-0.01c-0.07,0.01-0.14,0-0.2,0
			c-0.12,0-0.85,0-2.65-0.01c-0.06,0-0.16-0.01-0.28-0.05C171.01,101.56,170.92,101.46,170.88,101.41z"/>
		<path class="st45" d="M176.14,103.42c-0.63,0.15-1.39,0.39-2.21,0.8c-0.56,0.28-1.04,0.57-1.44,0.85"/>
		<path class="st45" d="M170.66,104.07c0.64,0.08,1.11-0.02,1.41-0.11c0.55-0.17,0.69-0.4,1.43-0.65c0.42-0.14,0.5-0.12,1.01-0.26
			c0.39-0.11,0.93-0.29,1.58-0.61"/>
		<path class="st46" d="M152.31,83.22c-0.33-3.08-0.67-6.16-1-9.24c-0.1-0.93-1.12-1.45-1.94-0.99c-1.17,0.66-2.33,1.32-3.5,1.99
			c-0.46,0.26-0.71,0.76-0.65,1.28c0.36,3.01,0.71,6.02,1.07,9.03c0.11,0.9,1.08,1.42,1.89,1c1.14-0.59,2.29-1.18,3.43-1.77
			C152.09,84.27,152.37,83.76,152.31,83.22z"/>
		<path class="st12" d="M151.89,83.51c-0.34-3.16-0.68-6.31-1.03-9.47c-0.09-0.86-1.03-1.34-1.78-0.91c-1.23,0.7-2.46,1.4-3.7,2.1
			c-0.42,0.24-0.65,0.7-0.6,1.18c0.36,3.08,0.73,6.16,1.09,9.25c0.1,0.83,1,1.31,1.74,0.92c1.21-0.62,2.42-1.25,3.63-1.87
			C151.69,84.48,151.94,84.01,151.89,83.51z"/>
		<path class="st47" d="M146.5,75.21c0.2,0.09,0.61,0.3,0.84,0.76c0.06,0.13,0.14,0.33,0.15,0.76c0.01,0.23,0.01,0.94-0.54,2.29
			c-0.1,0.25-0.26,0.61-0.47,1.02c0.16-0.76,0.32-1.52,0.48-2.28c0.01-0.12,0.02-0.3,0.03-0.51c0.03-0.63,0.05-0.95-0.01-1.19
			C146.93,75.85,146.82,75.54,146.5,75.21z"/>
		<path class="st47" d="M150.31,80.34c0.15,0.18,0.41,0.54,0.4,1.02c0,0.13-0.02,0.36-0.31,0.88c-0.56,1.01-0.99,1.05-1.25,1.82
			c-0.01,0.04-0.08,0.31-0.2,0.84c-0.1,0.41-0.17,0.74-0.23,0.96c-0.33-0.39-0.65-0.77-0.98-1.16c0.49-1.18,1.11-1.84,1.61-2.23
			c0.37-0.28,0.89-0.59,1.03-1.19C150.48,80.91,150.4,80.57,150.31,80.34z"/>
		<path class="st47" d="M148.77,76.51c0.17,0.17,0.39,0.47,0.47,0.87c0.11,0.54-0.1,1.03-0.6,1.81c-0.41,0.64-1.09,1.55-2.16,2.48
			c0.16-0.47,0.33-0.95,0.49-1.42c0.55-0.75,0.92-1.4,1.15-1.86c0.31-0.63,0.45-1.05,0.52-1.31
			C148.7,76.84,148.74,76.65,148.77,76.51z"/>
		<path class="st47" d="M149.59,77.97c0.17,0.2,0.39,0.54,0.45,0.98c0.08,0.54-0.11,1.04-0.6,1.81c-0.41,0.64-1.09,1.55-2.16,2.48
			c0.16-0.47,0.33-0.95,0.49-1.42c0.55-0.75,0.92-1.4,1.15-1.86c0.32-0.64,0.45-1.06,0.52-1.31
			C149.52,78.38,149.56,78.14,149.59,77.97z"/>
		<path class="st40" d="M151.28,90.69c-0.72-0.54-1.44-1.08-2.16-1.62c0.14-0.6,0.15-1.11,0.13-1.46c-0.05-0.93-0.33-1.61-0.44-1.85
			c-0.2-0.45-0.43-0.79-0.62-1.03c0.74-1.01,1.49-2.02,2.24-3.03c0.05-0.06,0.24-0.32,0.21-0.69c-0.03-0.39-0.28-0.62-0.33-0.67
			c-0.94,1.14-1.88,2.28-2.83,3.42c0.01-0.21,0.03-0.5,0.11-0.84c0.09-0.39,0.22-0.69,0.33-0.9c0.58-1.19,1.28-1.55,1.59-2.47
			c0.12-0.34,0.21-0.85,0.08-1.57c-0.24,0.31-0.62,0.8-1.1,1.39c-0.73,0.88-0.93,1.06-1.22,1.55c-0.55,0.93-0.71,1.8-0.7,1.8
			c0.01,0,0.19-0.73,0.6-1.63c0.56-1.23,1.24-2.13,1.75-2.72c0.07-0.16,0.18-0.44,0.18-0.8c0-0.53-0.23-0.91-0.33-1.05
			c-0.76,1.17-1.52,2.35-2.29,3.52c0.24-0.84,0.43-1.59,0.57-2.21c0.22-0.99,0.29-1.47,0.05-1.95c-0.16-0.32-0.39-0.54-0.57-0.67
			c-0.7,3.61-1.12,5.11-1.39,5.78c-0.07,0.17-0.32,0.77-0.44,1.62c0,0-0.07,0.53-0.06,1.11c0.02,1.01,0.71,3.41,2.09,6.42
			c0.57,1.02,1.15,2.04,1.72,3.06C149.4,92.35,150.34,91.52,151.28,90.69z"/>
		<path class="st44" d="M159.6,95.13c-1.04-0.54-2-0.58-2.46-0.56c-0.04,0.51-0.13,1.13-0.33,1.8c-0.1,0.33-0.21,0.63-0.33,0.89
			c-0.99-1.14-2.01-2.4-3.03-3.77c-0.88-1.18-1.68-2.34-2.41-3.45c-1.23,0.57-2.46,1.13-3.68,1.7c0.71,1.48,1.77,3.49,3.22,5.77
			c2.14,3.34,3.23,5.01,4.67,5.16c2.29,0.25,4.79-2.4,5.7-4.82c0.19-0.5,0.29-0.95,0.35-1.27C161.04,96.22,160.5,95.6,159.6,95.13z"
			/>
		<g>
			<path class="st48" d="M166.21,159.43c-0.28,0.72-0.55,1.62-0.72,2.69c-0.24,1.57-0.15,2.92,0,3.88c-0.38,0-0.76,0-1.13,0
				c0-1.77,0-3.54,0-5.31c-0.17,0.29-0.4,0.73-0.54,1.31c-0.19,0.81-0.05,1.26-0.12,2.15c-0.04,0.45-0.14,1.09-0.42,1.85
				c-1.77-0.02-3.54-0.04-5.31-0.06c0.33-0.85,0.79-1.35,1.19-1.67c0.5-0.39,0.86-0.43,1.49-0.84c0.06-0.04,0.88-0.58,1.49-1.37
				c0.78-1.02,0.64-1.7,1.14-2.94c0.28-0.7,0.8-1.66,1.84-2.67c0.64-0.03,1.25,0.26,1.55,0.78
				C167.09,157.9,166.91,158.86,166.21,159.43z"/>
			<path class="st40" d="M161.43,156.5c-0.27,0.92-0.53,2.03-0.69,3.3c-0.16,1.38-0.16,2.61-0.09,3.62
				c0.42-0.26,1.01-0.69,1.49-1.37c0.73-1.03,0.68-1.84,1.25-3.22c0.25-0.59,0.66-1.42,1.37-2.33
				C163.66,156.5,162.55,156.5,161.43,156.5z"/>
		</g>
		<g>
			<path class="st40" d="M179.58,155.77c-0.94-0.05-1.87-0.1-2.81-0.16c0.03,0.76,0.06,1.53,0.09,2.29
				c-0.16,0.8-0.33,1.46-0.47,1.93c-0.3,1.01-0.63,1.87-1.06,2.99c-0.12,0.31-0.22,0.56-0.29,0.73c1.75,0,3.51,0,5.26,0
				c-0.32-2.02-0.64-4.03-0.97-6.05C179.41,156.92,179.5,156.34,179.58,155.77z"/>
			<path class="st48" d="M179.4,157.66c0.36,1.32,0.68,2.76,0.96,4.3c0.21,1.19,0.37,2.33,0.49,3.41c-1.17,0.08-2.42,0.13-3.74,0.13
				c-1.09,0-2.13-0.03-3.12-0.09c-0.02-0.38-0.01-1.21,0.46-2.08c0.29-0.52,0.64-0.88,0.9-1.09c1.13-3.53,1.45-4.34,1.51-4.33
				c0.07,0.02-0.27,1.5-0.7,2.86c-0.24,0.76-0.48,1.4-0.67,1.87c1.46,0,2.93,0,4.39,0C179.72,160.97,179.56,159.32,179.4,157.66z"/>
		</g>
		<path class="st43" d="M180.78,112.88c0.12,0.55,0.29,1.39,0.42,2.41c0.54,4.15-0.01,7.16-0.52,10.66
			c-0.35,2.4-0.82,5.95-1.23,10.46c0.74,2.94,1.39,6.74,1.39,11.19c0,3.3-0.35,6.2-0.8,8.62c-1.26,0.05-2.51,0.1-3.77,0.15
			c-1.19-3.28-2.38-7.71-2.62-13.03c-0.12-2.61,0.02-4.97,0.26-7.05c-0.9-2.37-1.77-4.89-2.58-7.55c-1.64-5.38-2.78-10.46-3.57-15.1
			C172.1,113.38,176.44,113.13,180.78,112.88z"/>
		<path class="st43" d="M157.9,110.11c-1.44,5.52-2.87,11.03-4.31,16.55c0,0-0.31,3.68-0.33,3.92c-0.34,4.08,1.96,9.95,3.03,12.76
			c1.19,3.12,2.86,7.74,4.75,13.73c1.29-0.23,2.58-0.46,3.87-0.69c-0.24-1.72-0.57-4.42-0.85-7.78c-0.37-4.56-0.31-6.05-0.77-8.56
			c-0.38-2.09-1.23-5.09-3.36-8.58c1.65-2.11,3.51-4.86,5.15-8.28c2.27-4.74,3.33-9.09,3.85-12.34
			C165.25,110.61,161.57,110.36,157.9,110.11z"/>
		
			<ellipse transform="matrix(0.9619 -0.2733 0.2733 0.9619 -14.8417 43.6443)" class="st49" cx="149.24" cy="75.09" rx="0.9" ry="1.1"/>
		
			<ellipse transform="matrix(0.9619 -0.2733 0.2733 0.9619 -14.8417 43.6443)" class="st48" cx="149.24" cy="75.09" rx="0.63" ry="0.77"/>
		
			<ellipse transform="matrix(0.9619 -0.2733 0.2733 0.9619 -14.9829 43.3709)" class="st48" cx="148.18" cy="75.46" rx="0.14" ry="0.18"/>
		<g>
			<path class="st50" d="M167.03,66.67c-0.07,0.53-0.1,1.07-0.24,1.62c-0.15,0.54-0.45,1.07-0.88,1.48
				c-0.22,0.21-0.31,0.34-0.35,0.5c-0.01,0.15-0.01,0.17,0.1,0.29c0.25,0.24,0.81,0.37,1.33,0.55c0.02,0.01,0.03,0.03,0.03,0.05
				c0,0.01-0.01,0.02-0.02,0.02c-0.27,0.12-0.54,0.18-0.84,0.2c-0.29,0.02-0.61-0.02-0.94-0.21c-0.15-0.12-0.32-0.27-0.39-0.5
				c-0.07-0.22-0.04-0.46,0.03-0.63c0.14-0.36,0.47-0.59,0.66-0.72c0.4-0.28,0.71-0.67,0.92-1.15c0.22-0.46,0.35-0.99,0.52-1.51
				c0.01-0.02,0.03-0.03,0.05-0.02C167.02,66.64,167.03,66.65,167.03,66.67z"/>
		</g>
		<g>
			<g>
				<g>
					<path class="st18" d="M165.56,73.96c0.48-0.01,1.17-0.08,1.95-0.34c0.95-0.33,1.39-0.73,1.51-0.61
						c0.17,0.17-0.34,1.32-1.3,1.63C167.01,74.87,166.18,74.6,165.56,73.96z"/>
				</g>
			</g>
		</g>
	</g>
	<g>
		<g>
			<path class="st12" d="M79.65,152.82L79,166.7c-4.53,0.35-9.05,0.71-13.58,1.06c0.02-0.33,0.23-2.66,2.23-4.08
				c1.7-1.2,4.01-1.28,5.93-0.2c0.24-2.94,0.49-5.88,0.73-8.81L79.65,152.82z"/>
			<path class="st11" d="M79.16,163.38l0.5-10.56l-5.35,1.84l-0.61,7.37C75.5,162.55,77.33,163,79.16,163.38z"/>
			<path class="st10" d="M70.79,166.32c-1.73,0.14-3.46,0.28-5.19,0.42c-0.05,0.35-0.11,0.69-0.16,1.04
				c4.52-0.33,9.05-0.65,13.57-0.98l0.03-0.93c-1.21,0.02-2.46,0.06-3.75,0.13C73.74,166.08,72.24,166.19,70.79,166.32z"/>
			<path class="st10" d="M71.62,164.84c-0.3,0.05-0.59-0.47-0.95-0.9c-0.26-0.31-0.67-0.7-1.32-1.04c0.1-0.05,0.26-0.12,0.47-0.14
				c0.1-0.01,0.18-0.01,0.26,0c0.43,0.29,0.75,0.57,0.95,0.77c0.36,0.35,0.93,0.9,0.78,1.18C71.77,164.78,71.69,164.83,71.62,164.84
				z"/>
			<path class="st10" d="M70.48,165.17c-0.3,0.05-0.57-0.47-0.95-0.9c-0.25-0.29-0.65-0.65-1.27-0.96c0.07-0.06,0.17-0.13,0.29-0.18
				c0.16-0.07,0.31-0.1,0.41-0.12c0.41,0.33,0.72,0.63,0.92,0.85c0.49,0.5,0.91,0.94,0.78,1.18
				C70.63,165.11,70.55,165.16,70.48,165.17z"/>
		</g>
		<g>
			<path class="st12" d="M89.61,152.81l0.65,13.88c4.53,0.35,9.05,0.71,13.58,1.06c-0.02-0.33-0.23-2.66-2.23-4.08
				c-1.7-1.2-4.01-1.28-5.93-0.2c-0.24-2.94-0.49-5.88-0.73-8.81L89.61,152.81z"/>
			<path class="st11" d="M90.1,163.37l-0.5-10.56l5.35,1.84l0.61,7.37C93.76,162.54,91.94,162.99,90.1,163.37z"/>
			<path class="st10" d="M98.78,165.16c0.3,0.05,0.57-0.47,0.95-0.9c0.25-0.29,0.65-0.65,1.27-0.96c-0.07-0.06-0.17-0.13-0.29-0.18
				c-0.16-0.07-0.31-0.1-0.41-0.12c-0.41,0.33-0.72,0.63-0.92,0.85c-0.49,0.5-0.91,0.94-0.78,1.18
				C98.63,165.1,98.71,165.15,98.78,165.16z"/>
			<path class="st10" d="M98.47,166.31c1.73,0.14,3.46,0.28,5.19,0.42c0.05,0.35,0.11,0.69,0.16,1.04
				c-4.52-0.33-9.05-0.65-13.57-0.98l-0.03-0.93c1.21,0.02,2.46,0.06,3.75,0.13C95.52,166.07,97.02,166.18,98.47,166.31z"/>
			<path class="st10" d="M97.64,164.83c0.3,0.05,0.59-0.47,0.95-0.9c0.26-0.31,0.67-0.7,1.32-1.04c-0.1-0.05-0.26-0.12-0.47-0.14
				c-0.1-0.01-0.18-0.01-0.26,0c-0.43,0.29-0.75,0.57-0.95,0.77c-0.36,0.35-0.93,0.9-0.78,1.18
				C97.49,164.77,97.57,164.82,97.64,164.83z"/>
		</g>
		<path class="st10" d="M68.85,117.54c10.53,0.06,21.07,0.13,31.6,0.19c-0.53,4.08-1.05,8.15-1.58,12.23c-9.6,0-19.21,0-28.81,0
			C69.65,125.82,69.25,121.68,68.85,117.54z"/>
		<g>
			<path class="st10" d="M96.7,156.91c-2.72,0.01-5.43,0.02-8.15,0.02c0.37,1.32,0.74,2.65,1.11,3.97c1.88,0.01,3.77,0.03,5.65,0.04
				C95.78,159.6,96.24,158.26,96.7,156.91z"/>
			<path class="st10" d="M88.46,157.04c2.74,0,5.48,0,8.22,0c0.86-9.96,1.71-19.92,2.57-29.87H85.32
				C86.37,137.12,87.42,147.08,88.46,157.04z"/>
			<polygon class="st12" points="96.29,156.98 96.48,156.99 98.83,121.81 98.64,121.8 			"/>
		</g>
		<g>
			<path class="st10" d="M72.23,157.02c2.72,0.01,5.43,0.02,8.15,0.02c-0.37,1.32-0.74,2.65-1.11,3.97
				c-1.88,0.01-3.77,0.03-5.65,0.04C73.16,159.71,72.69,158.37,72.23,157.02z"/>
			<path class="st10" d="M80.31,157.04c-2.69,0-5.37,0-8.06,0c-0.84-9.96-1.68-19.92-2.52-29.87h13.66
				C82.36,137.13,81.34,147.09,80.31,157.04z"/>
			<polygon class="st12" points="72.84,156.99 72.62,157 70.27,121.82 70.49,121.81 			"/>
		</g>
		<path class="st51" d="M82.78,69.7c-1.97,3.5-3.94,7-5.9,10.49c5.56-0.15,11.11-0.31,16.67-0.46c-1.69-3.34-3.37-6.69-5.06-10.03"
			/>
		<path class="st12" d="M87.83,119.79c0.11,0.38-1.88,1.44-3.1,3.91c-0.45,0.91-0.79,2-1.81,3.4c-0.07,0.1-0.52,0.72-0.59,0.67
			c-0.04-0.03,0.11-0.38,1.15-2.38c0.56-1.07,0.84-1.6,1.17-2.2c1.34-2.43,1.72-2.86,2.15-3.14
			C87.22,119.79,87.77,119.6,87.83,119.79z"/>
		<path class="st12" d="M82.35,120.33c-0.11,0.38,1.88,1.44,3.1,3.91c0.45,0.91,0.79,2,1.81,3.4c0.07,0.1,0.52,0.72,0.59,0.67
			c0.04-0.03-0.11-0.38-1.15-2.38c-0.56-1.07-0.84-1.6-1.17-2.2c-1.34-2.43-1.72-2.86-2.15-3.14
			C82.96,120.32,82.41,120.13,82.35,120.33z"/>
		<path class="st12" d="M81.7,78.81c0.5,0.25,1.31,0.57,2.34,0.65c0.99,0.08,1.81-0.09,3.78-0.73c1.11-0.37,2.56-0.87,4.23-1.55
			c1.06,3.65,2.04,7.52,2.88,11.59c2.33,11.3,3.1,21.69,3.06,30.78c-2.85,0.77-6.53,1.5-10.88,1.71
			c-6.04,0.29-11.07-0.54-14.56-1.39c1.35-13.91,2.7-27.81,4.05-41.72C78.29,78.38,80,78.6,81.7,78.81z"/>
		<path class="st10" d="M77.94,74.95c-1.08,0.47-2.51,1.17-4.08,2.18c-1.06,0.69-3.47,2.35-5.81,5.12c-2.19,2.58-3.29,4.9-4.02,6.48
			c-0.79,1.7-1.29,3.19-1.62,4.3c-0.22,0.24-0.52,0.6-0.78,1.09c-1.1,2.03-0.45,4.05-0.33,4.41c0.6,1.75,1.89,2.72,2.34,3.05
			c0.57,0.42,1.87,1.37,3.78,1.42c2.12,0.05,3.6-1.04,3.96-1.31c2.75-2.09,3.23-6.33,1.35-8.98c-0.59-0.83-1.29-1.35-1.74-1.63
			C73.3,85.69,75.62,80.32,77.94,74.95z"/>
		<path class="st10" d="M92.17,73.94c2.37,0.56,4.15,1.36,5.3,1.96c5.28,2.74,7.83,6.79,8.72,8.25c0.74,1.22,1.2,2.26,2.1,4.35
			c1.26,2.92,2.07,5.41,2.58,7.16c0.24,0.37,0.55,0.91,0.78,1.61c0.16,0.49,0.93,2.86-0.51,5.03c-0.85,1.29-2.08,1.89-2.79,2.23
			c-0.62,0.3-2.6,1.23-5.18,0.82c-1.96-0.31-3.46-1.27-4.32-2.12c-2.4-2.4-2.46-6.79,0.1-10.75C96.7,86.3,94.43,80.12,92.17,73.94z"
			/>
		<path class="st10" d="M85.24,79.07c0,15.37,0,30.74,0,46.11c-2.14,0.29-4.77,0.47-7.76,0.29c-3.65-0.22-6.73-0.92-9.1-1.64
			c-0.52-2.76-1.03-6.36-1.2-10.59c-0.34-8.59,0.96-15.13,1.39-17.29c0.92-4.7,2.93-11.96,7.82-20.15c0.75-0.51,1.51-1.01,2.26-1.52
			c0.4,0.74,1.15,1.9,2.42,2.93C82.73,78.54,84.4,78.93,85.24,79.07z"/>
		<path class="st10" d="M85.24,125.18c1.03-0.11,2.51-0.29,4.28-0.54c1.33-0.19,2.32-0.35,3.28-0.5c1.84-0.3,4.38-0.71,7.52-1.23
			c0.31-0.86,0.76-2.26,0.98-4.05c0.3-2.39-0.01-4.23-0.02-4.9c-0.23-13.68-1.86-26.08-4.11-36.94c-1.67-1.02-3.34-2.04-5-3.06
			c-0.17,0.51-1.27,3.7-4.36,4.79c-0.98,0.35-1.89,0.38-2.57,0.34C85.24,94.44,85.24,109.81,85.24,125.18z"/>
		<g>
			<path class="st52" d="M99.64,87.49c0.19-0.09,0.48-0.19,0.84-0.22c0.25-0.02,0.44,0.01,0.78,0.08c1.12,0.22,1.44,0.33,1.98,0.3
				c0.24-0.01,0.46-0.05,0.66-0.19c0.15-0.11,0.37-0.34,0.3-0.54c-0.05-0.13-0.2-0.2-0.3-0.24c-0.15-0.06-0.26-0.07-0.45-0.08
				c-0.32-0.03-0.58-0.06-0.69-0.08c-0.22-0.04-0.27-0.08-0.69-0.22c-0.44-0.15-0.72-0.24-1.05-0.3c-0.26-0.05-0.23-0.01-0.93-0.05
				c-0.88-0.05-0.98-0.11-1.26-0.03c-0.16,0.05-0.34,0.16-0.69,0.38c-0.27,0.17-0.35,0.25-0.69,0.46c-0.06,0.04-0.23,0.15-0.54,0.33
				c-0.63,0.37-1.19,0.65-1.41,0.76c-0.73,0.38-1.22,0.77-1.77,1.2c-0.49,0.38-1.1,0.91-1.74,1.61c-1,1.2-2.62,2.72-4.85,2.99
				c-1.76,0.21-2.24-0.55-5.75-1.39c-3.54-0.84-6.44-0.86-8.21-0.87c-1.59-0.01-2.47,0.08-3.87,0.22c-1.22,0.12-2.53,0.3-3.93,0.9
				c-0.55,0.23-0.9,0.44-1.23,0.73c-0.85,0.77-1.03,1.72-1.08,1.99c-0.18,1.04,0.18,1.84,0.48,2.5c0.22,0.48,0.59,1.28,1.47,2.01
				c0.95,0.79,1.95,1.05,2.67,1.22c0.87,0.22,1.54,0.23,2.85,0.24c0.96,0.01,2.26,0.03,3.84-0.22c1.66-0.26,2.84-0.69,3.6-0.95
				c2.61-0.92,5.31-1.62,7.94-2.5c3.9-1.3,6.85-2.3,8.6-2.88c1.62-0.8,3.24-1.6,4.85-2.39c0.12-0.04,0.3-0.12,0.48-0.24
				c0.24-0.17,0.29-0.29,0.48-0.44c0.26-0.2,0.53-0.27,0.75-0.33c0.16-0.04,0.62-0.14,1.17-0.03c0.33,0.07,0.29,0.13,0.63,0.19
				c0.35,0.07,0.61,0.04,1.05,0c0.69-0.07,0.76-0.17,0.78-0.22c0.04-0.09,0.02-0.23-0.03-0.33c-0.02-0.03-0.06-0.11-0.15-0.16
				c-0.13-0.08-0.24-0.05-0.49-0.07c0,0-0.19-0.02-0.4-0.07c-0.23-0.05-0.34-0.12-0.51-0.19c-0.17-0.07-0.41-0.15-0.73-0.2
				c0.89-0.16,1.42-0.07,1.74,0.05c0.06,0.02,0.21,0.08,0.43,0.12c0.22,0.04,0.75,0.13,1.03-0.14c0.02-0.01,0.22-0.21,0.15-0.42
				c-0.04-0.12-0.15-0.19-0.16-0.2c-0.11-0.07-0.22-0.07-0.25-0.07c0.05,0,0.23-0.02,0.39-0.15c0.04-0.03,0.19-0.16,0.19-0.37
				c0.01-0.18-0.09-0.3-0.12-0.34c-0.09-0.02-0.21-0.05-0.36-0.08c-0.43-0.1-0.64-0.15-0.79-0.19c-0.47-0.13-0.48-0.21-1.03-0.41
				c-0.35-0.12-0.62-0.19-0.85-0.24c-0.36-0.08-0.78-0.18-1.33-0.2c-0.33-0.02-0.62-0.03-1.01,0.05c-0.34,0.07-0.61,0.17-0.79,0.26
				C99.63,87.73,99.63,87.61,99.64,87.49z"/>
			<path class="st51" d="M63.43,97.44c0.07-0.04,0.69,1.4,2.28,2.18c0.42,0.21,1.06,0.44,3.66,0.54c0.61,0.02,2.47,0.1,3.9,0
				c2.74-0.19,7.32-1.25,12.69-3.45c0.26,0.19,0.51,0.38,0.77,0.57c-0.82,0.25-2.08,0.64-3.63,1.14c-3.42,1.12-3.98,1.41-5.69,1.88
				c-2.02,0.55-3.66,0.99-5.87,1.03c-1.8,0.03-4.48,0.08-6.41-1.5C63.85,98.81,63.37,97.48,63.43,97.44z"/>
			<path class="st51" d="M72.53,91.3c-0.03,0.11,5.03,0.78,10.85,3.21c2.03,0.85,3.62,1.69,4.68,2.29
				c-0.48,0.16-0.96,0.33-1.44,0.49c-0.43-0.39-1.1-0.96-1.98-1.58c-1.01-0.72-3.73-2.52-7.86-3.64
				C74.53,91.45,72.55,91.24,72.53,91.3z"/>
			<path class="st51" d="M91.92,90.77c0.12-0.16,0.24-0.31,0.36-0.47c0.33,0.2,0.69,0.4,1.08,0.58c2.48,1.15,4.99,1.07,6.55,0.87
				c-0.09,0.13-0.25,0.31-0.48,0.47c-0.18,0.12-0.35,0.2-0.48,0.25C96.61,91.91,94.27,91.34,91.92,90.77z"/>
			<path class="st53" d="M105.44,89.5c-0.32-0.04-0.83-0.12-1.44-0.27c-1.18-0.31-1.57-0.61-2.34-0.65
				c-0.4-0.02-0.99,0.03-1.74,0.38"/>
			<path class="st53" d="M102.43,90.15c-0.14-0.08-0.39-0.19-0.72-0.22c-0.59-0.05-1.03,0.21-1.16,0.29"/>
		</g>
		<g>
			<path class="st54" d="M72.12,91.33c0.02,0.49,1.75,0.6,4.59,1.22c1.59,0.35,6.24,1.41,10.52,3.67c1.27,0.67,0.57,0.43,6.29,3.97
				c2.69,1.67,3.49,2.12,4.77,2.5c1.21,0.37,3.67,0.91,6.56,0.3c1.5-0.32,4.78-1.01,5.37-3.09c0.39-1.38-0.58-2.74-0.79-3.03
				c-0.73-1.02-1.71-1.51-2.7-1.96c-3.08-1.39-5.78-2.07-7.01-2.37c-3.93-0.97-5.89-1.45-6.92-1.63c-2.27-0.41-5.13-0.91-8.9-0.93
				c-1.79-0.01-3.28,0.09-4.32,0.19c-0.67-0.14-1.63-0.28-2.79-0.24C74.6,90.02,72.1,90.74,72.12,91.33z"/>
			<path class="st51" d="M91.78,99.11c1.03,0.53,2.61,1.26,4.63,1.92c2.11,0.69,4.54,1.48,7.64,1.31c2.34-0.13,4.54-0.76,5.12-1.71
				c0.64-1.05,0.54-2.07,0.54-2.08v0c0-1.59-2.12-3.11-2.05-3.18c0.03-0.03,0.59,0.25,1.19,0.84c0.45,0.44,1.61,1.6,1.46,3.21
				c-0.02,0.26-0.12,1.05-0.75,1.77c-0.46,0.52-1.04,0.83-2.19,1.2c-1.08,0.34-2.47,0.78-4.62,0.87c-1.48,0.06-2.86,0.12-4.56-0.38
				c-1.09-0.32-2.08-0.95-4.08-2.2C93.14,100.06,92.34,99.51,91.78,99.11z"/>
		</g>
		<path class="st12" d="M78.13,74.59c-0.06-0.09-2.42,1.21-4.85,2.93c-0.9,0.63-1.8,1.27-2.9,2.27c-1.41,1.27-3.04,3.04-4.48,5.38
			c-0.62,1.01-1.04,1.89-1.87,3.63c-1.14,2.41-2.07,4.72-1.99,4.75c0.14,0.06,1.91-6.93,7.51-12.68
			C73.62,76.69,78.21,74.71,78.13,74.59z"/>
		<path class="st12" d="M92.17,73.94c1.25,0.29,2.87,0.78,4.64,1.63c1.77,0.85,3.04,1.74,3.67,2.22c1.01,0.75,3.13,2.48,5.06,5.34
			c0.87,1.29,1.34,2.27,2.13,3.94c2.16,4.59,3.32,8.54,3.2,8.59c-0.2,0.07-1.74-10.17-9.45-16.79
			C98.24,76.13,94.81,74.72,92.17,73.94z"/>
		<path class="st12" d="M78.66,74.26c-0.04-0.05-2.34,1.38-4.89,3.25c-1.4,1.03-2.1,1.54-2.9,2.27c-1.41,1.27-3.04,3.04-4.48,5.38
			c-0.62,1.01-1.04,1.89-1.87,3.63c-1.14,2.41-2.07,4.72-1.99,4.75c0.14,0.07,1.99-6.81,7.51-12.68
			C74.11,76.53,78.71,74.33,78.66,74.26z"/>
		<path class="st12" d="M92.17,73.94c0.05-0.11,2.32,0.85,4.39,1.95c1.41,0.75,2.41,1.28,3.67,2.22c1.01,0.75,3.13,2.48,5.06,5.34
			c0.87,1.29,1.34,2.27,2.13,3.94c2.16,4.59,3.32,8.54,3.2,8.59c-0.21,0.08-1.57-10.21-9.45-16.79
			C97.06,75.75,92.09,74.1,92.17,73.94z"/>
		<path class="st12" d="M68.07,122.12c0.11,0.6,0.21,1.21,0.32,1.81c4.75,1.14,8.85,1.52,11.92,1.62c6.06,0.2,10.73-0.6,13.45-1.08
			c2.7-0.48,4.95-1.03,6.57-1.47c0.22-0.72,0.43-1.45,0.65-2.17c-1.57,0.55-3.75,1.24-6.4,1.83c-1.85,0.41-7.09,1.46-14.01,1.23
			C77.3,123.79,72.99,123.37,68.07,122.12z"/>
		<path class="st52" d="M75.18,55.23c-2.37,3.68-1.81,8.69,0.51,12.09c3.6,5.27,11.57,6.89,15.95,3.6c3.62-2.72,3.7-7.97,3.73-9.65
			c0.03-1.87,0.08-5.1-1.93-7.46C89.59,49.3,79.14,49.1,75.18,55.23z"/>
		<path class="st55" d="M75.93,64.14c0.17-0.68,0.42-1.75,0.59-3.09c0.33-2.48,0.1-3.44,0.85-4.09c0.69-0.61,1.26-0.1,2.89-0.69
			c1.62-0.58,1.5-1.23,2.55-1.51c2.15-0.56,3.28,1.98,5.9,1.74c1.82-0.17,2.24-1.48,3.16-1.16c2.16,0.74,1.28,8.41,1.85,8.41
			c0.33,0,0.75-2.8,1-2.78c0.21,0.02,0.21,2.11,0.11,4.81c0.07-0.25,0.18-0.62,0.3-1.08c1.47-5.55,1.04-9.67,0.75-11.52
			c-0.42-2.63-0.98-3.3-1.31-3.63c-1.23-1.21-3.13-1.23-4.17-1.23c-3.45-0.02-5.18-0.02-5.29-0.04c-3.01-0.42-3.25-1.62-5.29-1.43
			c-2.27,0.21-3.85,1.86-4.55,2.62c-0.4,0.43-1.99,2.3-2.62,5.4c-0.92,4.48,0.88,8.21,1.6,9.54c-0.24-3.31-0.16-4.06-0.03-4.08
			c0.13-0.02,0.38,0.68,0.87,2.07C75.38,63.19,75.71,63.77,75.93,64.14z"/>
		<path class="st52" d="M75.08,63.39c-0.18,0.47-0.91,0.68-1.43,0.65c-0.84-0.06-1.9-0.78-1.9-1.9c0-1.27,1.28-1.81,1.9-1.9
			c0.15-0.02,0.39-0.05,0.59,0.09c0.3,0.22,0.19,0.64,0.28,1.25C74.68,62.69,75.26,62.92,75.08,63.39z"/>
		<path class="st52" d="M97.17,62.11c0,0.98-0.94,1.84-1.78,1.78c-0.48-0.04-0.79-0.37-0.83-0.42c-0.67-0.75-0.08-2.01,0-2.19
			c0.17-0.37,0.4-0.85,0.83-0.95C96.1,60.16,97.17,61.06,97.17,62.11z"/>
		<g>
			<path class="st16" d="M83.56,60.25c-0.23,0.02-0.48,0.04-0.72,0.06c-0.24,0.02-0.48,0.04-0.71,0.06
				c-0.23,0.02-0.47,0.06-0.7,0.09c-0.23,0.04-0.45,0.08-0.67,0.13l-0.01,0c-0.16,0.03-0.31-0.07-0.34-0.23
				c-0.03-0.13,0.04-0.25,0.15-0.31c0.24-0.13,0.49-0.21,0.75-0.28c0.25-0.06,0.51-0.1,0.77-0.12c0.26-0.02,0.51-0.02,0.77-0.01
				c0.26,0.01,0.5,0.04,0.76,0.1c0.14,0.03,0.22,0.17,0.19,0.3c-0.02,0.11-0.12,0.19-0.22,0.2L83.56,60.25z"/>
			<path class="st16" d="M86.41,59.74c0.26-0.06,0.51-0.08,0.76-0.1c0.25-0.01,0.51-0.01,0.77,0.01c0.26,0.02,0.51,0.06,0.77,0.12
				c0.25,0.06,0.51,0.15,0.75,0.28c0.14,0.08,0.19,0.25,0.12,0.39c-0.06,0.12-0.19,0.17-0.31,0.15l-0.01,0
				c-0.22-0.05-0.45-0.09-0.67-0.13c-0.23-0.03-0.46-0.06-0.7-0.09c-0.23-0.02-0.47-0.04-0.71-0.06c-0.24-0.02-0.48-0.04-0.72-0.06
				l-0.01,0c-0.14-0.01-0.24-0.14-0.23-0.28C86.22,59.85,86.3,59.77,86.41,59.74z"/>
			<path class="st16" d="M82.45,62.23c0,0.36-0.22,0.65-0.5,0.65c-0.27,0-0.5-0.29-0.5-0.65c0-0.36,0.22-0.65,0.5-0.65
				C82.23,61.58,82.45,61.87,82.45,62.23z"/>
			<path class="st16" d="M88.38,62.23c0,0.36-0.22,0.65-0.5,0.65c-0.27,0-0.5-0.29-0.5-0.65c0-0.36,0.22-0.65,0.5-0.65
				C88.16,61.58,88.38,61.87,88.38,62.23z"/>
		</g>
		<path class="st56" d="M84.52,65.91c-0.09,0-0.15-0.07-0.15-0.15c0-0.09,0.07-0.16,0.15-0.16l0.7,0c0.42,0,0.75-0.44,0.75-0.97
			l0-0.08c0-0.2-0.12-0.36-0.26-0.36c0,0,0,0-0.01,0c-0.24,0-0.46-0.11-0.63-0.31c-0.16-0.19-0.25-0.45-0.25-0.72v-1.13
			c0-0.09,0.07-0.15,0.15-0.15c0.09,0,0.15,0.07,0.15,0.15v1.13c0,0.2,0.06,0.39,0.18,0.53c0.11,0.13,0.24,0.2,0.39,0.2
			c0,0,0,0,0.01,0c0.32,0,0.57,0.3,0.57,0.67l0,0.08c0,0.7-0.47,1.28-1.06,1.28L84.52,65.91C84.52,65.91,84.52,65.91,84.52,65.91z"
			/>
		<g>
			<g>
				<g>
					<path class="st18" d="M87.56,67.93c0.14,0.08-0.28,1.21-1.52,1.49c-1.07,0.24-2.27-0.27-2.25-0.38
						c0.02-0.09,0.78,0.12,1.74-0.07C86.88,68.69,87.43,67.86,87.56,67.93z"/>
				</g>
			</g>
		</g>
		<path class="st56" d="M73.12,61.04c0.05-0.07,0.15-0.08,0.22-0.03c0.07,0.05,0.08,0.15,0.03,0.22l-0.41,0.56
			c-0.25,0.34-0.1,0.87,0.33,1.18l0.06,0.05c0.16,0.12,0.36,0.12,0.45,0c0,0,0,0,0,0c0.04-0.03,0.27,0.14,0.25,0.18c0,0,0,0,0,0
			c-0.19,0.25-0.58,0.28-0.88,0.06l-0.06-0.05c-0.57-0.42-0.75-1.14-0.4-1.61L73.12,61.04C73.12,61.04,73.12,61.04,73.12,61.04z"/>
		<path class="st56" d="M96.04,60.95c-0.05-0.07-0.15-0.08-0.22-0.03c-0.07,0.05-0.08,0.15-0.03,0.22l0.41,0.56
			c0.25,0.34,0.1,0.87-0.33,1.18l-0.06,0.05c-0.16,0.12-0.36,0.12-0.45,0c0,0,0,0,0,0c-0.04-0.03-0.27,0.14-0.25,0.18c0,0,0,0,0,0
			c0.19,0.25,0.58,0.28,0.88,0.06l0.06-0.05c0.57-0.42,0.75-1.14,0.4-1.61L96.04,60.95C96.04,60.95,96.04,60.95,96.04,60.95z"/>
	</g>
	<g>
		<path class="st57" d="M199.17,90.91c0.3,1.71,0.73,3.29,1.22,4.74c1.08,3.22,2.6,5.97,4.34,6.24c-0.87-0.76-1.66-2.02-2.3-3.63
			c0.11,0.16,0.21,0.32,0.32,0.46c1.2,1.58,2.68,2.2,4.02,1.51c-0.55-1.4-0.91-3.14-1.12-4.99c-0.15-1.3-0.23-2.66-0.25-4
			c-0.04-3.25,0.21-6.47,0.4-9.69c0.31-5.22,0.52-10.62,0.45-15.89c-0.06-4.23-0.64-8.82-2.01-11.75c-0.71-1.51-1.72-2.18-2.66-1.74
			c-0.76,0.36-1.46,1.44-1.91,2.93c-0.1,0.34-0.19,0.7-0.27,1.08c-0.11,0.58-0.18,1.02-0.03,1.55c0.15,0.53,0.36,0.94,0.54,1.4
			c0.51,1.28,0.82,2.89,0.98,4.62c-0.08,0.16-0.17,0.33-0.24,0.51c-0.49,1.14-0.81,2.61-1.07,4.11c-0.7,4.01-1.03,8.36-1.07,12.7
			C198.49,84.42,198.62,87.83,199.17,90.91z"/>
		<path class="st57" d="M186.03,60.46c0,0.54,0.13,1.07,0.27,1.59c0.29,1.04,0.69,2.08,1.41,2.75c-0.09-1.37-0.03-2.76,0.15-4.12
			c2.47,3.2,7.63,4.3,7.84,4.34c-0.98-0.36-1.27-2.69-1.27-2.69c1.18,3.27,6.34,3.95,6.34,3.95c1.24-1.2,2.1,1.07,2.1,1.07
			c0.42-0.92,0.77-1.75,1.04-2.53c0.07-0.2,0.14-0.4,0.2-0.59c0.16-0.53,0.28-1.06,0.35-1.58c0.69-4.91-2.4-9.73-6.37-11.1
			c0,0-0.01,0-0.01,0c-3.76-1.29-8.2-0.11-10.29,2.36c-0.38,0.45-0.68,0.94-0.89,1.47c-0.03,0.08-0.06,0.16-0.08,0.24
			c-0.01,0.02-0.02,0.05-0.02,0.07c-0.14,0.46-0.21,0.94-0.2,1.45c0.01,0.31,0.04,0.6,0.09,0.89
			C186.3,58.74,186.02,59.62,186.03,60.46z"/>
		<g>
			<path class="st58" d="M194.16,78.21c0.88,0,2.24-0.27,2.24-1.14l-0.23-2.92l-0.2-2.55c0-0.88-0.71-1.58-1.58-1.58
				c-0.44,0-0.83,0.18-1.12,0.46c-0.29,0.29-0.46,0.68-0.46,1.12l-0.19,2.56l-0.19,2.45C192.18,78.08,194.16,78.21,194.16,78.21z"/>
		</g>
		<g>
			<path class="st59" d="M177.77,118.38c0.19,0.17,0.46,0.02,0.39-0.2c-0.04-0.11-0.08-0.23-0.12-0.34
				c0.06,0.06,0.12,0.11,0.19,0.17c0.09,0.22,0.23,0.43,0.42,0.6c0.08,0.07,0.27,0.07,0.27-0.07c0.06-1.32,0.27-2.45,0.82-3.7
				c0.15-0.33,0.27-0.65,0.37-0.96c0.22,0.81,0.3,1.63,0.5,2.44c0.04,0.15,0.29,0.2,0.36,0.04c0.62-1.37-0.09-3.1-0.34-4.48
				c-0.09-0.51-0.05-1.01-0.02-1.52c0-0.1,0.01-0.2,0.01-0.31c0.28-0.6,0.38-1.27,0.37-1.88c0-0.17-0.19-0.27-0.35-0.3
				c-1.31-0.26-1.9,1.16-2.17,2.02c-0.24,0.77-0.4,1.55-0.57,2.33c-0.35,0.69-0.73,1.35-1.12,2.02
				C176,115.55,176.64,117.34,177.77,118.38z M177.87,114.35c-0.01,0.02-0.02,0.04-0.03,0.07c-0.16,0.44-0.31,0.91-0.38,1.39
				c0-0.01,0-0.01,0-0.02C177.41,115.24,177.62,114.79,177.87,114.35z"/>
			<g>
				<path class="st60" d="M186.27,77.64c0,0-7.61,7.46-8.77,34.32l3.64,0.14c0,0,7.45-24.83,7.45-25.27
					C188.59,86.4,188.09,78.61,186.27,77.64z"/>
			</g>
		</g>
		<g>
			<g>
				<path class="st50" d="M184.2,165.18h3.59c0.78,0,2.38-1.37,2.38-1.37s0.47,0.93,0.88,1.34c0.41,0.41,0.31-3.97,0.31-3.97
					l-2.08-0.08l-4.48,2.66l-0.86,0.51c-0.12,0.07-0.21,0.19-0.23,0.33C183.66,164.9,183.9,165.18,184.2,165.18z"/>
				<path class="st59" d="M184.81,163.76c4.9,1.61,6.56-2.57,6.56-2.57l-2.08-0.08L184.81,163.76z"/>
			</g>
			<path class="st61" d="M185.14,114.18c-0.02-0.29-0.03-0.58-0.04-0.87c0-0.02,0-0.05,0-0.07c-0.01-0.29-0.02-0.57-0.03-0.87
				c0-0.02,0-0.05,0-0.07c-0.01-0.3-0.02-0.6-0.02-0.9c0,0,0,0,0-0.01c-0.01-0.3-0.01-0.6-0.01-0.91c0-0.02,0-0.05,0-0.07
				c0-0.29,0-0.58,0-0.87c0-0.05,0-0.09,0-0.14c0-0.28,0.01-0.57,0.01-0.86c0-0.05,0-0.1,0-0.15c0.01-0.29,0.02-0.58,0.03-0.87
				c0-0.04,0-0.08,0-0.12c0.01-0.31,0.03-0.62,0.04-0.93c0.02-0.37,0.05-0.7,0.08-1.01c0-0.01,0-0.01,0-0.02
				c1.06-9.59,8.41,7.04,8.41,7.04s-0.1,13.45-0.32,16.25c-0.22,2.8-1.67,20.47-1.85,32.52l-2.73,0.78c0,0-0.44-1.98-1.09-8.57
				c-0.65-6.6-4.36-11.05-0.33-24.73c0,0-1.71-6.16-2.17-14.55C185.14,114.19,185.14,114.19,185.14,114.18z"/>
		</g>
		<g>
			<g>
				<path class="st50" d="M204.07,166.07h-3.59c-0.78,0-2.38-1.37-2.38-1.37s-0.47,0.93-0.88,1.34c-0.41,0.41-0.31-3.97-0.31-3.97
					l2.08-0.08l4.48,2.66l0.86,0.51c0.12,0.07,0.21,0.19,0.23,0.33C204.61,165.79,204.38,166.07,204.07,166.07z"/>
				<path class="st59" d="M203.46,164.65c-4.9,1.61-6.56-2.57-6.56-2.57l2.08-0.08L203.46,164.65z"/>
			</g>
			<path class="st61" d="M203.13,115.07c0.02-0.29,0.03-0.58,0.04-0.87c0-0.02,0-0.05,0-0.07c0.01-0.29,0.02-0.57,0.03-0.87
				c0-0.02,0-0.05,0-0.07c0.01-0.3,0.02-0.6,0.02-0.9c0,0,0,0,0-0.01c0.01-0.3,0.01-0.6,0.01-0.91c0-0.02,0-0.05,0-0.07
				c0-0.29,0-0.58,0-0.87c0-0.05,0-0.09,0-0.14c0-0.28-0.01-0.57-0.01-0.86c0-0.05,0-0.1,0-0.15c-0.01-0.29-0.02-0.58-0.03-0.87
				c0-0.04,0-0.08,0-0.12c-0.01-0.31-0.03-0.62-0.04-0.93c-0.02-0.37-0.05-0.7-0.08-1.01c0-0.01,0-0.01,0-0.02
				c-1.06-9.59-8.41,7.04-8.41,7.04s0.1,13.45,0.32,16.25c0.22,2.8,1.67,20.47,1.85,32.52l2.73,0.78c0,0,0.44-1.98,1.09-8.57
				c0.65-6.6,4.36-11.05,0.33-24.73c0,0,1.71-6.16,2.17-14.55C203.13,115.09,203.13,115.08,203.13,115.07z"/>
		</g>
		<path class="st61" d="M189.27,95.53l3.68,1c0.85,0.23,1.73,0.23,2.58,0l3.68-1l3.57,7.98l-8.01,9.43h-1.06l-8.01-9.43
			L189.27,95.53z"/>
		<path class="st60" d="M191.39,78.35h6.14v-4.8l-1.01,0.18c-1.4,0.25-2.83,0.25-4.23-0.01l-0.9-0.17V78.35z"/>
		<path class="st59" d="M190.52,57.45c0.82-0.98,1.58-2.14,2.2-3.4c2.13,3.12,5.26,6.24,8.45,7.37c0.1,0.84,0.15,1.7,0.15,2.56
			c0,5-5.69,8.78-7.7,8.78s-6.09-3.79-6.09-8.78c0-1.45,0.14-2.92,0.47-4.27C188.93,59.08,189.78,58.33,190.52,57.45z"/>
		<g>
			<path class="st62" d="M198.25,106.3c0,0-1.69-1.3-2.13-0.84c-0.44,0.45,0.84,1.61,0.84,1.61L198.25,106.3z"/>
			<path class="st59" d="M193.04,107.91c0.17,0.45,3.15-1.06,3.15-1.06l0.69,0.63l-1.19,0.75l-1,1.78c0,0,0.23,0.32,0.54,0.7
				c0.04,0.05,0.08,0.09,0.12,0.14c0.19,0.22,0.4,0.45,0.59,0.64c0.02,0.02,0.04,0.04,0.06,0.05c0.1,0.09,0.19,0.17,0.28,0.22
				c0.1,0.06,0.18,0.1,0.25,0.11l1.06-1.19c0,0,2.19,0.1,2.49-0.05c0.12-0.06,0.42-0.55,0.74-1.13c0.15-0.28,0.31-0.57,0.46-0.84
				l-0.66-0.73l-1.5-1.64c-0.21-0.05-0.49-0.12-0.8-0.18v0c-0.15-0.03-0.32-0.06-0.48-0.09c-0.6-0.1-1.26-0.16-1.77-0.1
				c-0.22,0.03-0.41,0.08-0.56,0.15C194.46,106.61,192.87,107.46,193.04,107.91z"/>
			<g>
				<g>
					<path class="st63" d="M195.95,111.48c0.02,0.02,0.04,0.04,0.06,0.05c0.04-0.05,0.09-0.13,0.14-0.21
						c0.13-0.2,0.32-0.46,0.52-0.74c0.21-0.28,0.41-0.52,0.58-0.68c0.04-0.04,0.08-0.08,0.12-0.11c0.04-0.03,0.07-0.05,0.1-0.08
						c0.05-0.04,0.09-0.07,0.09-0.07s-0.04,0.01-0.11,0.03c-0.04,0.01-0.08,0.02-0.13,0.04c-0.05,0.02-0.1,0.04-0.16,0.07
						c-0.24,0.11-0.54,0.33-0.76,0.63c-0.22,0.31-0.34,0.62-0.4,0.85C195.97,111.35,195.96,111.42,195.95,111.48z"/>
				</g>
				<g>
					<path class="st63" d="M195.24,110.7c0.04,0.05,0.08,0.09,0.12,0.14c0.01-0.01,0.02-0.02,0.02-0.03
						c0.13-0.2,0.32-0.46,0.52-0.74c0.21-0.28,0.41-0.52,0.58-0.68c0.04-0.04,0.08-0.08,0.12-0.11c0.04-0.03,0.07-0.05,0.1-0.08
						c0.06-0.04,0.09-0.07,0.09-0.07s-0.04,0.01-0.11,0.03c-0.04,0.01-0.08,0.02-0.13,0.04c-0.05,0.02-0.1,0.04-0.16,0.07
						c-0.24,0.11-0.54,0.33-0.76,0.63C195.41,110.19,195.3,110.48,195.24,110.7z"/>
				</g>
				<path class="st62" d="M196.28,111.76c0.1,0.06,0.18,0.1,0.25,0.11l1.06-1.19c0,0,2.19,0.1,2.49-0.05
					c0.12-0.06,0.42-0.55,0.74-1.13c0.15-0.28,0.31-0.57,0.46-0.84l-0.66-0.73c-0.12,0.26-0.25,0.52-0.39,0.77
					c-0.37,0.69-0.75,1.26-1.03,1.32c-0.73,0.15-1.94,0.3-1.94,0.3L196.28,111.76z"/>
			</g>
			<path class="st60" d="M198.51,105.72l0.75,0.88l1.98,2.31l0.4,0.47c0,0,11.07-7.68,11.37-9.65c0.3-1.97-7.66-19.29-8.26-19.99
				c-0.6-0.7-2.41-2.18-2.41-2.18l-2.98,6.84l1.6,3.42v0l5.03,10.76L198.51,105.72z"/>
		</g>
		<path class="st60" d="M202.25,77.57l-1.59,9.89l-0.15,8.09c0,0-4.97,2.92-12.47,0.08c0,0,1.18-4.96,0.71-6.6l-2.59-11.36
			l5.34-2.09l0.04,0.08c1.21,2.4,4.89,2.33,6-0.11h0l3.54,1.51"/>
		<circle class="st64" cx="196.63" cy="64.06" r="0.89"/>
		<circle class="st64" cx="189.49" cy="64.06" r="0.89"/>
		<g>
			<path class="st65" d="M191.85,69.36l3.84-0.06c0,0-0.88,1.44-2.27,1.33C191.59,70.49,191.85,69.36,191.85,69.36z"/>
			<path class="st66" d="M192.76,70.52c0.51-0.49,1.25-0.82,2.21-0.82c0.14,0,0.26,0.02,0.38,0.03c0.21-0.23,0.33-0.42,0.33-0.42
				l-3.84,0.06C191.85,69.36,191.66,70.19,192.76,70.52z"/>
		</g>
		<g>
			<path class="st50" d="M193.76,62.39c-0.09,0.58-0.12,1.17-0.28,1.77c-0.16,0.59-0.5,1.17-0.97,1.6
				c-0.24,0.22-0.35,0.37-0.39,0.56c-0.02,0.17-0.01,0.22,0.12,0.36c0.3,0.27,0.91,0.4,1.48,0.57c0.02,0.01,0.03,0.03,0.03,0.05
				c0,0.01-0.01,0.02-0.02,0.03c-0.29,0.12-0.59,0.18-0.92,0.19c-0.32,0.02-0.66-0.03-1.01-0.24c-0.16-0.12-0.34-0.29-0.41-0.53
				c-0.07-0.23-0.05-0.48,0.03-0.67c0.14-0.38,0.5-0.64,0.71-0.78c0.44-0.32,0.78-0.75,1-1.27c0.24-0.51,0.37-1.09,0.56-1.66
				c0.01-0.02,0.03-0.03,0.05-0.02C193.75,62.36,193.76,62.38,193.76,62.39z"/>
		</g>
		<path class="st59" d="M200.99,62.6c0,0,2.5-3.42,3.23-0.14c0.58,2.61-2.64,5.47-3.21,4.05C200.88,66.18,200.99,62.6,200.99,62.6z"
			/>
		<g>
			<g>
				<circle class="st60" cx="197.73" cy="85.38" r="4.13"/>
				<circle class="st60" cx="190.72" cy="85.38" r="4.13"/>
			</g>
			<path class="st67" d="M190.72,88.83c1.48,0,2.78-0.78,3.51-1.95c0.73,1.17,2.03,1.95,3.51,1.95c2.17,0,3.94-1.67,4.11-3.79
				c0.01,0.11,0.02,0.23,0.02,0.34c0,2.28-1.85,4.13-4.13,4.13c-1.48,0-2.78-0.78-3.51-1.95c-0.73,1.17-2.03,1.95-3.51,1.95
				c-2.28,0-4.13-1.85-4.13-4.13c0-0.11,0.01-0.23,0.02-0.34C186.78,87.16,188.55,88.83,190.72,88.83z"/>
		</g>
		<path class="st68" d="M199.52,62.07c0,0-1.79-2.41-4.56-0.36C194.96,61.71,197.19,60.82,199.52,62.07z"/>
		<path class="st68" d="M191.72,61.67c0,0-2.09-2.09-4.35,0.39C187.37,62.06,189.32,60.81,191.72,61.67z"/>
	</g>
</g>
</svg>
